<?xml version="1.0"?>
<svg xmlns="http://www.w3.org/2000/svg" width="72" height="72" viewBox="0 0 72 72" fill="none">
<rect width="72" height="72" rx="16" fill="#ffffff"/>
<path d="M32.7646 21.9062C36.5752 21.9062 40.2931 22.5967 42.3135 23.377L39.7432 40.0254C39.6049 40.8066 39.421 41.6807 39.4209 42.2314C39.4209 43.7033 39.972 44.1181 42.4512 44.1182L41.625 49.7275C40.8903 49.8661 39.8802 50.0957 38.5039 50.0957C35.4734 50.0957 33.8665 48.9465 33.2236 47.4746C30.6535 48.9919 27.5308 50.0957 24.3633 50.0957C18.5803 50.0956 15.0001 47.8888 15 41.1279C15 34.7825 16.5599 26.0449 23.5381 23.2861C25.8793 22.3662 28.8623 21.9063 32.7646 21.9062ZM31.709 28.0225C29.5514 28.0225 27.8991 28.2063 26.7041 28.7129C23.2624 30.1839 22.3897 35.9313 22.3896 39.5645C22.3896 43.1512 23.5382 43.8877 26.1084 43.8877C27.945 43.8876 30.2392 43.059 32.3047 41.6338L34.3721 28.251C33.4538 28.1136 32.4436 28.0225 31.709 28.0225Z" fill="#ffffff"/>
<path fill-rule="evenodd" clip-rule="evenodd" d="M47.3283 36.4902H43.7565L43.2344 39.9532H46.8097L47.3283 36.4902" fill="#ffffff"/>
<path fill-rule="evenodd" clip-rule="evenodd" d="M52.1508 30.3379H44.7135L44.1914 33.8009H51.6322L52.1508 30.3379" fill="#ffffff"/>
<path fill-rule="evenodd" clip-rule="evenodd" d="M57.7002 23.9941H45.6686L45.1465 27.4572H57.1823L57.7002 23.9941" fill="#ffffff"/>
</svg>
