<?xml version="1.0"?>
<svg xmlns="http://www.w3.org/2000/svg" width="255" height="69" viewBox="0 0 255 69" fill="none">
<path fill-rule="evenodd" clip-rule="evenodd" d="M101.605 0C105.24 0 106.498 1.19228 106.498 3.90718C106.498 9.20451 104.382 10.6617 100.019 10.6617C96.3835 10.6617 95.0611 9.53486 95.0611 6.82163C95.0611 1.52263 97.2423 0 101.605 0ZM27.8961 23.9034C26.5737 23.7055 25.119 23.573 24.0611 23.573C20.9543 23.573 18.5756 23.838 16.8547 24.5674C11.8982 26.6853 10.641 34.9625 10.641 40.1944C10.641 45.3593 12.2949 46.4191 15.996 46.4191C18.6409 46.4191 21.9452 45.2268 24.9198 43.1743L27.8961 23.9034ZM38.3402 54.8283C38.2233 54.8504 38.1016 54.874 37.9749 54.8986C36.9544 55.0968 35.6087 55.3582 33.8456 55.3582C29.4816 55.3582 27.1682 53.7031 26.2425 51.5835C22.5414 53.7685 18.0452 55.3582 13.4837 55.3582C5.15577 55.3582 0 52.1805 0 42.4444C0 33.307 2.24644 20.7252 12.2952 16.7526C15.6665 15.4279 19.9619 14.7655 25.5813 14.7655C31.0685 14.7655 36.4218 15.7599 39.3312 16.8834L35.6301 40.8564C35.5933 41.0643 35.5542 41.2767 35.5151 41.4899L35.5148 41.4914L35.5148 41.4915C35.342 42.432 35.1664 43.3878 35.1664 44.0341C35.1664 46.1537 35.9598 46.7507 39.5304 46.7507L38.3402 54.8283ZM72.584 23.9035C71.6583 23.6402 70.535 23.5077 69.6094 23.5077C65.0478 23.5077 62.0079 23.9706 59.9573 25.6257C56.3885 28.4747 55.3958 35.625 55.3958 40.4595C55.3958 44.7641 56.7852 45.3594 60.4863 45.3594C63.2634 45.3594 66.8339 44.3667 69.8722 42.3142L72.584 23.9035ZM46.8686 58.603C49.5135 59.2654 53.0823 60.1257 57.1149 60.1257C65.7742 60.1257 67.4934 57.9407 68.0876 54.3655L68.486 51.9156C65.5767 53.3057 62.0731 54.2313 58.6348 54.2313C50.6367 54.2313 44.6875 52.048 44.6875 42.644C44.6875 34.1018 46.7364 21.7179 55.7272 17.3479C59.2307 15.6257 63.9898 14.7655 70.401 14.7655C75.756 14.7655 80.3175 15.8907 84.2178 17.15L78.2686 54.9608C76.5494 65.6225 69.7415 68.9998 56.7198 68.9998C53.4138 68.9998 48.3233 68.537 45.0172 67.3447L46.8686 58.603ZM104.58 15.2961H94.2663L88.2518 54.8291H98.4964L104.58 15.2961ZM127.159 0.677348H116.846L108.747 54.8295H118.992L127.159 0.677348ZM134.459 18.5409C140.013 16.4884 148.142 14.7662 154.885 14.7662C164.934 14.7662 169.627 17.4811 169.693 22.978C169.693 23.7058 169.627 24.4335 169.56 25.163L165.001 54.829H154.62L158.586 28.8706C158.614 28.4885 158.653 28.1287 158.69 27.796L158.69 27.7957C158.741 27.3224 158.787 26.9036 158.787 26.5531C158.72 24.3011 157.396 23.7058 153.233 23.7058C149.729 23.7058 145.434 24.6331 143.782 25.2301L139.22 54.829H128.842L134.459 18.5409ZM199.244 44.9608C197.724 46.1531 195.675 46.8154 192.766 46.8154C186.883 46.8154 185.494 44.4326 185.494 39.3985C185.494 34.896 186.552 28.4735 189.46 25.5591C190.916 24.1018 193.097 23.307 196.334 23.307C201.822 23.307 203.738 25.6245 203.738 30.3265C203.738 34.9614 202.68 42.1805 199.244 44.9608ZM182.717 18.9376C176.769 23.7705 174.851 33.9023 174.851 40.9889C174.851 52.1805 181.396 55.3582 191.443 55.3582C197.26 55.3582 201.557 54.166 204.796 52.1134C212.069 47.4785 214.316 36.7513 214.316 28.937C214.316 17.8778 207.573 14.7655 197.724 14.7655C190.782 14.7655 186.023 16.2898 182.717 18.9376Z" fill="#003650"/>
<path fill-rule="evenodd" clip-rule="evenodd" d="M229.437 46.0836H220.905L219.657 54.3558H228.198L229.437 46.0836Z" fill="#F6BE52"/>
<path fill-rule="evenodd" clip-rule="evenodd" d="M240.956 30.9271H223.19L221.943 39.1993H239.717L240.956 30.9271Z" fill="#40BBCF"/>
<path fill-rule="evenodd" clip-rule="evenodd" d="M254.214 15.7714H225.474L224.227 24.0435H252.977L254.214 15.7714Z" fill="#1585BB"/>
</svg>
