<?xml version="1.0"?>
<svg xmlns="http://www.w3.org/2000/svg" width="109" height="25" viewBox="0 0 109 25" fill="#ffffff">
<path d="M24.6769 10.6984L24.6642 10.6858C23.7664 9.93966 22.9191 9.2315 22.2994 8.52333C21.9453 8.11866 21.6924 7.73928 21.5154 7.3599C21.3131 6.92994 21.2119 6.49998 21.2119 6.07002V6.05738V6.04473V6.03209C21.2119 5.69065 21.2498 5.39979 21.3257 5.14687C21.4016 4.85602 21.5407 4.61575 21.7051 4.42606C21.8821 4.22373 22.0971 4.07197 22.35 3.97081C22.5903 3.88229 22.8685 3.8317 23.172 3.8317C23.4881 3.8317 23.7411 3.88229 23.9687 3.97081C24.2469 4.08462 24.4998 4.33754 24.6895 4.57781C24.8539 4.78014 24.9804 5.02042 25.0815 5.32392C25.1321 5.48831 25.1953 5.69065 25.208 5.86769C25.2333 6.285 25.208 6.65174 25.208 6.65174C25.208 6.70232 25.2333 6.7529 25.2712 6.77819C25.3092 6.81613 25.3597 6.82878 25.423 6.82878H29.3811C29.4317 6.82878 29.4823 6.80349 29.5329 6.77819C29.5961 6.74026 29.5961 6.68967 29.5961 6.6138C29.6214 6.29765 29.6214 6.03209 29.5961 5.79182C29.5961 5.80446 29.5961 5.79182 29.5835 5.72859C29.5708 5.58948 29.5076 5.28598 29.5076 5.28598C29.2294 3.84435 28.6224 2.60505 27.7245 1.71984C26.6876 0.695524 25.1953 0 23.602 0H23.5893C22.5397 0 21.5913 0.139105 20.7693 0.404668C19.9726 0.670232 19.2644 1.06225 18.6954 1.59338C18.1263 2.11186 17.6963 2.7568 17.4055 3.50291C17.102 4.27431 16.9502 5.13423 16.9502 6.08267C16.9502 7.76457 17.4687 9.28208 18.5057 10.6605C19.4541 11.9124 20.6808 12.9114 21.8442 13.8725L21.8568 13.8852C21.9327 13.9484 22.0086 13.999 22.0718 14.0622C22.9444 14.7577 25.3597 16.5408 25.5241 18.3365C25.7012 20.2208 24.7274 21.0175 23.5134 21.106C22.4259 21.1819 21.6545 20.4357 21.6545 20.4357C20.5164 19.3861 20.5669 18.2101 20.6302 17.4513C20.6428 17.3754 20.6681 17.249 20.5922 17.1731C20.529 17.1225 20.4911 17.1225 20.3773 17.1225H16.6594C16.4697 17.1352 16.457 17.3122 16.457 17.3122C16.4317 17.464 16.457 18.1216 16.457 18.1216V18.1974C16.5961 19.9173 17.3043 21.6245 18.316 22.7752C19.4794 24.0904 21.0981 24.7859 22.9697 24.7859V24.5836V24.8112C24.9551 24.8112 26.6623 24.2548 27.851 23.1926C28.458 22.6488 28.9385 21.9785 29.2547 21.2071C29.5835 20.4231 29.7352 19.5379 29.7352 18.5768C29.7352 16.9455 29.2041 15.4533 28.1418 14.0369C27.1555 12.7597 25.8909 11.7101 24.6769 10.6984ZM74.6155 0.21498H70.6573C70.6067 0.21498 70.5561 0.227626 70.5055 0.265564C70.4676 0.303501 70.4423 0.341439 70.4423 0.392022V18.6906C70.4423 19.5 70.1894 20.0817 69.7974 20.4484C69.4054 20.8151 68.8616 21.0048 68.204 21.0048C67.5464 21.0048 67.0026 20.8151 66.6106 20.4484C66.2186 20.0817 65.9657 19.5 65.9657 18.6906V0.404668C65.9657 0.354085 65.9404 0.316147 65.9024 0.278209C65.8645 0.240272 65.8139 0.227626 65.7507 0.227626H61.7925C61.7419 0.227626 61.6787 0.240272 61.6408 0.278209C61.6028 0.316147 61.5776 0.354085 61.5776 0.404668V19.0321C61.5776 20.6507 62.3237 22.0924 63.5124 23.142C64.7137 24.1789 66.3703 24.8239 68.1914 24.8239C70.0124 24.8239 71.669 24.1916 72.8703 23.142C74.0717 22.105 74.8178 20.6507 74.8178 19.0321V0.404668C74.8178 0.354085 74.7925 0.316147 74.7546 0.278209C74.7166 0.240272 74.666 0.21498 74.6155 0.21498ZM54.3315 18.7665C54.3315 19.5505 54.0406 20.107 53.598 20.4737C53.1554 20.8404 52.5357 21.0175 51.8655 21.0175C51.1826 21.0175 50.5756 20.8404 50.133 20.4737C49.6904 20.107 49.3996 19.5632 49.3996 18.7665V6.07002C49.3996 5.28598 49.6904 4.72956 50.133 4.36283C50.5756 3.9961 51.1953 3.81906 51.8655 3.81906C52.5484 3.81906 53.1554 4.00875 53.598 4.36283C54.0406 4.72956 54.3315 5.28598 54.3315 6.07002V18.7665ZM56.5192 1.53015C55.2167 0.518481 53.5095 0.0126459 51.8529 0.0126459C50.1963 0.0126459 48.4764 0.518481 47.1865 1.53015C45.884 2.54182 44.9988 4.07197 44.9988 6.07002V18.7665C44.9988 20.7645 45.884 22.2947 47.1865 23.3064C48.4891 24.318 50.1963 24.8239 51.8529 24.8239C53.5095 24.8239 55.2293 24.318 56.5192 23.3064C57.8217 22.2947 58.7069 20.7772 58.7069 18.7665V6.07002C58.7069 4.07197 57.8344 2.54182 56.5192 1.53015ZM91.738 0.151751H87.7672C87.7166 0.151751 87.6534 0.177042 87.6154 0.202334C87.5775 0.240272 87.5522 0.278209 87.5522 0.328793V13.9611L81.8995 0.278209C81.8742 0.202334 81.7857 0.164397 81.7098 0.164397H77.9034C77.8528 0.164397 77.8022 0.189688 77.7516 0.21498C77.7137 0.252918 77.6884 0.290855 77.6884 0.341439V24.3686C77.6884 24.4192 77.7137 24.4698 77.7516 24.4951C77.7896 24.533 77.8402 24.5457 77.9034 24.5457H81.8742C81.9248 24.5457 81.988 24.533 82.0259 24.4951C82.0639 24.4571 82.0892 24.4192 82.0892 24.3686V10.7616L87.8304 24.4318C87.8557 24.5077 87.9316 24.5457 88.0201 24.5457H91.7506C91.8012 24.5457 91.8644 24.533 91.9024 24.4951C91.9403 24.4571 91.9656 24.4192 91.9656 24.3686V0.341439C91.9656 0.290855 91.9403 0.252918 91.9024 0.21498C91.8392 0.177042 91.7886 0.151751 91.738 0.151751ZM9.89382 0.354085C9.86853 0.278209 9.79266 0.21498 9.69149 0.21498H6.39091C6.28975 0.21498 6.21387 0.278209 6.18858 0.354085L0.0047422 24.3813C-0.00790368 24.4318 0.00474222 24.4951 0.0426799 24.533C0.0806175 24.571 0.143847 24.5962 0.207076 24.5962H4.16524C4.26641 24.5962 4.35493 24.533 4.36757 24.4571L8.02223 8.09337L10.5767 19.4494L10.6779 19.8793H6.35298C6.28975 19.8793 6.23916 19.892 6.20123 19.9173C6.16329 19.9552 6.15064 20.0058 6.15064 20.0564L6.16329 20.107L6.92204 23.2811C6.93469 23.3317 6.94733 23.3822 6.98527 23.4075C7.02321 23.4455 7.08644 23.4581 7.13702 23.4581H9.84324C10.8043 23.4834 11.4366 23.749 11.6895 24.3686L11.7275 24.4571C11.7528 24.5457 11.8286 24.5962 11.9172 24.5962H15.888C15.9512 24.5962 16.0144 24.571 16.0524 24.533C16.0903 24.4951 16.103 24.4318 16.0903 24.3813L9.89382 0.354085ZM103.739 18.2101C103.739 19.2217 103.524 19.9299 103.081 20.3599C102.639 20.8025 101.943 21.0301 100.856 21.0301H100.603H99.2243V3.84435H100.856C101.994 3.84435 102.689 4.09727 103.119 4.55252C103.549 5.00777 103.739 5.70329 103.739 6.62644V18.2101ZM106.281 1.94747C105.041 0.834628 103.22 0.240272 100.932 0.240272H95.0133C94.9627 0.240272 94.8995 0.265564 94.8615 0.290855C94.8236 0.328793 94.7983 0.366731 94.7983 0.417314V24.4445C94.7983 24.4951 94.8236 24.533 94.8615 24.571C94.8995 24.6089 94.9627 24.6215 95.0133 24.6215H100.577C102.955 24.6215 104.864 24.0778 106.167 22.9523C107.469 21.8141 108.152 20.1196 108.152 17.8686V6.62644C108.165 4.65369 107.52 3.04766 106.281 1.94747ZM43.7848 0.21498H30.2537C30.2031 0.21498 30.1399 0.227626 30.0893 0.265564C30.0514 0.303501 30.0387 0.379377 30.0387 0.42996L30.8101 3.64201C30.8228 3.6926 30.8354 3.74318 30.8733 3.76847C30.9113 3.80641 30.9619 3.81906 31.0251 3.81906H35.0212V24.4318C35.0212 24.4824 35.0465 24.533 35.0844 24.5583C35.1224 24.5962 35.1729 24.6089 35.2362 24.6089H39.1943C39.2449 24.6089 39.3081 24.5962 39.3461 24.5583C39.384 24.5204 39.4093 24.4824 39.4093 24.4318V3.81906H43.7848C43.8354 3.81906 43.8986 3.80641 43.9365 3.76847C43.9745 3.74318 43.9998 3.6926 43.9998 3.64201V0.404668C43.9998 0.354085 43.9745 0.316147 43.9365 0.278209C43.8986 0.240272 43.8354 0.21498 43.7848 0.21498Z" fill="#ffffff"/>
</svg>
