<?xml version="1.0"?>
<svg xmlns="http://www.w3.org/2000/svg" width="69" height="46" viewBox="0 0 69 46" fill="none">
<path d="M43.9766 0C50.547 0.000125792 52.4484 5.90923 52.8203 6.81836C53.1923 7.72793 54.8029 14.2154 51.7451 19.2568C48.6872 24.2984 42.0183 25.033 37.4473 23.1006C38.3428 23.5828 40.6876 24.5628 42.9023 24.6289C45.671 24.7115 49.3522 24.1443 52.1621 19.6816C54.41 16.1115 53.9866 11.2297 53.8213 9.54883C54.5378 10.2102 56.8702 12.4391 58.4404 15.6621C60.0107 18.8853 61.8696 22.3981 62.9854 23.8857C64.1011 25.3734 65.4652 26.0342 68.5645 26.0342C67.5727 26.5301 64.6884 27.1586 61.085 25.7041L61.0771 25.708C60.322 26.1275 57.5417 27.6726 56.751 30.5391C55.7593 34.134 55.9658 36.3004 55.9658 37.6465C55.9658 38.289 55.9656 40.0439 53.6875 40.0439C53.5374 40.0439 53.3308 40.0476 53.0742 40.0498C53.2861 39.5827 53.3721 38.9736 53.3721 38.1865V33.6162H49.1865V36.2861H50.1904V38.5283C50.1902 38.8484 49.8695 38.998 49.165 38.998C48.5246 38.998 48.2471 38.8482 48.2471 38.4639V30.2207C48.2471 29.5378 48.4607 29.3243 49.1436 29.3242C49.955 29.3242 50.1904 29.5166 50.1904 30.1572V31.6514H53.3721V30.2422C53.372 27.7439 52.2826 26.8896 49.1436 26.8896C46.0261 26.8897 44.8301 27.7014 44.8301 29.8154V38.5068C44.8301 39.1736 44.9442 39.7095 45.1992 40.1309C44.8689 40.134 44.5349 40.1377 44.1982 40.1406V27.04H40.9102V40.1631C40.5198 40.1649 40.1306 40.1679 39.7441 40.1689C40.1217 39.5484 40.2773 38.6327 40.2773 37.332C40.2773 34.983 39.6999 34.1286 37.8848 33.915V33.8721C39.6145 33.509 40.042 32.8894 40.042 30.6045C40.0419 27.6792 39.4009 27.0391 36.4541 27.0391H31.5859V40.0781C31.312 40.0668 31.0606 40.0578 30.835 40.0439C30.1049 39.9613 29.7247 39.3983 29.2949 37.8115C28.7578 35.8281 28.4681 33.7211 26.6914 31.8203C24.9144 29.9194 21.9085 29.4647 19.3877 29.2168C16.8672 28.969 15.1319 29.5464 12.6113 28.6787C10.0905 27.8109 6.94943 23.3869 6.66016 20.8467H8.80469C9.45048 21.9423 11.0355 24.3336 12.209 25.1318C13.6574 26.117 15.6461 26.0334 16.2803 26.0068L16.3037 26.0059C16.9105 25.9806 18.175 25.6016 19.1611 24.0088C20.1472 22.416 21.0069 18.8004 21.4873 17.2324C21.9677 15.6647 23.6033 12.5213 26.3721 10.4551C29.1408 8.38885 31.0004 7.76902 31.9922 7.31445C32.984 6.85987 33.9763 5.41397 34.8027 4.38086C35.6292 3.34774 37.4059 0 43.9766 0ZM35.8564 35.1748C36.6679 35.1748 36.8604 35.4312 36.8604 36.4775V37.5234C36.8604 38.6339 36.6893 38.8477 35.8564 38.8477H34.874V35.1748H35.8564ZM35.6641 29.4727C36.561 29.4727 36.7529 29.7082 36.7529 30.7119V31.5869C36.7529 32.6333 36.5823 32.8253 35.6641 32.8467H34.874V29.4727H35.6641ZM28.5674 18.6328C27.8355 18.6328 27.2422 19.2271 27.2422 19.959C27.2424 20.6907 27.8356 21.2842 28.5674 21.2842C29.2991 21.2841 29.8923 20.6906 29.8926 19.959C29.8926 19.2271 29.2992 18.6329 28.5674 18.6328Z" fill="#ffffff"/>
<path d="M52.998 40.5H53.6955V44.1073H52.998V40.5Z" fill="#ffffff"/>
<path d="M48.7131 41.7294C48.8974 41.4944 49.214 41.377 49.6626 41.377C49.9547 41.377 50.2141 41.4349 50.4409 41.5507C50.6677 41.6666 50.7811 41.8852 50.7811 42.2066V43.4302C50.7811 43.5151 50.7827 43.6179 50.786 43.7386C50.7908 43.83 50.8047 43.892 50.8276 43.9246C50.8504 43.9572 50.8847 43.9842 50.9303 44.0054V44.1082H50.1717C50.1505 44.0543 50.1358 44.0037 50.1276 43.9564C50.1195 43.9091 50.1129 43.8553 50.108 43.7949C50.0118 43.8993 49.9008 43.9882 49.7752 44.0617C49.6251 44.1481 49.4554 44.1914 49.2662 44.1914C49.0247 44.1914 48.8248 44.1228 48.6666 43.9858C48.51 43.8471 48.4316 43.6513 48.4316 43.3984C48.4316 43.0705 48.5581 42.8331 48.811 42.6863C48.9497 42.6063 49.1536 42.5492 49.4228 42.515L49.6602 42.4856C49.7891 42.4693 49.8813 42.4489 49.9367 42.4244C50.0363 42.382 50.086 42.3159 50.086 42.2262C50.086 42.1169 50.0477 42.0418 49.971 42.001C49.8959 41.9586 49.785 41.9374 49.6382 41.9374C49.4734 41.9374 49.3567 41.9782 49.2882 42.0598C49.2393 42.1201 49.2066 42.2017 49.1903 42.3045H48.5173C48.532 42.0712 48.5972 41.8795 48.7131 41.7294ZM49.2319 43.604C49.2972 43.6578 49.3771 43.6848 49.4717 43.6848C49.6218 43.6848 49.7597 43.6407 49.8853 43.5526C50.0126 43.4645 50.0787 43.3038 50.0836 43.0705V42.8111C50.0395 42.8388 49.9947 42.8617 49.949 42.8796C49.9049 42.8959 49.8437 42.9114 49.7654 42.9261L49.6088 42.9555C49.462 42.9816 49.3567 43.0134 49.2931 43.0509C49.1854 43.1145 49.1316 43.2133 49.1316 43.347C49.1316 43.4661 49.165 43.5518 49.2319 43.604Z" fill="#ffffff"/>
<path d="M46.5891 43.611V44.1323L46.2587 44.1445C45.9291 44.1559 45.7039 44.0988 45.5832 43.9732C45.5049 43.8932 45.4657 43.7701 45.4657 43.6036V41.9615H45.0938V41.4647H45.4657V40.7207H46.1559V41.4647H46.5891V41.9615H46.1559V43.3711C46.1559 43.4805 46.1697 43.549 46.1975 43.5767C46.2252 43.6028 46.3101 43.6159 46.452 43.6159C46.4732 43.6159 46.4952 43.6159 46.5181 43.6159C46.5426 43.6142 46.5662 43.6126 46.5891 43.611Z" fill="#ffffff"/>
<path d="M43.1096 41.4403V44.1079H42.4023V41.4403H43.1096ZM43.1096 40.4785V41.1222H42.4023V40.4785H43.1096Z" fill="#ffffff"/>
<path d="M38.5056 44.5756C38.5807 44.6392 38.7071 44.671 38.885 44.671C39.1362 44.671 39.3043 44.587 39.3891 44.419C39.4446 44.3113 39.4723 44.1302 39.4723 43.8757V43.7043C39.4054 43.8186 39.3336 43.9042 39.257 43.9613C39.1183 44.0674 38.938 44.1204 38.7161 44.1204C38.3735 44.1204 38.0994 44.0005 37.8938 43.7606C37.6899 43.5192 37.5879 43.1929 37.5879 42.7817C37.5879 42.3852 37.6866 42.0524 37.884 41.7832C38.0814 41.5124 38.3612 41.377 38.7234 41.377C38.8572 41.377 38.9739 41.3973 39.0734 41.4381C39.2431 41.5083 39.3801 41.6372 39.4846 41.8248V41.4406H40.1625V43.9711C40.1625 44.3154 40.1045 44.5748 39.9887 44.7493C39.7897 45.0495 39.4079 45.1997 38.8434 45.1997C38.5024 45.1997 38.2242 45.1328 38.0088 44.999C37.7935 44.8652 37.6744 44.6653 37.6515 44.3994H38.4102C38.4298 44.481 38.4616 44.5397 38.5056 44.5756ZM38.3882 43.1978C38.4828 43.4229 38.6525 43.5355 38.8972 43.5355C39.0604 43.5355 39.1982 43.4743 39.3108 43.3519C39.4234 43.2279 39.4797 43.0313 39.4797 42.7621C39.4797 42.5092 39.4258 42.3167 39.3181 42.1846C39.2121 42.0524 39.0693 41.9863 38.8899 41.9863C38.6451 41.9863 38.4763 42.1014 38.3833 42.3314C38.3343 42.4538 38.3098 42.6047 38.3098 42.7842C38.3098 42.9392 38.336 43.077 38.3882 43.1978Z" fill="#ffffff"/>
<path d="M35.4924 41.4403V44.1079H34.7852V41.4403H35.4924ZM35.4924 40.4785V41.1222H34.7852V40.4785H35.4924Z" fill="#ffffff"/>
<path d="M32.5619 40.5059V44.1083H31.884V43.7388C31.7845 43.897 31.6711 44.012 31.5439 44.0838C31.4166 44.1556 31.2583 44.1915 31.0691 44.1915C30.7575 44.1915 30.4948 44.0659 30.281 43.8146C30.0689 43.5617 29.9629 43.2379 29.9629 42.843C29.9629 42.3878 30.0673 42.0297 30.2761 41.7687C30.4866 41.5076 30.7672 41.3771 31.118 41.3771C31.2795 41.3771 31.4231 41.413 31.5487 41.4848C31.6744 41.5549 31.7763 41.6528 31.8547 41.7785V40.5059H32.5619ZM30.6824 42.7916C30.6824 43.038 30.7313 43.2346 30.8292 43.3814C30.9255 43.5299 31.0723 43.6042 31.2698 43.6042C31.4672 43.6042 31.6173 43.5307 31.7201 43.3839C31.8228 43.2371 31.8742 43.047 31.8742 42.8137C31.8742 42.4874 31.7918 42.2541 31.6271 42.1137C31.5259 42.0289 31.4084 41.9865 31.2746 41.9865C31.0707 41.9865 30.9206 42.064 30.8243 42.219C30.7297 42.3723 30.6824 42.5632 30.6824 42.7916Z" fill="#ffffff"/>
<rect x="13.4375" y="6.21094" width="2.1645" height="2.1645" fill="#ffffff"/>
<rect x="9.94336" y="4.83789" width="2.1645" height="2.1645" fill="#ffffff"/>
<rect x="6.66016" y="6.21094" width="2.1645" height="2.1645" fill="#ffffff"/>
<rect x="6.66016" y="9.54102" width="2.1645" height="2.1645" fill="#ffffff"/>
<rect x="5.24219" y="11.0723" width="2.01901" height="2.01901" fill="#ffffff"/>
<rect x="7.55859" y="16.4102" width="2.01901" height="2.01901" fill="#ffffff"/>
<rect x="6.70508" y="18.2305" width="2.01901" height="2.01901" fill="#ffffff"/>
<rect x="9.94336" y="11.498" width="2.1645" height="2.1645" fill="#ffffff"/>
<rect x="8.56836" y="14.2441" width="2.1645" height="2.1645" fill="#ffffff"/>
<rect y="6.21094" width="2.1645" height="2.1645" fill="#ffffff"/>
<rect x="4.16211" y="8.00195" width="2.1645" height="2.1645" fill="#ffffff"/>
<rect x="3.66211" y="5.12891" width="2.1645" height="2.1645" fill="#ffffff"/>
<rect x="11.2734" y="8.375" width="2.1645" height="2.1645" fill="#ffffff"/>
<rect x="9.94336" y="8.00195" width="1.78849" height="1.78849" fill="#ffffff"/>
<rect x="5.84766" y="13.3496" width="1.78849" height="1.78849" fill="#ffffff"/>
<rect x="2.16406" y="7.83789" width="1.49705" height="1.49705" fill="#ffffff"/>
<rect x="8.07422" y="12.457" width="0.894025" height="0.894025" fill="#ffffff"/>
<rect x="4.91797" y="15.6172" width="1.78849" height="1.78849" fill="#ffffff"/>
<rect x="2.75195" y="12.8691" width="2.1645" height="2.1645" fill="#ffffff"/>
<rect x="1.99609" y="10.166" width="2.1645" height="2.1645" fill="#ffffff"/>
</svg>
