<?xml version="1.0"?>
<svg xmlns="http://www.w3.org/2000/svg" width="145" height="48" viewBox="0 0 145 48" fill="none">
<g clip-path="url(#clip0_4890_25075)">
<mask id="mask0_4890_25075" style="mask-type:luminance" maskUnits="userSpaceOnUse" x="0" y="0" width="145" height="48">
<path d="M0 -0.000281036H144.332V47.7539H0V-0.000281036Z" fill="white"/>
</mask>
<g mask="url(#mask0_4890_25075)">
<path d="M47.252 20.2982C47.252 17.3092 49.5393 15.1901 52.6548 15.1901C54.465 15.1901 55.9243 15.8497 56.8787 17.0425L55.1105 18.6423C54.4931 17.8985 53.7353 17.4915 52.795 17.4915C51.1812 17.4915 50.0586 18.6141 50.0586 20.2982C50.0586 21.9822 51.1812 23.1048 52.795 23.1048C53.7353 23.1048 54.4931 22.6978 55.1105 21.954L56.8787 23.5538C55.9243 24.7468 54.465 25.4062 52.6548 25.4062C49.5393 25.4062 47.252 23.2872 47.252 20.2982Z" fill="white"/>
<path d="M67.4594 15.3859V25.209H64.6807V21.378H60.8919V25.209H58.1133V15.3859H60.8919V19.0765H64.6807V15.3859H67.4594Z" fill="white"/>
<path d="M75.1904 21.2516L73.9276 18.1082L72.6646 21.2516H75.1904ZM76.0044 23.3004H71.8507L71.0787 25.209H68.2441L72.5805 15.3859H75.3167L79.667 25.209H76.7763L76.0044 23.3004Z" fill="white"/>
<path d="M89.3219 25.209L89.2939 20.0027L86.7679 24.2407H85.5329L83.0212 20.1429V25.209H80.4531V15.3859H82.7403L86.1925 21.0551L89.5606 15.3859H91.848L91.876 25.209H89.3219Z" fill="white"/>
<path d="M101.726 23.0618V25.209H93.8398V15.3857H101.544V17.5329H96.5903V19.1887H100.955V21.2655H96.5903V23.0618H101.726Z" fill="white"/>
<path d="M103.27 15.3859H106.048V23.0059H110.735V25.209H103.27V15.3859Z" fill="white"/>
<path d="M119.715 23.0618V25.209H111.828V15.3857H119.533V17.5329H114.579V19.1887H118.943V21.2655H114.579V23.0618H119.715Z" fill="white"/>
<path d="M128.852 20.2982C128.852 18.6002 127.687 17.4915 126.199 17.4915C124.712 17.4915 123.547 18.6002 123.547 20.2982C123.547 21.9963 124.712 23.1048 126.199 23.1048C127.687 23.1048 128.852 21.9963 128.852 20.2982ZM120.74 20.2982C120.74 17.3511 123.056 15.1901 126.199 15.1901C129.343 15.1901 131.658 17.3511 131.658 20.2982C131.658 23.2452 129.343 25.4062 126.199 25.4062C123.056 25.4062 120.74 23.2452 120.74 20.2982Z" fill="white"/>
<path d="M142.461 15.3859V25.209H140.174L135.838 19.9747V25.209H133.115V15.3859H135.403L139.739 20.6201V15.3859H142.461Z" fill="white"/>
<path d="M82.6546 32.0956C83.5384 32.0956 84.1106 31.5573 84.1106 30.7359C84.1106 29.9146 83.5384 29.3763 82.6546 29.3763H81.6917V32.0956H82.6546ZM80.9551 28.7532H82.6885C83.9746 28.7532 84.8527 29.5463 84.8527 30.7359C84.8527 31.9256 83.9746 32.7188 82.6885 32.7188H80.9551V28.7532Z" fill="white"/>
<path d="M87.0508 28.7532H87.7872V32.7188H87.0508V28.7532Z" fill="white"/>
<path d="M92.9832 30.6908H93.6801V32.2713C93.2666 32.6054 92.6889 32.7754 92.1278 32.7754C90.8986 32.7754 89.9922 31.9199 89.9922 30.736C89.9922 29.552 90.8986 28.6967 92.1393 28.6967C92.802 28.6967 93.3572 28.9176 93.7311 29.3424L93.2666 29.7957C92.9551 29.4841 92.5982 29.3424 92.1732 29.3424C91.3291 29.3424 90.7343 29.9148 90.7343 30.736C90.7343 31.5406 91.3291 32.1296 92.1675 32.1296C92.4508 32.1296 92.7282 32.073 92.9832 31.9258V30.6908Z" fill="white"/>
<path d="M96.0645 28.7532H96.8009V32.7188H96.0645V28.7532Z" fill="white"/>
<path d="M100.092 29.3763H98.7773V28.7532H102.142V29.3763H100.828V32.7188H100.092V29.3763Z" fill="white"/>
<path d="M106.245 31.223L105.497 29.4895L104.755 31.223H106.245ZM106.488 31.8009H104.505L104.115 32.7188H103.355L105.14 28.7532H105.865L107.655 32.7188H106.885L106.488 31.8009Z" fill="white"/>
<path d="M109.576 28.7532H110.313V32.0956H112.386V32.7188H109.576V28.7532Z" fill="white"/>
<path d="M121.008 32.7188L121.002 30.0901L119.699 32.2654H119.371L118.068 30.124V32.7188H117.365V28.7532H117.971L119.546 31.3818L121.093 28.7532H121.699L121.705 32.7188H121.008Z" fill="white"/>
<path d="M127.166 32.1012V32.7188H124.191V28.7532H127.086V29.3706H124.928V30.4016H126.843V31.0078H124.928V32.1012H127.166Z" fill="white"/>
<path d="M131.104 32.0956C131.987 32.0956 132.56 31.5573 132.56 30.7359C132.56 29.9146 131.987 29.3763 131.104 29.3763H130.141V32.0956H131.104ZM129.404 28.7532H131.138C132.424 28.7532 133.302 29.5463 133.302 30.7359C133.302 31.9256 132.424 32.7188 131.138 32.7188H129.404V28.7532Z" fill="white"/>
<path d="M135.5 28.7532H136.236V32.7188H135.5V28.7532Z" fill="white"/>
<path d="M141.051 31.223L140.304 29.4895L139.562 31.223H141.051ZM141.295 31.8009H139.312L138.921 32.7188H138.162L139.947 28.7532H140.672L142.462 32.7188H141.691L141.295 31.8009Z" fill="white"/>
</g>
<path d="M24.606 2.72499C24.3861 2.89534 24.2301 3.17866 24.4246 3.47552C24.6559 3.76151 24.9806 3.85274 25.2894 3.91155C25.8651 4.02131 26.6773 4.05837 27.1611 3.61771C27.3963 3.40335 27.4522 3.10471 27.2081 2.84474C27.1015 2.73141 26.9702 2.6514 26.836 2.60704C26.7405 2.57568 26.6181 2.58405 26.5328 2.51723C26.2696 2.4782 25.9613 2.43491 25.6543 2.43491C25.2733 2.43491 24.8943 2.50155 24.606 2.72499ZM29.1938 3.16726C29.2175 3.49459 29.4123 3.74245 29.6354 3.89961C30.0466 4.18898 30.6248 4.35933 31.0714 4.15815C31.1288 4.13232 31.1737 4.09989 31.2088 4.06283C30.2617 3.47071 29.534 3.07299 29.2173 2.90514C29.1947 2.97392 29.1862 3.06052 29.1938 3.16726ZM28.2113 3.61807C28.0078 3.7706 28.1238 4.11539 27.9283 4.26115C27.9955 4.48067 28.2145 4.55373 28.3809 4.52647C28.5762 4.46428 28.6732 4.2836 28.6967 4.04483C28.6969 4.0475 28.6976 4.04483 28.6988 4.0279C28.6988 4.02077 28.6985 4.01881 28.6985 4.01881C28.6912 3.76828 28.5319 3.58386 28.3478 3.58386C28.3032 3.58368 28.2571 3.59455 28.2113 3.61807ZM18.3442 4.06158C18.3183 4.06336 18.2927 4.06532 18.2672 4.06764C18.1086 4.081 17.9539 4.09989 17.8048 4.12448C17.5605 4.16493 17.3306 4.22123 17.1191 4.29375C17.0981 4.37554 17.0926 4.4698 17.1083 4.57957C17.1083 4.58153 17.1083 4.58331 17.1086 4.58527C17.1143 4.61075 17.1215 4.63463 17.1277 4.6594C17.223 5.02753 17.4112 5.30354 17.6658 5.53465C18.2184 6.03589 19.024 6.40153 19.6984 6.26522C20.0533 6.16793 20.2119 5.92435 20.1756 5.47425C20.1731 5.44253 20.1685 5.41188 20.1647 5.38088C20.118 5.00294 19.9762 4.65904 19.7356 4.40477C19.6011 4.26239 19.4461 4.14604 19.2791 4.05302C19.1426 4.04625 19.0074 4.04287 18.8739 4.04287C18.6936 4.04287 18.5165 4.0491 18.3442 4.06158ZM26.3938 5.08223C26.328 5.40065 26.6188 5.5138 26.8216 5.50614C27.0666 5.49688 27.3196 5.37606 27.4175 5.08295C27.4782 4.79607 27.3362 4.77148 27.1228 4.74172C27.1135 4.74101 27.1065 4.74047 27.1007 4.73994C27.0408 4.73531 26.9802 4.73121 26.9209 4.73121C26.6985 4.73121 26.4918 4.78805 26.3938 5.08223ZM32.4728 4.94414C32.6861 5.21178 32.9823 5.35451 33.2709 5.44681C32.9808 5.23779 32.6973 5.04036 32.4224 4.85362C32.4366 4.88355 32.4527 4.91349 32.4728 4.94414ZM23.5859 4.93416C23.5697 4.93434 23.5558 4.93541 23.5405 4.93594C23.5234 4.93648 23.5066 4.93701 23.4895 4.93772C23.1973 4.95305 23.0401 5.01203 23.0401 5.01203C22.8279 5.08099 22.6016 5.20607 22.5768 5.50311C22.5799 5.77431 22.6761 5.9958 22.8471 6.16472C23.2238 6.53678 23.77 6.65741 24.2301 6.70552C24.6679 6.73955 25.3341 6.7433 25.6187 6.26166C25.8824 5.69253 25.1976 5.33473 24.9077 5.22051C24.8863 5.21142 24.6716 5.12785 24.6919 5.13516C24.601 5.10255 24.5095 5.07386 24.4173 5.04909C24.2637 5.00757 24.1084 4.97657 23.9526 4.95572C23.8368 4.9404 23.7172 4.93398 23.5978 4.93505C23.5939 4.93505 23.5907 4.93416 23.587 4.93416C23.5866 4.93416 23.5863 4.93416 23.5859 4.93416ZM20.8575 5.59702C20.9493 5.91366 21.2328 6.09487 21.4856 6.13229C21.5986 6.13586 21.7018 6.11376 21.7732 5.99919C21.8231 5.88711 21.8055 5.74723 21.8616 5.64245C21.8395 5.33081 21.5033 5.1528 21.2217 5.1528C20.974 5.1528 20.7688 5.29071 20.8575 5.59702ZM28.4814 5.3055C27.7703 5.62517 28.2551 6.71069 28.7186 7.04764C29.0151 7.26289 29.3759 7.42861 29.7398 7.49133C29.9873 7.53374 30.2359 7.52875 30.4666 7.45818C30.5525 7.43181 30.6359 7.39707 30.7159 7.35199C31.0053 7.15669 31.1699 6.83114 31.1086 6.40777C31.0331 6.05567 30.8385 5.85147 30.6063 5.64477C30.6026 5.64121 30.5972 5.63622 30.588 5.6282C30.5429 5.59274 30.5407 5.59203 30.553 5.60254C30.1788 5.32065 29.6772 5.16224 29.202 5.16224C28.9461 5.16224 28.6981 5.20821 28.4814 5.3055ZM13.3578 6.88282C13.359 6.90651 13.3605 6.93004 13.3637 6.95445C13.4691 7.42112 13.8499 7.744 14.1851 7.93822C14.8658 8.33255 15.8683 8.51466 16.5297 8.03355C16.8565 7.79585 17.0295 7.39706 17.0188 6.92006C17.011 6.52591 16.6849 6.26362 16.4128 6.10236C16.1715 5.95927 15.9034 5.85093 15.6259 5.7834C15.1785 6.36999 14.3875 6.62587 13.3578 6.88282ZM32.1368 6.7996C32.362 6.80299 32.5229 6.59647 32.489 6.30923C32.4308 6.07189 32.2451 6.01362 32.0682 5.99224C32.0749 5.99295 31.9584 5.95802 31.9196 5.91704C31.3581 6.00079 31.7643 6.73546 32.1368 6.7996ZM27.073 6.59825C27.0912 7.10074 27.5748 6.9254 27.6272 6.52698C27.6274 6.52912 27.6279 6.52805 27.629 6.51771C27.629 6.51112 27.6286 6.50987 27.6284 6.51058C27.6231 6.3299 27.5292 6.25453 27.42 6.25453C27.2712 6.25453 27.0937 6.39458 27.073 6.59825ZM34.3955 7.02911C34.3896 7.05744 34.3896 7.08167 34.3921 7.10377C34.416 7.32633 34.8117 7.25451 34.9355 7.23117C35.0749 7.19019 35.1977 7.12355 35.2875 7.01824C35.2982 7.00559 35.3092 6.99312 35.319 6.97904C35.2971 6.98225 35.2748 6.98563 35.2527 6.98866C35.0761 6.83987 34.8996 6.69447 34.7231 6.55246C34.5744 6.6542 34.4514 6.85288 34.3955 7.02911ZM22.4321 6.87391C22.5084 7.53641 23.5629 7.82418 23.193 7.18574C23.1779 7.1681 23.1789 7.17077 23.183 7.17629C22.9981 6.96817 22.7732 6.86803 22.5334 6.86803C22.4999 6.86803 22.4662 6.86999 22.4321 6.87391ZM33.0899 7.0398C33.001 7.0749 32.9381 7.16578 32.8953 7.27358C32.8554 7.37461 32.8331 7.49044 32.8249 7.58951C32.8222 8.17004 33.4744 7.62621 33.5186 7.28926C33.5186 7.2898 33.5191 7.28802 33.5198 7.2816C33.5197 7.27821 33.5195 7.27697 33.5195 7.27697C33.5182 7.25202 33.5143 7.2301 33.5092 7.20908C33.4744 7.0676 33.3536 7.01289 33.2342 7.01289C33.1836 7.01289 33.1334 7.0227 33.0899 7.0398ZM11.7076 7.29425C11.7046 7.31011 11.701 7.32544 11.6987 7.34201C11.5709 8.18109 12.7708 8.25521 12.7603 7.3821C12.7603 7.38352 12.7605 7.38334 12.7603 7.38014C12.7559 7.18663 12.8765 7.14154 12.8093 7.01646C12.4626 7.10003 12.0944 7.1893 11.7076 7.29425ZM19.2781 7.52518C19.2797 7.52162 19.2784 7.52269 19.269 7.53855C19.2663 7.5446 19.2654 7.54656 19.2654 7.54728C18.9723 8.2153 19.8712 8.84056 20.2265 8.98079C20.2481 8.98952 20.4226 9.05634 20.4197 9.05528C20.4774 9.07559 20.5353 9.09394 20.594 9.11052C20.7401 9.15221 20.8882 9.18286 21.0366 9.20335C21.314 9.24148 21.6002 9.22812 21.8725 9.16629C22.3844 9.02231 22.6538 8.60197 22.2928 8.02749C21.945 7.47422 21.3475 7.21033 20.8158 7.09842C20.6567 7.06492 20.478 7.04069 20.2973 7.04069C19.9078 7.04069 19.5088 7.15295 19.2781 7.52518ZM25.4405 7.35662C25.2635 7.44072 25.1764 7.58185 25.1659 7.73758C25.1541 7.9106 25.2372 8.10144 25.4013 8.25326C25.5991 8.40186 25.8295 8.41255 26.0481 8.34787C26.2154 8.29816 26.376 8.20408 26.5092 8.0936C26.65 7.97707 26.7783 7.83238 26.8428 7.6337C26.8519 7.59004 26.8405 7.55155 26.818 7.51752C26.7617 7.43199 26.634 7.37479 26.5659 7.34183C26.5606 7.33969 26.5565 7.33791 26.5522 7.3363C26.5091 7.3192 26.5142 7.32223 26.5315 7.32989C26.3622 7.26663 26.1825 7.23313 26.0039 7.23313C25.8097 7.23313 25.6169 7.27269 25.4405 7.35662ZM31.4429 7.5749C31.4422 7.57525 31.4408 7.57739 31.4363 7.58523C31.4306 7.59753 31.4294 7.60091 31.4304 7.59967C31.3492 7.78106 31.3121 8.01146 31.4244 8.19303C31.5503 8.3395 31.7733 8.36908 31.8814 8.19481C32.019 7.88868 31.8666 7.40597 31.6557 7.40597C31.5881 7.4058 31.5147 7.45498 31.4429 7.5749ZM17.8673 7.69713C17.7822 8.15525 18.408 8.57239 18.5724 8.13013C18.5733 8.12532 18.5733 8.1246 18.5728 8.12514C18.6104 7.88352 18.4782 7.65775 18.3078 7.57026C18.2483 7.54745 18.1772 7.52928 18.1086 7.52928C18.006 7.52928 17.9094 7.57009 17.8673 7.69713ZM23.7853 7.96245C23.6465 8.00308 23.5214 8.0699 23.407 8.1663C23.3799 8.18929 23.353 8.21316 23.3274 8.23918C23.0611 8.55706 23.082 8.90631 23.4323 9.10927C23.4359 9.11141 23.4387 9.11355 23.4423 9.11551C23.7645 9.29637 24.1142 9.23507 24.3776 8.96404C24.4145 8.92021 24.4473 8.87317 24.4758 8.82488C24.626 8.57061 24.6417 8.27321 24.3646 8.10732C24.3557 8.10197 24.3478 8.09645 24.3384 8.09146C24.3407 8.092 24.3386 8.09039 24.3266 8.08451C24.1664 8.02179 24.0383 7.95265 23.8854 7.95265C23.8534 7.95265 23.82 7.95568 23.7853 7.96245ZM35.8737 8.08059C35.5706 8.28782 35.3482 8.67556 35.2811 9.10143C35.2734 9.14989 35.2673 9.19836 35.2638 9.24754C35.2602 9.8744 35.8422 9.83609 36.1561 9.5959C36.3725 9.43072 36.556 9.18838 36.6561 8.89829C36.6937 8.78924 36.7197 8.6736 36.731 8.55225C36.731 8.55475 36.7319 8.5494 36.7336 8.52535C36.7335 8.5118 36.7329 8.51002 36.7326 8.5127C36.7301 8.4195 36.7092 8.34021 36.6748 8.27357C36.6257 8.17824 36.5487 8.11017 36.4589 8.06598C36.3739 8.02393 36.2775 8.00379 36.1816 8.00379C36.0718 8.00379 35.963 8.03034 35.8737 8.08059ZM34.1615 8.15026C34.1615 8.14973 34.157 8.15187 34.1448 8.15882C34.1177 8.17717 34.1143 8.18038 34.12 8.17735C33.7777 8.42432 33.5318 8.8607 33.3752 9.32594C33.3199 9.49005 33.2756 9.65755 33.2424 9.82184C33.1492 10.281 33.1025 11.3521 33.6975 10.8131C34.1241 10.4266 34.4486 9.79707 34.6456 9.18357C34.6579 9.14526 34.6699 9.10713 34.6811 9.06917C34.7499 8.83789 34.8849 8.34431 34.6848 8.14688C34.6088 8.09271 34.5275 8.07026 34.4461 8.07026C34.3484 8.07026 34.2506 8.10233 34.1615 8.15026ZM9.34732 8.25183C9.20049 8.34663 9.06668 8.4457 8.94569 8.54887C8.8418 8.63796 8.74736 8.73008 8.66308 8.82559C8.66308 8.83949 8.66255 8.85321 8.66379 8.86765C8.68892 9.18446 8.86639 9.38403 9.08218 9.52676C9.49931 9.8026 10.0043 9.97526 10.4893 10.0011C10.6376 10.0091 10.7842 10.0038 10.9259 9.98292C11.0378 9.96635 11.1522 9.93463 11.2489 9.87547C11.3632 9.80562 11.4528 9.69711 11.484 9.52925C11.4879 9.50805 11.4909 9.48613 11.4931 9.46297C11.4931 9.39811 11.4836 9.33592 11.4672 9.27658C11.4031 9.04263 11.2283 8.85179 11.0665 8.7087C11.0629 8.70532 11.0574 8.70033 11.0474 8.6916C10.997 8.65168 10.995 8.65115 11.0086 8.66255C10.7603 8.47492 10.4815 8.34823 10.1944 8.2807C10.03 8.24185 9.86282 8.22261 9.6971 8.22261C9.57932 8.22261 9.46225 8.23223 9.34732 8.25183ZM29.6778 8.45229C29.679 8.45033 29.6778 8.45104 29.6696 8.45906C29.6553 8.47635 29.6521 8.48116 29.6534 8.48009C29.4444 8.74505 29.2715 9.2062 29.4005 9.57808C29.4182 9.61282 29.439 9.64347 29.4618 9.67002C29.6268 9.86318 29.9105 9.85053 30.081 9.68606C30.0962 9.66788 30.1113 9.64793 30.1265 9.62726C30.3225 9.35909 30.5097 8.90132 30.3887 8.54709C30.3193 8.41042 30.1544 8.35001 29.9946 8.35001C29.8702 8.35001 29.7491 8.38654 29.6778 8.45229ZM32.3435 8.65382C32.3533 9.01465 32.7626 9.24309 32.8923 8.8737C32.8941 8.86444 32.8939 8.86355 32.8932 8.86497C32.9416 8.57684 32.7435 8.35162 32.5708 8.35162C32.4632 8.35144 32.3654 8.43911 32.3435 8.65382ZM27.8993 8.47724C27.9004 8.47599 27.8948 8.47848 27.8774 8.48882C27.8455 8.5102 27.8367 8.51662 27.8392 8.5159C27.5019 8.75539 27.2097 9.12441 27.1899 9.61175C27.1867 9.69051 27.1901 9.77212 27.2019 9.85694C27.3218 10.394 27.7983 10.5194 28.1493 10.2402C28.3093 10.1128 28.4463 9.9161 28.5418 9.69123C28.6375 9.46546 28.6913 9.21137 28.6842 8.96993C28.6719 8.55225 28.4825 8.37834 28.2423 8.37834C28.1345 8.37834 28.0164 8.41345 27.8993 8.47724ZM37.7324 9.37245C37.6003 9.22527 37.4662 9.07987 37.33 8.9366C37.2905 9.20513 37.461 9.39454 37.7324 9.37245ZM25.8437 9.06329C25.7439 9.09145 25.5946 9.14847 25.4752 9.23988C25.3808 9.31258 25.3051 9.40702 25.2887 9.5264C25.2887 9.52516 25.2887 9.52444 25.2881 9.52872C25.3045 9.75965 25.8081 9.80188 25.9326 9.7887C26.0588 9.77533 26.3437 9.67412 26.4232 9.49041C26.4385 9.45459 26.4471 9.41575 26.444 9.37352C26.4068 9.25485 26.2603 9.20763 26.1728 9.18019C26.0875 9.15346 25.9433 9.06187 25.8608 9.06187C25.8548 9.06187 25.8491 9.0624 25.8437 9.06329ZM13.8432 9.27997C13.7439 9.28318 13.6432 9.29013 13.5417 9.301C13.139 9.34465 12.7265 9.45317 12.3703 9.66005C12.2712 9.7176 12.1766 9.78246 12.0877 9.85605C11.9613 9.96047 11.8469 10.082 11.7484 10.2224C11.7158 10.2691 11.6844 10.3172 11.6554 10.368C11.6618 10.3552 11.6623 10.3528 11.6434 10.3865C11.6308 10.4124 11.6299 10.4154 11.6333 10.4093C11.5381 10.6085 11.4939 10.7926 11.489 10.9624C11.482 11.2058 11.5568 11.4193 11.6835 11.6041C12.0494 12.1376 12.8455 12.4312 13.3428 12.5075C13.4282 12.5205 13.5198 12.5306 13.6154 12.5369C13.6154 12.5369 13.6165 12.5371 13.617 12.5371C13.9857 12.562 14.4164 12.5312 14.8054 12.3991C15.0866 12.3038 15.3455 12.1554 15.5434 11.9364C15.7118 11.7505 15.8365 11.5146 15.8929 11.2163C15.9002 11.1777 15.9046 11.1386 15.908 11.0996C15.9171 10.9872 15.9149 10.8739 15.9287 10.7637C15.9304 10.7498 15.9321 10.7361 15.9342 10.7222C15.9558 10.5954 16.0529 10.5643 16.032 10.4378C16.0258 10.4099 16.0185 10.3831 16.0108 10.3566C15.9468 10.1363 15.8314 9.96154 15.679 9.8156C15.3039 9.45655 14.7892 9.33949 14.3351 9.29102C14.225 9.28229 14.1094 9.27748 13.9905 9.27748C13.9419 9.27748 13.8927 9.27819 13.8432 9.27997ZM31.3237 9.52106C31.1459 9.7119 31.0268 10.0312 30.9541 10.2919C30.8326 10.7855 30.6771 11.783 31.0828 12.168C31.5254 12.4772 31.8274 11.3473 31.906 10.9997C31.9767 10.6862 32.1683 9.77747 31.9169 9.46564C31.8798 9.41949 31.8331 9.38635 31.775 9.37013C31.7351 9.35908 31.697 9.35392 31.6603 9.35392C31.5299 9.35392 31.4185 9.41949 31.3237 9.52106ZM16.7583 10.6652C16.7544 10.6775 16.7492 10.6885 16.7457 10.701C16.6997 10.9013 16.694 11.0775 16.7187 11.2336C16.7212 11.2486 16.7236 11.2634 16.7266 11.278C16.8009 11.6484 17.0537 11.8974 17.362 12.0622C17.6785 12.2316 18.0528 12.3125 18.3511 12.3446C19.0423 12.4006 20.0908 12.2361 20.3867 11.358C20.4259 11.2415 20.4525 11.113 20.4626 10.9704C20.4625 10.9111 20.4575 10.8539 20.4491 10.7985C20.3858 10.3801 20.104 10.0758 19.796 9.89115C19.7173 9.84411 19.6168 9.81721 19.5603 9.72704C19.5289 9.67697 19.5332 9.60979 19.4856 9.58716C19.3003 9.50948 19.1084 9.46101 18.9153 9.43535C18.896 9.43321 18.8402 9.42804 18.8075 9.42555C18.7674 9.42359 18.7269 9.42252 18.6859 9.42252C17.9365 9.42252 17.0498 9.76108 16.7583 10.6652ZM21.5 10.1039C21.3053 10.1021 20.8899 10.1982 21.0895 10.5294C21.2901 10.7643 21.7354 10.4211 21.8905 10.2677C21.7657 10.2433 21.6665 10.1337 21.5359 10.1073C21.5387 10.1071 21.5366 10.1062 21.5239 10.1043C21.5127 10.1037 21.5059 10.1036 21.5025 10.1036C21.4999 10.1036 21.4992 10.1036 21.5 10.1039ZM38.136 10.6618C38.1258 10.6821 38.1203 10.6934 38.1178 10.6989C38.0727 10.7906 37.9858 10.9786 37.9368 11.15C37.8924 11.3049 37.8792 11.446 37.9569 11.49C38.2589 11.5862 38.4918 11.2411 38.6205 10.9508C38.6422 10.9018 38.7012 10.7564 38.7454 10.6014C38.7028 10.5447 38.6595 10.4886 38.6162 10.4323C38.5606 10.3603 38.5045 10.2885 38.4476 10.2171C38.3188 10.3225 38.2194 10.5088 38.136 10.6618ZM37.0774 10.299C37.0465 10.3083 37.0508 10.3079 37.0613 10.3053C36.7429 10.4095 36.4402 10.7288 36.2846 11.0818C36.1157 11.4647 36.2734 11.7218 36.6287 11.6588C36.9917 11.5508 37.3363 11.2147 37.4845 10.7885C37.6176 10.4058 37.4872 10.2816 37.2516 10.2816C37.1983 10.2816 37.1395 10.2878 37.0774 10.299ZM23.665 10.4277C23.4266 10.4519 23.191 10.5132 22.9728 10.6194C22.8311 10.6884 22.6969 10.7762 22.5745 10.8851C22.5517 10.9052 22.5289 10.9254 22.507 10.9471C22.5152 10.9376 22.5123 10.9394 22.4785 10.9747C22.4701 10.9845 22.4656 10.9899 22.464 10.9923C22.2768 11.2203 22.1098 11.5535 22.2875 11.8715C22.3566 11.9954 22.4589 12.0903 22.564 12.1623C22.6367 12.212 22.8334 12.3172 22.8557 12.3295C22.902 12.3478 23.0838 12.4196 23.0658 12.413C23.1551 12.4456 23.2447 12.475 23.3348 12.5012C23.3703 12.5114 23.4056 12.521 23.441 12.5303C23.5868 12.5688 23.7334 12.5998 23.8808 12.6237C24.2327 12.68 24.5889 12.693 24.9391 12.6427C25.2605 12.5964 25.5857 12.4852 25.8359 12.2281C25.9319 12.1146 26.078 11.9455 26.0258 11.7692C25.9784 11.6098 25.8884 11.4674 25.7899 11.3498C25.5 11.003 25.19 10.7557 24.84 10.6028C24.7318 10.5658 24.6231 10.5307 24.5144 10.4991C24.4433 10.479 24.3721 10.4621 24.3006 10.4469C24.2979 10.4466 24.2958 10.4453 24.2933 10.4448C24.2924 10.4446 24.2914 10.4446 24.2905 10.4444C24.1663 10.4254 24.0387 10.4154 23.91 10.4154C23.8286 10.4154 23.7466 10.4193 23.665 10.4277ZM8.82149 10.9838C8.6294 11.4747 9.05599 11.7929 9.38492 11.899C9.62725 11.9774 9.88046 12.0292 10.1296 12.0264C10.2434 12.0251 10.3578 12.016 10.4658 11.9733C10.6051 11.918 10.5697 11.8879 10.6133 11.7386C10.7746 11.2224 10.3334 10.8368 9.99272 10.665C9.99396 10.665 9.9863 10.6609 9.96064 10.6488C9.92768 10.6354 9.91948 10.6328 9.9234 10.6349C9.78691 10.5839 9.6326 10.5497 9.4815 10.5497C9.2094 10.5497 8.94783 10.6606 8.82149 10.9838ZM28.9828 11.1401C29.0073 11.4384 29.1701 11.7366 29.4745 11.6855C29.7252 11.6083 29.8269 11.3229 29.7866 11.0164C29.7157 10.7003 29.5333 10.6035 29.2888 10.5896C29.2817 10.5889 29.2745 10.5888 29.2676 10.5888C29.0559 10.5888 28.9602 10.8644 28.9828 11.1401ZM35.0505 10.8984C35.0127 10.9843 34.9461 11.0494 34.8671 11.067C34.8151 11.1502 34.7648 11.2349 34.7171 11.3218C34.6034 11.5499 34.5084 11.791 34.473 12.0595C34.4021 12.5944 34.7239 12.7391 35.0396 12.4469C35.3366 12.1718 35.5104 11.6757 35.549 11.219C35.5494 11.2217 35.5505 11.2103 35.5533 11.1688C35.5526 10.9924 35.5341 10.6518 35.3488 10.6133C35.2119 10.6158 35.1102 10.7618 35.0505 10.8984ZM27.6265 11.1103C27.5568 11.2133 27.4235 11.1759 27.3831 11.2965C27.2967 11.766 27.835 12.1459 28.0035 11.654C28.0035 11.6548 28.0041 11.6538 28.0055 11.6491C28.0069 11.642 28.0071 11.6404 28.0067 11.6413C28.0572 11.3685 27.8761 11.1087 27.6566 11.1087C27.6466 11.1087 27.6365 11.1092 27.6265 11.1103ZM36.2196 11.5201C36.2262 11.5285 36.2197 11.5201 36.2132 11.5116C36.2085 11.5055 36.2039 11.4995 36.2039 11.4995C36.2037 11.4995 36.2078 11.5046 36.2196 11.5201ZM21.1779 11.7696C20.9924 11.7945 20.7502 11.8876 20.6266 12.0681C20.4797 12.286 20.607 12.524 20.8324 12.5816C21.0842 12.6459 21.342 12.4412 21.4824 12.2035C21.5282 12.105 21.5601 12.0356 21.4847 11.9603C21.3994 11.8993 21.2736 11.7689 21.188 11.7689C21.1847 11.7689 21.1813 11.7692 21.1779 11.7696ZM32.5181 12.3405C32.5213 12.3366 32.5161 12.3412 32.4938 12.3648C32.4759 12.3861 32.4716 12.3917 32.4741 12.3893C32.2285 12.6951 31.9461 13.3303 32.2098 13.7404C32.5142 14.1158 33.0494 13.8474 33.3165 13.5721C33.5795 13.2635 33.9407 12.5886 33.6546 12.1324C33.5516 12.0102 33.422 11.9617 33.2848 11.9617C33.0088 11.9617 32.7018 12.1572 32.5181 12.3405ZM7.40276 12.6267C7.40276 12.6267 7.40258 12.6267 7.40205 12.6283C7.33006 13.1541 8.50842 13.5399 8.67128 13.0251C8.70745 12.8462 8.70799 12.693 8.56864 12.6028C8.45496 12.5294 8.33433 12.4884 8.20977 12.4608C8.13012 12.4432 7.99755 12.4219 7.86177 12.4219C7.66684 12.4219 7.46495 12.4656 7.40276 12.6267ZM37.5166 12.5545C37.231 12.5966 36.9549 12.6632 36.7066 12.7381C36.2638 12.8719 35.8172 13.0538 35.4186 13.3243C35.1169 13.5288 34.7388 13.8253 34.6715 14.2831C34.6107 14.6935 34.8796 15.0208 35.1606 15.2141C36.1682 14.7213 37.3478 14.8148 38.257 15.411C38.5688 15.2801 38.8541 15.091 39.0834 14.8277C39.0886 14.8216 39.0944 14.8163 39.0996 14.8102C39.1155 14.7922 39.247 14.6359 39.2464 14.6366C39.3109 14.5565 39.3728 14.4734 39.4317 14.387C39.5499 14.2138 39.6527 14.0301 39.7263 13.8207C39.8535 13.4579 39.7822 13.1721 39.528 12.9396C39.5273 12.9387 39.524 12.9355 39.516 12.9282C39.4697 12.8929 39.4734 12.897 39.4884 12.9095C39.0882 12.6146 38.5998 12.5093 38.1066 12.5093C37.9088 12.5093 37.7105 12.5262 37.5166 12.5545ZM28.815 12.6787C28.294 12.709 27.7765 12.8337 27.3161 13.0859C27.026 13.2448 26.7033 13.5133 26.6757 13.9435C26.6782 14.3314 26.8865 14.6981 27.0942 14.9697C27.044 14.8973 27.2231 15.1226 27.2485 15.1502C27.3325 15.241 27.42 15.3255 27.5153 15.3964C27.7161 15.5465 27.9315 15.6628 28.1568 15.7366C28.6206 15.8891 29.1001 15.8929 29.5646 15.7874C29.5242 15.7986 29.5792 15.7838 29.5833 15.7834C29.5862 15.7827 29.589 15.782 29.5917 15.7811C29.5903 15.7817 29.5889 15.782 29.5878 15.7824C29.5919 15.7811 29.596 15.7801 29.6001 15.779C29.7783 15.7305 29.6735 15.7587 29.6151 15.7747C30.0156 15.6612 30.3962 15.4657 30.7243 15.1623C30.885 15.0137 31.0245 14.838 31.1453 14.6395C31.2305 14.4994 31.2756 14.2926 31.3809 14.1769C31.3812 14.1762 31.3814 14.1757 31.3816 14.1748C31.728 13.1735 30.3528 12.8172 29.8362 12.7332C29.5876 12.6931 29.3312 12.6714 29.0734 12.6714C28.9873 12.6714 28.9011 12.6737 28.815 12.6787ZM11.0547 12.9772C10.6714 13.0219 10.3006 13.1204 9.97222 13.2546C9.96064 13.2591 9.94585 13.265 9.92518 13.2739C9.81239 13.387 9.60159 13.4241 9.46635 13.5059C9.3393 13.5875 9.21653 13.6787 9.09982 13.7806C8.86408 13.9868 8.65275 14.2462 8.51839 14.5668C8.28087 15.1334 8.31205 15.8451 8.63386 16.3465C8.69266 16.4379 8.75984 16.5233 8.83806 16.5985C9.3532 17.0937 10.0856 17.2089 10.7055 17.2717C10.7949 17.2792 10.8828 17.2824 10.9694 17.2822C11.5157 17.2813 12.01 17.1304 12.5155 16.8446C13.0365 16.5498 13.676 16.2813 13.8881 15.5604C13.926 15.4037 13.9242 15.2102 13.9789 15.0636C14.0194 14.9549 14.0598 14.9862 14.0483 14.8656C14.0475 14.8592 14.0475 14.8546 14.0467 14.8476C14.0392 14.7776 14.0267 14.7092 14.0089 14.642C13.9276 14.3084 13.7758 14.0169 13.5648 13.7838C13.0196 13.1823 12.2601 12.9506 11.5048 12.9506C11.3541 12.9506 11.2035 12.9597 11.0547 12.9772ZM25.1278 13.6618C25.1336 13.8744 25.4617 13.9403 25.5861 13.9203C25.7789 13.861 25.9827 13.6826 26.0119 13.4219C26.0118 13.4255 26.0119 13.4266 26.0132 13.4155C26.0132 13.4139 26.013 13.4128 26.013 13.4128C26.0062 13.2464 25.9072 13.181 25.7776 13.181C25.5248 13.181 25.1554 13.4301 25.1278 13.6618ZM4.67115 14.2551C4.27486 14.5916 3.9609 14.8506 3.81621 14.9825C3.71642 15.0734 3.61468 15.1853 3.5165 15.3116C3.38339 15.483 3.25635 15.6808 3.1489 15.8905C3.46964 16.2264 3.86307 16.4631 4.24814 16.638C5.04053 16.9771 6.13585 17.1607 6.9393 16.7047C7.18662 16.5641 7.40668 16.364 7.58131 16.0882C7.61962 16.0276 7.6508 15.9648 7.67699 15.9007C7.88298 15.3984 7.73633 14.7977 7.44713 14.3469C7.13281 13.8569 6.76004 13.5684 6.29212 13.3491C6.31529 13.3585 6.30976 13.3553 6.23671 13.3223C6.07901 13.2559 6.10164 13.2669 6.16062 13.2927C6.06778 13.2559 5.97334 13.2227 5.87784 13.1928C5.45143 13.5859 5.02788 13.952 4.67115 14.2551ZM21.1157 13.8157C21.1216 13.8084 21.1189 13.8102 21.0943 13.8357C21.0724 13.8613 21.0658 13.8699 21.0667 13.8697C20.9728 13.9854 20.8883 14.1163 20.8185 14.2576C20.6722 14.5545 20.5902 14.8993 20.6235 15.2562C20.6782 15.8378 21.102 16.2065 21.5318 16.3342C22.4405 16.604 23.4947 16.1837 24.2208 15.5376C24.2987 15.4684 24.3924 15.3788 24.4834 15.2756C24.709 15.0197 24.9164 14.6762 24.8147 14.3264C24.7657 14.1584 24.4865 13.9522 24.363 13.859C24.1937 13.7318 24.0137 13.6283 23.8293 13.5426C23.4478 13.3822 22.9984 13.2767 22.5551 13.2767C22.0252 13.2765 21.5034 13.4275 21.1157 13.8157ZM16.7073 13.518C16.6329 13.5369 16.5589 13.5586 16.4859 13.583C16.2565 13.6598 16.0359 13.7639 15.83 13.8931C15.7744 13.9278 15.7198 13.9642 15.6667 14.0025C15.2466 14.3052 14.8964 14.722 14.6839 15.2587C14.6493 15.3462 14.6179 15.4363 14.591 15.5299C14.4287 16.2017 14.5518 16.8793 15.1021 17.2095C15.666 17.548 16.3661 17.5477 16.9648 17.4622C17.5591 17.3772 18.1631 17.1664 18.6859 16.8146C18.759 16.7654 18.8354 16.7118 18.9124 16.6544C19.0785 16.5302 19.2463 16.3863 19.3912 16.2182C19.5272 16.0605 19.6428 15.8823 19.7159 15.679C19.7429 15.6033 19.7641 15.5244 19.7786 15.4415C19.8381 15.0981 19.7572 14.7648 19.5929 14.4757C19.546 14.3931 19.4958 14.315 19.4384 14.2434C19.3903 14.2493 19.3442 14.2396 19.2996 14.2145C19.2123 14.1648 19.1357 14.0657 19.0571 13.9946C19.0598 13.9964 19.0578 13.9943 19.0469 13.9846C19.0227 13.9654 19.0067 13.9528 18.9967 13.9449C18.9766 13.9292 18.9814 13.9335 18.9947 13.9446C18.9937 13.9444 18.9926 13.9442 18.9915 13.944H18.9914C18.5216 13.5898 17.9727 13.428 17.4224 13.4278C17.1822 13.4278 16.9417 13.4588 16.7073 13.518ZM40.3168 13.9602C40.3624 14.1429 40.621 14.2906 40.7111 14.2794C40.6639 14.1423 40.4913 13.6858 40.4376 13.5506C40.3938 13.6053 40.3018 13.8291 40.3168 13.9602ZM32.6537 14.7108C32.6271 14.7166 32.6008 14.7243 32.5742 14.7311C32.1954 14.8285 31.8248 15.0167 31.5168 15.3011C31.0265 15.7537 30.5621 16.906 31.1059 17.5229C31.1566 17.5803 31.215 17.6332 31.2836 17.6803C31.4646 17.8045 31.6492 17.8779 31.8335 17.9105C32.4409 18.0177 33.0448 17.6742 33.5152 17.1858C33.6423 16.7325 33.8712 16.3064 34.195 15.9445C34.2289 15.7961 34.2436 15.648 34.2315 15.506C34.2093 15.2485 34.0986 15.011 33.8523 14.8307C33.6612 14.6906 33.4276 14.6436 33.1941 14.6436C33.0063 14.6436 32.8187 14.6741 32.6537 14.7108ZM40.6017 15.2655C40.1846 15.5719 39.8232 15.9969 39.5494 16.5021C39.5037 16.5924 39.4587 16.6908 39.4171 16.7943C39.6153 17.2533 39.6956 17.7428 39.6662 18.2234C39.6616 18.3018 39.6545 18.38 39.6438 18.4577C39.9508 18.6719 40.3421 18.7107 40.6744 18.6733C40.7339 18.6667 40.7929 18.6571 40.8521 18.6455C41.1375 18.589 41.4151 18.4744 41.6766 18.3151C41.5369 17.377 41.3196 16.3711 41.01 15.2952C40.9866 15.2136 40.9636 15.1325 40.939 15.0504C40.8232 15.1135 40.7106 15.1855 40.6017 15.2655ZM25.7062 15.8772C25.0061 15.9884 24.3272 16.4067 24.2103 17.4082C24.1116 18.2535 24.4562 19.1735 24.9914 19.7152C25.1153 19.8404 25.2548 19.9461 25.4032 20.0354C25.4688 20.0746 25.536 20.1107 25.6044 20.1435C25.9253 20.2973 26.2732 20.3825 26.5923 20.416C26.9517 20.4536 27.3346 20.4094 27.7056 20.2909C28.5595 20.0181 29.3513 19.3481 29.6576 18.3515C29.6537 18.3673 29.6559 18.3631 29.6746 18.2975C29.6778 18.2831 29.6787 18.2781 29.6787 18.2781C29.8706 17.3722 29.0463 16.877 28.4727 16.5864C27.8294 16.2605 27.2013 15.967 26.5057 15.8711C26.3836 15.8544 26.2546 15.8451 26.1224 15.8451C25.9856 15.8451 25.8455 15.8551 25.7062 15.8772ZM36.3901 16.6471C36.3471 16.651 36.3046 16.6566 36.2629 16.6639C36.1599 16.7494 36.0943 16.8784 36.0943 17.0229C36.0943 17.2802 36.3028 17.4889 36.5601 17.4889C36.8174 17.4889 37.026 17.2802 37.026 17.0229C37.026 17.0151 37.0253 17.0074 37.0248 16.9998C37.0184 16.8715 36.9606 16.7567 36.8708 16.6762C36.7629 16.6526 36.6506 16.6398 36.5351 16.6398C36.4861 16.6398 36.4378 16.6425 36.3901 16.6471ZM34.9683 18.2068C34.9683 19.0721 35.6699 19.7736 36.5351 19.7736C37.4008 19.7736 38.1019 19.0721 38.1019 18.2068C38.1019 17.9584 38.0433 17.7239 37.9405 17.5153C37.8728 17.3784 37.7865 17.2522 37.6839 17.1414C37.6884 17.2166 37.685 17.2916 37.675 17.3656C37.6324 17.6767 37.464 17.9693 37.1848 18.1603C36.66 18.5188 35.9434 18.3834 35.5849 17.8588C35.435 17.6398 35.3718 17.3871 35.3869 17.1412C35.1273 17.4208 34.9683 17.7952 34.9683 18.2068ZM20.4915 17.5261C20.0619 17.5322 19.6391 17.617 19.2492 17.8298C19.2747 17.8139 19.2786 17.8103 19.2018 17.8549C19.1626 17.8795 19.159 17.8827 19.1703 17.8766C18.7569 18.1523 18.429 18.6341 18.3007 19.1948C18.2453 19.4374 18.2264 19.6943 18.2551 19.9562C18.2959 20.3279 18.4621 20.6547 18.6763 20.9168C18.7103 20.9587 18.7455 20.9993 18.7816 21.0377C18.9206 21.185 19.0714 21.3065 19.2326 21.4119C19.3153 21.4662 19.3999 21.5161 19.486 21.5617C19.4778 21.5573 19.6314 21.6292 19.6576 21.6444C20.3753 21.9566 21.175 21.991 21.8965 21.7358C22.3006 21.5927 22.6212 21.3525 22.8487 21.0182C23.0562 20.7132 23.1861 20.3295 23.231 19.8686C23.2363 19.8117 23.2409 19.7544 23.2438 19.6952C23.2472 19.54 23.2422 19.3827 23.2244 19.2292C23.1837 18.8818 23.0761 18.5543 22.8427 18.3142C22.6875 18.1551 22.4947 18.0612 22.3022 18.0051C22.1364 17.9566 21.8824 17.994 21.7736 17.7964C21.6708 17.6161 21.3429 17.6097 21.1654 17.5798C21.1649 17.5798 21.1643 17.5796 21.164 17.5796C20.9568 17.5443 20.7492 17.5258 20.5409 17.5258C20.5245 17.5258 20.5079 17.5258 20.4915 17.5261ZM3.04733 17.6731C3.10596 17.79 3.12841 17.9572 3.12395 18.1578C3.11932 18.378 3.08226 18.6384 3.02452 18.9167C3.07032 18.9707 3.11772 19.0204 3.16511 19.0642C3.581 19.4505 4.11556 19.6717 4.62126 19.7467C4.86751 19.7829 5.13497 19.7772 5.36109 19.6515C5.4174 19.6125 5.46872 19.566 5.50382 19.5036C5.52307 19.4694 5.5375 19.4306 5.54498 19.3848C5.49652 19.3217 5.4746 19.1945 5.47406 19.1592C5.48511 18.4427 5.06192 18.0074 4.55658 17.759C4.55889 17.7595 4.54945 17.7547 4.51755 17.7396C4.4543 17.7134 4.44058 17.7082 4.44842 17.7123C4.19343 17.6136 3.91546 17.5484 3.64301 17.5484C3.43738 17.5484 3.23496 17.5855 3.04733 17.6731ZM11.2033 18.3479C11.1807 18.4514 11.1876 18.5436 11.2138 18.6209C11.2883 18.8408 11.5178 18.937 11.6705 18.811C11.7316 18.7608 11.7806 18.6749 11.8019 18.5466C11.8008 18.5539 11.8001 18.5576 11.8022 18.5448C11.8256 18.3916 11.8835 18.4279 11.7659 18.3005C11.6894 18.2175 11.6012 18.1514 11.5023 18.1241C11.4759 18.1168 11.4517 18.1132 11.4293 18.1132C11.3158 18.1132 11.2491 18.2029 11.2033 18.3479ZM13.8833 18.2063C13.5689 18.2759 13.2721 18.4081 13.0167 18.6068C12.833 18.7496 12.673 18.94 12.5424 19.1587C12.0205 20.032 11.9775 21.3639 12.8678 21.9981C13.8419 22.6921 15.326 22.7187 16.2786 22.0464C16.6897 21.7561 17.106 21.236 17.11 20.6093C17.1104 20.5576 17.109 20.5058 17.1035 20.4527C17.068 20.1091 16.9417 19.7601 16.7799 19.4755C16.663 19.2695 16.4941 19.1874 16.3588 18.9988C16.2813 18.9126 16.1983 18.8328 16.1108 18.7592C15.6329 18.3572 15.0197 18.1484 14.4203 18.1484C14.2386 18.1484 14.0582 18.1676 13.8833 18.2063ZM6.52822 18.7383C6.18717 18.9657 6.0309 19.4055 6.13656 19.837C6.16436 19.9513 6.20962 20.0648 6.27537 20.1736C6.55014 20.6262 7.06777 20.8327 7.48651 20.966C7.70319 21.0352 7.95229 21.1296 8.17396 21.1139C8.41309 21.097 8.6417 21.143 8.87334 21.2239C8.93624 21.2281 9.00021 21.2319 9.06472 21.2342C9.50359 21.2501 9.96866 21.2052 10.3434 20.9279C10.5139 20.8016 10.7252 20.6139 10.6919 20.3559C10.6582 20.0986 10.7677 19.9122 10.6677 19.6428C10.4398 19.1578 9.93872 18.9408 9.53139 18.7959C9.08289 18.6364 8.61729 18.5382 8.15507 18.4842C8.16291 18.4848 8.1499 18.483 8.09769 18.4773C7.97492 18.4662 7.96584 18.4659 7.99648 18.4693C7.90151 18.4627 7.80529 18.4589 7.70889 18.4589C7.30191 18.4589 6.88923 18.5268 6.52822 18.7383ZM30.694 19.1243C30.1626 19.4174 29.7082 19.9277 29.3736 20.5092C29.303 20.6317 29.2378 20.7611 29.1792 20.8956C28.9419 21.4388 28.8152 22.0672 28.913 22.69C28.9137 22.6932 28.9139 22.6962 28.9146 22.6996C28.9668 22.9635 29.06 23.1989 29.1828 23.4065C29.2423 23.5072 29.3091 23.6011 29.3815 23.6889C29.4615 23.7324 29.539 23.7769 29.6154 23.8215C29.9522 24.0177 30.2571 24.2226 30.5365 24.4332C31.1218 24.5528 31.6904 24.3095 32.1729 23.886C32.5056 23.5936 32.7973 23.2156 33.0254 22.8113C33.0106 22.8402 33.015 22.8334 33.0719 22.7276C33.1095 22.6545 33.117 22.6388 33.1098 22.6513C33.1252 22.6207 33.14 22.5891 33.1547 22.5578C33.424 21.9856 33.615 21.3133 33.5352 20.6367C33.4892 20.2476 33.3205 19.9104 33.0681 19.6686C32.8777 19.4026 32.6553 19.1644 32.4024 18.9965C32.1997 18.8631 31.9769 18.8092 31.7508 18.8092C31.3839 18.8092 31.0081 18.9509 30.694 19.1243ZM40.6634 19.6255C40.6133 19.6296 40.5582 19.6435 40.503 19.6549C40.4447 19.667 40.3863 19.6758 40.3328 19.6679C40.3277 19.667 40.3225 19.667 40.3173 19.666C40.219 19.6448 40.2368 19.5949 40.1306 19.6407C39.774 19.7939 39.4704 20.0674 39.2377 20.4324C39.1356 20.5924 39.0372 20.7934 38.9576 21.0143C38.8585 21.2898 38.7885 21.5961 38.7771 21.8928C38.7611 22.3019 38.856 22.6928 39.1397 22.9587C39.1393 22.9587 39.1417 22.9614 39.1522 22.9708C39.168 22.9829 39.1728 22.9861 39.1718 22.9849C39.6773 23.3539 40.253 23.1944 40.7102 22.8251C40.8968 22.6743 41.0638 22.489 41.1978 22.2901C41.5189 21.814 41.9116 20.7914 41.6596 20.1476C41.5855 19.9582 41.4561 19.8014 41.2521 19.7009C41.1042 19.6421 40.9542 19.6198 40.8025 19.6198C40.7564 19.6198 40.7099 19.6218 40.6634 19.6255ZM2.3467 21.1439C2.41815 21.2242 2.49299 21.2932 2.56337 21.3461C2.93686 21.626 3.69932 22.0433 4.09311 21.6618C4.09133 21.664 4.09187 21.6642 4.09935 21.6567C4.1022 21.6531 4.10256 21.6522 4.10256 21.6522C4.22319 21.4838 4.21677 21.0355 4.12073 20.8639C3.98121 20.6146 3.78681 20.4051 3.57815 20.249C3.37074 20.0936 3.07299 19.9153 2.78344 19.8515C2.63893 20.3342 2.47499 20.7992 2.3467 21.1439ZM25.7632 21.0722C25.7144 21.0881 25.665 21.1057 25.6155 21.1241C24.9733 21.3616 24.2949 21.7946 23.9002 22.4706C24.4776 22.3967 25.0877 22.3652 25.7322 22.3869C26.5584 22.5704 27.2778 22.7846 27.9123 23.0221C28.0226 23.0636 28.1309 23.1053 28.2361 23.1483C28.2476 23.1529 28.259 23.1577 28.2706 23.1625C28.2601 23.1542 28.2493 23.1461 28.2387 23.138C28.2601 23.0556 28.2794 22.9726 28.2954 22.8885C28.3182 22.7696 28.336 22.6492 28.3476 22.5271C28.4641 21.2914 27.5518 20.9306 26.6969 20.9304C26.3526 20.9304 26.018 20.9888 25.7632 21.0722ZM5.27449 21.2005C4.90369 21.3475 5.17257 21.772 5.38444 21.9664C5.38426 21.9665 5.388 21.9701 5.39887 21.9797C5.44769 22.018 5.44359 22.0138 5.42774 22.0004C5.74598 22.2408 6.13015 22.3693 6.49561 22.3251C6.68431 22.3021 6.90313 22.2427 6.82401 21.9728C6.76307 21.7641 6.63371 21.6096 6.49027 21.4835C6.23884 21.2857 5.90777 21.1421 5.59577 21.1421C5.48476 21.1421 5.37624 21.1603 5.27449 21.2005ZM19.4864 21.5619C19.4862 21.5619 19.486 21.5617 19.486 21.5617C19.486 21.5617 19.4862 21.5617 19.4864 21.5619ZM34.259 22.3953C34.2144 22.4332 34.1713 22.474 34.1293 22.5173C33.8368 22.8167 33.6084 23.2363 33.4384 23.6634C33.4108 23.7335 33.3844 23.8033 33.3598 23.8732C33.3352 23.9425 33.3142 24.013 33.296 24.0845C33.1752 24.5629 33.2011 25.0782 33.3704 25.5524C33.3682 25.5488 33.372 25.5601 33.3889 25.6039C33.3957 25.6189 33.3985 25.624 33.3989 25.6238C33.9789 26.8328 35.3885 26.1746 36.0312 25.4825C36.0934 25.4122 36.1556 25.337 36.2164 25.2575C36.7481 24.5649 37.1894 23.5474 36.8291 22.5973C36.5587 21.9856 36.1465 21.7591 35.705 21.7591C35.2067 21.7591 34.6711 22.0473 34.259 22.3953ZM7.58612 22.3805C7.71156 22.9083 8.22813 23.2736 8.62548 23.4133C9.00663 23.5471 9.63509 23.5738 9.68427 22.9435C9.67911 22.3693 9.19568 21.997 8.7985 21.852C8.66682 21.8411 8.43429 21.7974 8.20728 21.7974C7.85928 21.7974 7.52429 21.9001 7.58612 22.3805ZM10.7965 21.9363C10.4941 21.986 10.2659 22.1902 10.4469 22.6836C10.6912 23.1957 11.2894 23.3799 11.7254 23.4316C11.9433 23.4459 12.1611 23.4293 12.3603 23.3201C12.4225 23.2768 12.5007 23.2206 12.5317 23.1363C12.4665 23.0603 12.4501 22.9423 12.4153 22.8441C12.4153 22.8432 12.4143 22.84 12.4107 22.8308C12.3982 22.804 12.3966 22.8017 12.3986 22.8074C12.3225 22.6513 12.2218 22.5184 12.1064 22.4067C11.8594 22.1677 11.5442 22.0246 11.2493 21.9569C11.1581 21.9359 11.0586 21.9236 10.9608 21.9236C10.9049 21.9236 10.8496 21.9275 10.7965 21.9363ZM37.7963 22.3324C37.6511 22.4341 37.4897 22.6843 37.4671 22.8445C37.4671 22.8416 37.4667 22.8432 37.4653 22.858C37.4653 22.8614 37.4653 22.8627 37.4653 22.8627C37.469 22.9653 37.5123 23.036 37.572 23.0758C37.6392 23.1205 37.7277 23.1257 37.8065 23.0856C37.9653 22.9678 38.0508 22.7301 38.0355 22.4995C38.0251 22.3464 37.9763 22.2871 37.9111 22.2871C37.8764 22.2871 37.837 22.304 37.7963 22.3324ZM22.2878 22.7525C22.2791 22.7718 22.2721 22.7926 22.2661 22.8138C22.4681 22.7541 22.675 22.6996 22.8872 22.651C22.8509 22.6021 22.8019 22.5658 22.7547 22.541C22.7158 22.5277 22.6775 22.5212 22.6401 22.5212C22.5004 22.5212 22.3737 22.61 22.2878 22.7525ZM2.28237 22.7183C2.09314 22.8757 2.17297 23.1504 2.29342 23.3427C2.42653 23.5553 2.70076 23.8188 2.81747 23.9131C2.836 23.928 2.85471 23.9437 2.87306 23.9594C3.0664 24.1346 3.40834 24.3418 3.69647 24.4811C3.71268 24.4915 3.74547 24.5054 3.78182 24.5218C3.81282 24.5358 3.82548 24.5398 3.82601 24.5396C3.85773 24.5524 3.8898 24.5647 3.92205 24.5768C4.15548 24.6631 4.39942 24.7192 4.63819 24.6746C4.90885 24.5937 4.93148 24.4168 4.88569 24.1027C4.87714 24.0629 4.86734 24.0243 4.85647 23.9863C4.68826 23.4072 4.22426 23.0399 3.78057 22.8183C3.5206 22.6882 3.14801 22.5515 2.80945 22.5515C2.61273 22.5515 2.42742 22.5977 2.28237 22.7183ZM19.156 22.7156C18.6466 22.7516 18.0874 22.9747 17.6467 23.28C17.4828 23.3935 17.3207 23.5383 17.1788 23.7096C16.9623 23.9712 16.7948 24.2944 16.749 24.6638C16.7394 24.742 16.7378 24.8168 16.7432 24.889C16.7567 25.0752 16.8164 25.2404 16.9053 25.3847C17.0325 25.5912 17.2189 25.7545 17.4131 25.8744C17.5799 25.6955 17.7594 25.5141 17.9513 25.333C18.0687 25.2219 18.1909 25.1108 18.318 25.0004C18.7362 24.6374 19.2066 24.2823 19.7303 23.9562C20.1852 23.6727 20.6809 23.4116 21.2185 23.1866C21.0927 23.0852 20.9528 23.0077 20.8194 22.9537C20.3969 22.7834 19.8932 22.7062 19.4327 22.7062C19.3383 22.706 19.2456 22.7094 19.156 22.7156ZM41.5133 23.1438C41.5107 23.1517 41.5083 23.1597 41.5057 23.1675C41.4568 23.3051 41.425 23.445 41.4134 23.5968C41.4168 23.8227 41.4718 23.9503 41.5771 23.9808C41.6275 23.7463 41.6726 23.5031 41.7118 23.2515C41.7357 23.1005 41.7573 22.9469 41.7763 22.7898C41.6723 22.9109 41.5739 22.9797 41.5133 23.1438ZM12.7464 24.3266C12.7418 24.3596 12.7391 24.3917 12.7377 24.4232C12.7103 25.0435 13.3164 25.3425 13.8571 25.4776C14.0933 25.5367 14.3173 25.5647 14.47 25.5739C14.7225 25.5895 15.1411 25.5759 15.4828 25.4371C15.7546 25.3264 15.9771 25.1367 16.0295 24.8188C16.0406 24.7507 16.0447 24.677 16.039 24.5968C16.0555 24.3981 16.0771 24.3498 15.9547 24.1641C15.8414 24.0214 15.7086 23.9216 15.5628 23.8393C15.2321 23.6518 14.8633 23.5727 14.5074 23.5239C14.3742 23.5057 14.2106 23.4906 14.0372 23.4906C13.4898 23.4906 12.8444 23.6417 12.7464 24.3266ZM6.55709 23.819C6.48118 23.8217 6.40046 23.8274 6.31867 23.8382C6.04106 23.8751 5.74847 23.9735 5.57135 24.227C5.36697 24.5196 5.46266 24.9644 5.65118 25.2464C5.65083 25.2463 5.65296 25.2498 5.65973 25.26C5.7009 25.3133 5.69662 25.3067 5.68326 25.2883C5.90617 25.5686 6.1877 25.7874 6.4924 25.9547C6.9172 26.1876 7.38744 26.3198 7.80867 26.3715C8.15471 26.4032 8.63635 26.4102 8.87994 26.0565C8.97438 25.9193 8.99344 25.7464 8.97081 25.5702C8.94195 25.348 8.84644 25.1201 8.75075 24.9505C8.42574 24.3749 7.85803 24.0405 7.28676 23.8988C7.06617 23.8439 6.84504 23.8176 6.63727 23.8176C6.61019 23.8176 6.58346 23.8181 6.55709 23.819ZM10.0262 23.878C9.90451 23.8858 9.75038 23.9503 9.68231 24.0733C9.64472 24.1411 9.63296 24.2263 9.66788 24.3302C9.6677 24.3302 9.66788 24.3313 9.66913 24.335C9.67198 24.3409 9.67269 24.3418 9.67251 24.3409C9.9038 24.783 10.9544 24.644 10.6536 24.1736C10.6531 24.1723 10.6525 24.1714 10.6517 24.17C10.4991 23.9777 10.2823 23.8765 10.0695 23.8765C10.0551 23.8765 10.0406 23.8769 10.0262 23.878ZM39.0943 24.3578C39.0547 24.3772 39.0164 24.3999 38.9779 24.4227C38.5463 24.6757 38.1768 25.1023 37.9207 25.6158C37.8744 25.7081 37.832 25.8035 37.7937 25.9007C37.7445 26.0257 37.7019 26.1543 37.6664 26.2856C37.6076 26.5032 37.5677 26.7272 37.5512 26.9542C37.5522 26.9226 37.5517 26.915 37.5463 27.0103C37.546 27.036 37.5462 27.0447 37.5467 27.0436C37.5465 27.2338 37.5699 27.4132 37.6182 27.5741C37.6258 27.5999 37.6342 27.6252 37.6433 27.65C37.6828 27.7583 37.7349 27.8571 37.8004 27.9422C37.8765 28.0413 37.9713 28.122 38.0848 28.1819C38.0923 28.1856 38.1 28.1897 38.1076 28.1937C38.1415 28.2101 38.1766 28.2257 38.2138 28.2384C38.2855 28.2626 38.3569 28.2774 38.4277 28.2854C38.6655 28.3123 38.8988 28.2532 39.1178 28.1436C39.1973 28.1039 39.2746 28.0577 39.3498 28.0066C39.3555 28.0028 39.361 27.9987 39.3665 27.9948C39.4114 27.964 39.4556 27.9314 39.4987 27.8972C39.5068 27.8907 39.5146 27.8838 39.5228 27.8772C39.6648 27.7626 39.8042 27.6311 39.9376 27.4857C40.1318 27.2742 40.3132 27.0333 40.4711 26.771C40.5201 26.6896 40.5666 26.606 40.6106 26.521C40.7145 26.3209 40.8038 26.111 40.8751 25.8949C40.949 25.6711 41.0046 25.441 41.0347 25.2076C41.0713 24.9239 41.0661 24.6016 40.926 24.3523C40.799 24.1256 40.7033 24.1271 40.5116 24.1059C40.426 24.0991 40.3405 24.0955 40.2553 24.0955C39.8562 24.0955 39.464 24.1725 39.0943 24.3578ZM31.8777 25.3414C31.8593 25.4093 31.8472 25.4776 31.8411 25.5376C31.8408 25.5392 31.8401 25.5437 31.8392 25.5547C31.8392 25.5668 31.8394 25.5707 31.8395 25.5716C31.8397 25.5877 31.8403 25.6037 31.8411 25.6194C31.929 25.7135 32.0147 25.8077 32.0986 25.9022C32.1353 25.9437 32.1719 25.9852 32.208 26.0267C32.2182 26.0232 32.2282 26.0198 32.2389 26.0151C32.2465 26.0116 32.2533 26.0073 32.261 26.0036C32.422 25.9234 32.5329 25.7819 32.5507 25.5584C32.5503 25.2912 32.4315 25.0453 32.2091 24.9915C32.207 24.9909 32.2052 24.9902 32.2034 24.9897C32.1891 24.9866 32.1754 24.985 32.1622 24.985C32.0192 24.985 31.9263 25.1611 31.8777 25.3414ZM10.9633 25.3439C10.8792 25.402 10.8252 25.4644 10.7946 25.5299C10.7058 25.7206 10.8156 25.9394 10.9726 26.1686C11.453 26.81 12.1048 27.251 12.7571 27.5497C12.7617 27.552 12.7692 27.5552 12.7737 27.5568C13.0643 27.6798 13.472 27.8474 13.7437 27.6087C14.0326 27.3551 13.9221 26.9829 13.7275 26.68C13.6726 26.5944 13.6105 26.5189 13.5442 26.4471C13.483 26.4685 13.415 26.4629 13.3565 26.4262C13.2145 26.3368 13.0893 26.1506 12.9578 26.034C12.7229 25.8259 12.4654 25.649 12.1992 25.5075C12.1212 25.4661 12.0428 25.4273 11.9636 25.392C11.7671 25.3122 11.5574 25.2461 11.3523 25.2461C11.2192 25.2459 11.0879 25.2739 10.9633 25.3439ZM4.38819 25.7639C4.39603 26.0189 4.6373 26.1932 4.79891 26.299C5.0106 26.4376 5.1797 26.4943 5.41027 26.4485C5.43005 26.4444 5.44965 26.4405 5.46943 26.4364L5.47442 26.4355C5.47424 26.4348 5.47389 26.4346 5.47353 26.4341C5.33882 26.1809 5.12785 26.0052 4.91028 25.8772C4.8627 25.8492 4.59952 25.7126 4.4657 25.7126C4.4224 25.7126 4.39265 25.7268 4.38819 25.7639ZM2.30144 27.3164C2.28594 27.4492 2.26901 27.5832 2.25119 27.7181C2.29039 27.7427 2.32888 27.7651 2.36594 27.786C2.37806 27.7927 2.38982 27.7992 2.40158 27.8056C2.40835 27.8093 2.4153 27.8132 2.42207 27.8168C2.52257 27.8704 2.6334 27.9214 2.7494 27.9649C3.1546 28.1163 3.62466 28.1684 3.94932 27.8635C3.9413 27.8715 3.93453 27.8788 3.95805 27.8562C4.04732 27.7436 4.02469 27.5884 4.0156 27.4624C3.9862 27.0436 3.80534 26.7338 3.55659 26.5077C3.35435 26.3238 3.10756 26.1948 2.85952 26.1085C2.73408 26.0647 2.55625 26.0144 2.36826 25.9888C2.39035 26.3908 2.35596 26.8442 2.30144 27.3164ZM36.0784 26.6078C36.0781 26.6083 36.0779 26.6096 36.0768 26.6124C36.0745 26.6242 36.0749 26.6245 36.0758 26.6213C36.0314 26.8701 36.1326 27.1342 36.2937 27.291C36.4211 27.3858 36.6169 27.3979 36.6593 27.2102C36.6622 27.1978 36.6643 27.1848 36.6657 27.1705C36.6633 27.067 36.5852 26.8736 36.4851 26.7161C36.3985 26.5802 36.2949 26.4715 36.2087 26.4715C36.1567 26.4715 36.1107 26.511 36.0784 26.6078ZM14.8382 26.6301C14.5139 26.7222 14.4299 27.0458 14.7061 27.3357C14.9285 27.5689 15.2514 27.6748 15.5336 27.6317C15.5465 27.6295 15.562 27.6267 15.562 27.6267C15.849 27.5326 15.9276 27.137 15.696 26.8875C15.5155 26.6931 15.2679 26.6119 15.0313 26.6119C14.9656 26.6119 14.9005 26.6181 14.8382 26.6301ZM25.0094 26.877C25.0217 26.9025 25.0356 26.9253 25.0504 26.9469C25.178 27.132 25.3904 27.1732 25.5773 27.1432C25.5743 27.1443 25.577 27.1443 25.5941 27.1413C25.6012 27.1391 25.6041 27.1381 25.6055 27.1374C25.6757 27.1146 25.7603 27.0707 25.8207 27.0094C25.8728 26.9567 25.9064 26.8911 25.8977 26.8152C25.5784 26.7413 25.2712 26.6981 24.9831 26.681C24.9747 26.7345 24.9815 26.7988 25.0094 26.877ZM23.6926 26.7951C23.655 26.805 23.6182 26.8159 23.5825 26.8271C22.7274 27.0998 21.9803 27.7943 21.5266 28.5869C22.2075 28.7067 23.0027 28.4862 23.5439 28.0712C23.8448 27.8408 24.085 27.4681 24.206 27.0542C24.2231 26.9816 24.2297 26.9173 24.2288 26.8592C24.2279 26.799 24.2179 26.7466 24.2012 26.6996C24.0168 26.7206 23.8464 26.753 23.6926 26.7951ZM33.5006 27.1219C33.4929 27.1235 33.4849 27.1252 33.4773 27.127C33.3857 27.1504 33.295 27.1792 33.2052 27.2129C33.6904 27.784 34.1986 28.3325 34.8473 28.8189C35.1071 29.0133 35.3557 29.1708 35.5923 29.2972C35.6542 29.0793 35.6996 28.8544 35.7267 28.6267C35.7761 28.2113 35.7151 27.8531 35.53 27.5966C35.4193 27.4431 35.2645 27.3261 35.0622 27.2544C34.7338 27.1383 34.3737 27.0693 34.0177 27.0693C33.8429 27.0693 33.6692 27.0859 33.5006 27.1219ZM5.36573 27.4223C5.08882 27.441 4.65137 27.4246 4.47426 27.7343C4.30088 28.0367 4.56299 28.4857 4.74367 28.6995C5.22745 29.2733 5.96319 29.6578 6.61999 29.7662C6.64244 29.771 6.65081 29.7722 6.69108 29.7779C6.7073 29.779 6.71603 29.7795 6.71924 29.7793C7.03552 29.7989 7.43787 29.7318 7.58986 29.3449C7.72136 29.0103 7.56598 28.614 7.38138 28.3483C6.92789 27.7061 6.19305 27.4169 5.52128 27.4169C5.4689 27.4169 5.41704 27.4187 5.36573 27.4223ZM7.90329 27.6222C7.91274 27.8592 8.16077 28.0215 8.32257 28.0657C8.36711 28.078 8.61675 28.1006 8.56775 27.9681C8.50913 27.8444 8.20389 27.4503 8.02642 27.4503C7.96459 27.4501 7.91826 27.4982 7.90329 27.6222ZM9.87547 27.6372C9.15559 27.6764 9.25627 28.4649 9.61531 29.0117C9.61425 29.0112 9.61959 29.0196 9.63812 29.0465C9.66859 29.0869 9.66717 29.0837 9.6563 29.0682C9.95868 29.4561 10.4138 29.71 10.781 29.8569C10.8028 29.8663 10.8218 29.8752 10.8443 29.8852C11.0184 29.9672 11.4261 30.1074 11.6978 30.1589C11.864 30.1902 12.2236 30.2729 12.3457 30.0826C12.4289 29.8925 12.2564 29.4465 12.178 29.2815C12.0258 28.9609 11.8355 28.6806 11.6057 28.441C11.1625 27.9797 10.5355 27.635 9.95369 27.635C9.9275 27.635 9.90148 27.6358 9.87547 27.6372ZM26.199 28.2117C25.8268 28.3925 25.4811 28.7391 25.3608 29.2259C26.1871 29.4324 27.1819 29.9974 27.8831 30.9671C28.2131 30.8713 28.5285 30.7184 28.805 30.5279C29.1671 30.2785 29.6211 29.8684 29.6657 29.3061C29.6655 29.274 29.6626 29.2426 29.6584 29.2118C29.3212 28.8182 28.9725 28.4793 28.6192 28.1894C28.2478 28.0265 27.8319 27.9458 27.421 27.9458C26.9895 27.9456 26.5632 28.0349 26.199 28.2117ZM13.345 28.9192C13.2323 29.7499 14.16 30.3356 14.7343 30.619C14.8631 30.0924 15.0249 29.6373 15.1756 29.2772C14.924 29.0696 14.5347 28.8432 14.2102 28.7339C14.096 28.6954 13.8975 28.6332 13.719 28.6332C13.5365 28.6332 13.3747 28.6981 13.345 28.9192ZM36.9523 28.6758C36.7967 28.7361 36.6369 28.8811 36.5353 29.0099C36.469 29.094 36.4047 29.1888 36.3466 29.2911C36.2967 29.3788 36.2518 29.4723 36.2137 29.5698C36.5432 29.6829 36.8436 29.7348 37.1125 29.746C37.1306 29.7466 37.1483 29.7473 37.1661 29.7476C37.216 29.7485 37.2648 29.7483 37.3127 29.7467C37.3397 29.6557 37.361 29.5623 37.3751 29.4677C37.3997 29.3043 37.4042 29.1381 37.3815 28.975C37.3812 28.9731 37.3805 28.9714 37.3803 28.9695C37.327 28.733 37.2171 28.6471 37.09 28.6471C37.0455 28.6471 36.9991 28.6577 36.9523 28.6758ZM24.2946 28.8396C24.1547 28.8743 24.0373 28.9832 23.9957 29.122C23.9569 29.2519 23.9909 29.3886 24.0604 29.5019C24.0606 29.5023 24.0615 29.504 24.0642 29.5085C24.0677 29.5126 24.0686 29.5135 24.0686 29.5135C24.2126 29.686 24.4065 29.6646 24.5128 29.4962C24.5683 29.4084 24.5973 29.3068 24.6148 29.2054C24.6296 29.1181 24.657 28.9987 24.6165 28.9151C24.5959 28.8727 24.5476 28.8601 24.5059 28.8464C24.4683 28.8339 24.4289 28.8278 24.3895 28.8278C24.3576 28.8278 24.3257 28.8317 24.2946 28.8396ZM2.07746 29.0582C2.07746 29.0588 2.07746 29.0591 2.07728 29.0596C2.0771 29.0618 2.07675 29.0636 2.07675 29.0657L2.07639 29.0689H2.07657C2.06409 29.1851 2.0518 29.3095 2.04307 29.4221C1.99763 30.0026 2.0265 30.4565 2.10561 30.8191C2.31142 30.833 2.53433 30.8013 2.71216 30.7278C2.71198 30.7294 2.71234 30.731 2.71216 30.7325C2.71216 30.7325 2.71305 30.7323 2.71341 30.7321C2.71822 30.73 2.72178 30.7261 2.72642 30.7239C2.72962 30.7227 2.7339 30.7223 2.73711 30.7211C2.73711 30.7198 2.73693 30.7188 2.73693 30.7175C2.86433 30.6559 2.97766 30.5664 3.06319 30.4338C2.9855 30.2904 3.02791 30.0759 2.98283 29.9135C2.94327 29.7719 2.88376 29.6498 2.80535 29.5345C2.61131 29.2874 2.3704 29.1295 2.11363 29.0101C2.10401 29.0062 2.09385 29.0023 2.08405 28.9985C2.08173 29.0183 2.0796 29.0384 2.07746 29.0582ZM21.1059 29.7122C21.0713 29.9084 21.0603 30.1015 21.0726 30.2875C21.0941 30.6136 21.1904 30.9173 21.378 31.1731C21.726 31.6471 22.1756 31.9744 22.6533 32.1353C22.9145 32.0202 23.1574 31.8618 23.36 31.6592C23.3446 31.6763 23.3416 31.6808 23.392 31.628C23.4011 31.6175 23.4036 31.614 23.4036 31.614C23.4298 31.581 23.4539 31.5463 23.4767 31.5108C23.698 31.1655 23.7283 30.7056 23.5934 30.2715C23.4678 29.8681 22.9533 29.7097 22.6531 29.6372C22.4361 29.5846 22.1975 29.5525 21.9562 29.5525C21.6661 29.5525 21.3719 29.5988 21.1059 29.7122ZM30.2663 30.2095C30.1831 30.4572 30.1371 30.7196 30.4235 30.5799C30.4283 30.5762 30.4294 30.575 30.4294 30.575C30.4711 30.5411 30.5106 30.4909 30.5464 30.4308C30.4704 30.3086 30.3936 30.1892 30.3153 30.0741C30.2979 30.1197 30.2811 30.1649 30.2663 30.2095ZM4.15352 30.1546C3.96464 30.1901 3.78823 30.2729 3.66956 30.4429C3.46874 30.7307 3.69558 31.1459 3.86058 31.385C3.87056 31.3978 3.88107 31.4092 3.89105 31.4215L3.89123 31.4217C4.10701 31.6849 4.31068 31.828 4.59132 31.9588C4.60879 31.9671 4.63819 31.9816 4.65476 31.9892C4.89816 32.0894 5.14406 32.1175 5.39317 32.1441C5.46551 32.1519 5.53785 32.1596 5.61091 32.169C5.77467 32.1897 5.9484 32.2111 6.12017 32.2089H6.12142C6.30727 32.2063 6.49027 32.1758 6.65545 32.0856C6.93716 31.8855 6.95177 31.4123 6.77002 31.0899C6.55887 30.7152 6.15777 30.5258 5.82099 30.4026C5.4607 30.2706 5.08954 30.1942 4.71802 30.1509C4.62678 30.1402 4.52557 30.1318 4.42169 30.1318C4.33277 30.1318 4.24172 30.138 4.15352 30.1546ZM8.32007 30.8429C8.52427 31.728 9.37209 32.1646 10.0059 32.4523C10.0112 32.4548 10.0255 32.4614 10.0526 32.4739C10.1946 32.5354 10.1868 32.5315 10.1413 32.5111C10.4646 32.6469 10.796 32.7583 11.1344 32.7978C11.4816 32.8208 11.7675 32.7652 11.6878 32.2535C11.6231 31.9256 11.1967 31.5398 10.9938 31.3278C10.717 31.0386 10.4157 30.7986 10.0848 30.62C9.90451 30.5231 9.3361 30.3235 8.89134 30.3235C8.54085 30.3234 8.26715 30.4474 8.32007 30.8429ZM30.4128 30.5917C30.3969 30.5958 30.3813 30.5995 30.426 30.5887C30.4287 30.588 30.4297 30.5878 30.4297 30.5878C30.4295 30.5878 30.4212 30.5897 30.4128 30.5917ZM24.4464 31.2804C24.4464 31.2804 24.4476 31.2834 24.4539 31.2923C24.4612 31.3014 24.4631 31.3032 24.4624 31.3018C24.6007 31.4641 24.765 31.5304 24.9421 31.447C24.956 31.4299 24.9701 31.4137 24.9836 31.3962C25.0417 31.3201 25.0896 31.2457 25.1297 31.1721C25.1361 31.0698 25.0873 30.9613 24.989 30.8538C24.899 30.7553 24.7858 30.7118 24.6803 30.7116C24.4339 30.7116 24.2277 30.949 24.4464 31.2804ZM13.3334 31.3119C13.0613 31.3264 12.6361 31.4001 12.5167 31.7531C12.4458 32.1159 12.7829 32.4652 12.9845 32.6695C13.4328 33.1232 13.9884 33.4226 14.5545 33.5644C14.4643 32.88 14.477 32.2287 14.5488 31.6323C14.2011 31.4247 13.8209 31.3093 13.4351 31.3093C13.4013 31.3093 13.3674 31.3102 13.3334 31.3119ZM30.712 31.5707C30.3889 31.6747 30.0983 31.9016 29.8766 32.2032C29.5666 32.6255 29.3918 33.195 29.4533 33.7836C29.4638 33.8842 29.4811 33.9858 29.506 34.0872C29.5513 34.2709 29.6163 34.4304 29.6963 34.5692C30.0865 35.2444 30.8419 35.407 31.4985 35.2869C31.4921 35.2891 31.5072 35.2866 31.5698 35.2729C31.6029 35.2641 31.6115 35.2613 31.6074 35.2618C31.8117 35.2019 31.9939 35.1014 32.1491 34.9691C32.1458 34.909 32.141 34.8482 32.1364 34.7877C32.107 34.4015 32.0494 34.0036 31.9573 33.5929C31.9092 33.4388 31.8593 33.2889 31.8087 33.1412C31.6574 32.7011 31.4951 32.2873 31.3226 31.9012C31.2733 31.7902 31.2225 31.6824 31.1715 31.5758C31.0801 31.5555 30.9896 31.5436 30.9057 31.5436C30.8355 31.5436 30.7699 31.552 30.712 31.5707ZM3.3041 32.6711C3.45431 32.9894 3.59348 33.4128 3.74654 33.9354C3.74672 33.9366 3.74725 33.9379 3.74761 33.939C3.77238 34.0239 3.79768 34.1116 3.82334 34.2018C3.88695 34.2187 3.95092 34.2326 4.01667 34.2449C4.1806 34.2759 4.34133 34.2932 4.48299 34.3074C4.49599 34.3089 4.51114 34.3103 4.52985 34.3123C4.6307 34.3212 4.64353 34.3215 4.6193 34.3192C4.88052 34.3365 5.4623 34.355 5.78411 34.2002C5.84844 34.1692 5.90955 34.1259 5.95285 34.0683C5.97138 34.0439 5.98653 34.0165 5.9958 33.9867C6.00346 33.9621 6.00631 33.9352 6.00684 33.9087C6.00702 33.8942 6.00649 33.88 6.00577 33.8661C6.00292 33.8265 5.99294 33.7875 5.97566 33.7499C5.81066 33.3946 5.62944 33.1155 5.32884 32.9224C5.0482 32.7421 4.69414 32.6348 4.38427 32.5829C4.23442 32.558 4.08046 32.5405 3.9274 32.5405C3.7134 32.5405 3.501 32.5748 3.3041 32.6711ZM7.37372 33.2027C7.04033 33.4568 7.092 33.8602 7.30262 34.229C7.48972 34.5569 7.81687 34.7438 8.11213 34.8823C8.11409 34.8835 8.12692 34.8898 8.1565 34.9033C8.27838 34.955 8.28729 34.958 8.25806 34.945C8.88225 35.1937 9.84945 35.4297 10.3721 34.9108C10.4355 34.832 10.4704 34.7559 10.4804 34.6414C10.4783 34.4589 10.4439 34.5434 10.3532 34.4464C10.2427 34.3285 10.2645 34.1419 10.2183 33.9869C10.1076 33.6155 9.81684 33.3819 9.53834 33.2276C9.19907 33.0395 8.75841 32.9156 8.33254 32.9156C7.98098 32.9156 7.63957 33.0001 7.37372 33.2027ZM11.6383 34.3659C11.5159 34.6556 11.8498 34.9865 12.0084 35.1292C12.2755 35.3694 12.5787 35.5548 12.8815 35.7107C13.3804 35.9678 14.2883 36.3912 14.7653 35.9377C14.7694 35.9336 14.7726 35.93 14.7781 35.9234C14.9442 35.6941 14.5775 35.2353 14.4323 35.0756C14.171 34.7889 13.8558 34.594 13.5326 34.4457C13.207 34.3076 12.8687 34.2244 12.5283 34.1882C12.435 34.1806 12.3061 34.1658 12.1734 34.1658C11.9624 34.1658 11.7416 34.203 11.6383 34.3659ZM10.9724 35.4309C10.972 35.4297 10.9713 35.4318 10.9704 35.4421C10.9708 35.4527 10.9711 35.4537 10.9717 35.4516C10.9881 35.7483 11.216 35.9284 11.4473 35.8994C11.5861 35.8459 11.4565 35.6093 11.4663 35.4502C11.4638 35.2313 11.3535 35.1289 11.2374 35.1289C11.1196 35.1289 10.9957 35.2344 10.9724 35.4309ZM28.8768 35.3716C28.748 35.3878 28.6242 35.4218 28.5055 35.4698C28.4351 35.6839 28.354 35.8865 28.2648 36.0774C27.9608 36.7274 27.57 37.2402 27.2377 37.6021C27.2354 37.8181 27.271 38.0317 27.3736 38.2279C27.5655 38.5936 27.8881 38.7842 28.2248 38.8359C28.2165 38.8357 28.22 38.8368 28.2541 38.8411C28.286 38.8428 28.2886 38.8421 28.2795 38.8407C28.5691 38.8484 28.8237 38.7361 29.037 38.5471C29.1614 38.4369 29.2717 38.301 29.3667 38.147C29.5213 37.8956 29.6352 37.5968 29.702 37.2873C29.8036 36.8181 29.8253 36.3067 29.6514 35.8486C29.5792 35.6868 29.4875 35.5533 29.3661 35.4448C29.2813 35.3792 29.1935 35.3577 29.1031 35.3548C29.0953 35.3547 29.0876 35.3545 29.0798 35.3545C29.0137 35.3545 28.9463 35.363 28.8768 35.3716ZM4.28591 35.8432C4.37287 36.1458 4.46535 36.4049 4.56139 36.6289C4.61199 36.5834 4.65797 36.5309 4.6977 36.4728C4.69752 36.4721 4.69752 36.4719 4.69735 36.4717C4.7337 36.4177 4.76559 36.358 4.79072 36.2923C4.89032 36.0305 4.64745 35.8028 4.33955 35.6296L4.33812 35.6289C4.295 35.6046 4.24974 35.5811 4.20484 35.5592C4.23121 35.6522 4.25811 35.7467 4.28591 35.8432ZM6.9769 36.9362C6.94981 37.0672 6.94767 37.2101 6.94643 37.3482L6.94607 37.3983C6.94447 37.466 6.94928 37.5396 6.95961 37.618C6.95997 37.6183 6.9605 37.6185 6.96104 37.6187C7.53925 37.9464 8.24808 38.0749 8.8288 37.8878C9.11514 37.7955 9.39312 37.608 9.41361 37.229C9.41557 37.1918 9.41592 37.1531 9.41272 37.1118C9.39294 36.8639 9.1572 36.5385 9.00021 36.3748C8.72171 36.085 8.36284 35.8792 7.98561 35.7606C7.86944 35.7239 7.75165 35.6955 7.63352 35.6756L7.63316 35.6754C7.32098 35.9808 7.0831 36.4329 6.9769 36.9362ZM31.5701 36.3798C31.5124 36.4321 31.4691 36.5063 31.4115 36.5583C31.4049 36.5642 31.3989 36.5713 31.3919 36.5763C31.3016 36.644 31.2692 36.5941 31.1981 36.7064C31.1061 36.8516 31.0299 37.007 30.9634 37.1725C30.9431 37.2231 30.924 37.2748 30.9062 37.3266C30.8237 37.5652 30.767 37.8147 30.7353 38.0722C30.7237 38.1661 30.7152 38.2612 30.7104 38.3573C30.7088 38.4417 30.7089 38.5291 30.7122 38.6167C30.7228 38.9049 30.7692 39.1989 30.9176 39.4277C30.9222 39.4337 30.9272 39.4385 30.9319 39.444C30.9319 39.4449 30.9319 39.4455 30.9322 39.4464L30.9329 39.4453C30.9992 39.3418 31.0637 39.237 31.1259 39.1303C31.1341 39.1162 31.1425 39.1021 31.1507 39.0879C31.2895 38.8457 31.4172 38.5945 31.532 38.3347C31.5995 38.1818 31.6628 38.026 31.7207 37.8671C31.7638 37.7486 31.8034 37.6281 31.8408 37.5064C31.8971 37.3231 31.9466 37.1358 31.9889 36.9448C31.9951 36.9166 32.0012 36.8883 32.0069 36.86C32.0502 36.6526 32.0851 36.4411 32.1106 36.2247C32.0676 36.2119 32.024 36.2059 31.9801 36.2059C31.8354 36.2059 31.6895 36.2718 31.5701 36.3798ZM10.1408 37.8382C10.141 37.8395 10.1411 37.8404 10.1411 37.8416C10.1864 38.4911 10.8033 38.7817 11.3835 38.9218L11.3844 38.922C11.5413 38.9597 11.6957 38.9866 11.8352 39.0064C11.9018 39.016 11.9651 39.0239 12.0237 39.0308C12.0198 39.0308 12.0559 39.0348 12.1719 39.047C12.1821 39.0476 12.1896 39.0485 12.1958 39.0488C12.4863 39.072 12.7888 39.0918 13.0859 39.0843H13.0866C13.2297 39.0805 13.3713 39.0713 13.5096 39.0519C13.665 39.0303 13.8378 38.9811 13.9362 38.822C14.019 38.6394 14.0946 38.6176 14.0231 38.4059C13.7197 37.5048 12.7585 37.0375 12.0533 36.8591C11.8701 36.8128 11.6238 36.7755 11.369 36.7753C10.752 36.7753 10.085 36.9947 10.1408 37.8382ZM15.0106 37.845C15.0971 38.2432 15.3212 38.5863 15.5534 38.8753C15.7439 39.1126 16.0639 39.4392 16.217 39.5606C16.2357 39.5754 16.2542 39.5911 16.2726 39.6069C16.3822 39.701 16.5242 39.8033 16.674 39.8982C16.7875 39.9699 16.8747 40.0249 16.9875 40.0812C17.0006 40.0882 17.0488 40.1112 17.0933 40.1308C17.3408 40.2348 17.8189 40.4187 17.9727 40.0547C17.9753 40.0485 17.9787 40.0433 17.981 40.0369C18.1015 39.7131 17.9245 39.3469 17.7743 39.0763C17.6291 38.8149 17.4557 38.5713 17.2645 38.3489C17.101 38.2327 16.9376 38.1089 16.7749 37.9751C16.6528 37.8484 16.5377 37.7213 16.4276 37.5941C16.392 37.5695 16.3567 37.5437 16.3209 37.5207C16.1318 37.3999 15.7535 37.2336 15.4499 37.2336C15.1655 37.2336 14.9467 37.3796 15.0106 37.845ZM5.76148 37.9719C5.69787 37.8983 5.64441 37.812 5.6633 37.6951C5.50061 37.6317 5.3137 37.5693 5.12749 37.544C5.33864 37.7673 5.55389 37.8933 5.76148 37.9719ZM24.057 39.3728C24.0287 39.4834 24.0079 39.601 23.9972 39.7274C23.9972 39.716 23.9961 39.7204 23.9931 39.7662C23.9927 39.7858 23.9929 39.7949 23.9929 39.7978C23.9922 40.0406 24.0317 40.2799 24.1417 40.4663C24.1967 40.5599 24.2694 40.6402 24.3641 40.7006C24.6436 40.8785 24.9702 40.9177 25.2657 40.8111C25.472 40.7368 25.6732 40.6048 25.8521 40.4326C26.1828 40.1147 26.4369 39.6581 26.5009 39.1595C26.5426 38.8355 26.4442 38.5601 26.193 38.4592C25.7778 38.6989 25.0239 39.0855 24.057 39.3728ZM6.93502 38.6418C7.12604 38.8566 7.34022 39.1219 7.56135 39.4095C7.56242 39.4111 7.56349 39.4127 7.56474 39.4143C7.56687 39.4168 7.56883 39.4195 7.57097 39.4221C7.57258 39.4227 7.57436 39.4234 7.57596 39.4241C7.57703 39.4244 7.5781 39.425 7.57899 39.4253C7.72172 39.4808 7.90739 39.5404 7.8534 39.3093C7.7848 39.0148 7.69339 38.8213 7.45568 38.6835C7.38548 38.6431 7.2203 38.5681 7.09004 38.5681C7.02322 38.5681 6.96567 38.5879 6.93502 38.6418ZM8.45532 38.9815C8.37121 39.404 8.73026 39.6518 9.00164 39.7837C9.00485 39.7853 9.01251 39.7892 9.02854 39.7967C9.05884 39.8093 9.07291 39.8149 9.07701 39.8163C9.1351 39.8389 9.20566 39.8639 9.28193 39.8861C9.54796 39.964 9.88509 40.0071 10.0244 39.7912C10.044 39.7438 10.039 39.6395 10.0232 39.539C10.0064 39.4316 9.97686 39.3284 9.95049 39.3022C9.79528 39.1484 9.60284 39.044 9.41895 38.959C9.29101 38.9054 9.0077 38.791 8.77783 38.791C8.6294 38.791 8.50307 38.8387 8.45532 38.9815ZM29.2015 39.3225C29.1794 39.3562 29.1605 39.3929 29.1468 39.4334C29.1468 39.4328 29.1459 39.4342 29.1437 39.4414C29.1409 39.4544 29.1411 39.4553 29.1423 39.4519C29.091 39.717 29.1903 40.0201 29.4016 40.1331C29.496 40.1668 29.5894 40.1579 29.6762 40.1215C29.8141 40.0636 29.9358 39.9358 30.0194 39.7937C30.0562 39.7156 30.0808 39.636 30.0924 39.559C30.0978 39.5232 30.1003 39.4881 30.0995 39.4538C30.0972 39.3441 30.0623 39.2461 29.9894 39.1753C29.9538 39.1406 29.9089 39.1126 29.8542 39.0928C29.8383 39.0873 29.8221 39.0818 29.8045 39.0777C29.7701 39.0693 29.733 39.0652 29.6947 39.0652C29.5179 39.0652 29.313 39.1527 29.2015 39.3225ZM18.6578 39.9497C18.6503 40.0087 18.6448 40.069 18.6417 40.129C18.6205 40.5527 18.7162 40.9948 18.9958 41.2767C19.0489 41.3302 19.1045 41.3744 19.1615 41.4112C19.4359 41.5884 19.7501 41.5796 20.0323 41.4242C20.0307 41.4258 20.0361 41.4234 20.0546 41.4125C20.0697 41.4025 20.0735 41.3995 20.0772 41.3954C20.2759 41.2582 20.4423 41.073 20.5836 40.853C20.6734 40.7135 20.7479 40.5627 20.8114 40.4018C20.8206 40.3785 20.8283 40.3541 20.837 40.3304C20.8534 40.2858 20.8705 40.2414 20.8851 40.1958C20.919 40.0768 20.9197 40.0567 20.9373 39.9802C20.9484 39.9323 20.9598 39.8861 20.96 39.8856C20.9694 39.8314 20.9771 39.7769 20.9833 39.722C20.3012 39.668 19.5902 39.5169 18.8702 39.2292C18.7618 39.4473 18.6902 39.6958 18.6578 39.9497ZM27.24 39.8517C27.2404 39.853 27.2418 39.8553 27.2452 39.8608C27.2498 39.8667 27.2512 39.868 27.2512 39.868C27.521 40.1892 28.0238 39.7261 27.73 39.44C27.645 39.3811 27.5411 39.3516 27.4451 39.3516C27.2177 39.3516 27.0333 39.5171 27.24 39.8517ZM11.4941 40.2026C11.4918 40.2021 11.4952 40.204 11.5103 40.2115C11.5756 40.237 11.9002 40.3503 11.8826 40.1898C11.8207 39.9483 11.5695 39.8378 11.3897 39.8076C11.3813 39.8072 11.3733 39.807 11.3655 39.807C11.028 39.807 11.3223 40.109 11.4941 40.2026ZM12.7772 39.9563C12.7063 40.0028 12.6479 40.075 12.6103 40.1502C12.567 40.2373 12.5504 40.335 12.5531 40.4316C12.5559 40.5354 12.5793 40.6383 12.6144 40.7359C12.8214 41.1605 13.2929 41.3571 13.6694 41.3583C13.8432 41.3587 14.0426 41.3515 14.1147 41.1272C14.1589 40.9169 14.1509 40.6981 14.1409 40.4815C14.1338 40.3225 14.0693 40.1908 13.9713 40.0871C13.8229 39.9301 13.5966 39.838 13.3669 39.8179C13.335 39.815 13.3029 39.8136 13.2708 39.8136C13.0884 39.8136 12.9111 39.8601 12.7772 39.9563ZM20.96 39.8856C20.96 39.8858 20.96 39.8858 20.96 39.886C20.96 39.8858 20.96 39.8856 20.96 39.8856ZM8.37192 40.5141C8.37371 40.5164 8.37549 40.5191 8.37727 40.5214C8.39544 40.547 8.41344 40.5727 8.43144 40.5982C8.56045 40.781 8.68375 40.9583 8.79797 41.124C8.76037 41.0002 8.80724 40.8797 8.79084 40.7445C8.75556 40.6001 8.66273 40.5226 8.5576 40.4658C8.54851 40.4608 8.53942 40.4558 8.53015 40.451C8.47171 40.4292 8.39313 40.4089 8.31294 40.4032C8.31294 40.4032 8.31205 40.4031 8.31134 40.4031C8.3051 40.4027 8.29887 40.4025 8.29263 40.402C8.31918 40.4396 8.34555 40.4768 8.37192 40.5141ZM20.8162 41.8107C20.6537 42.0607 20.5125 42.3285 20.3964 42.5971C20.1914 43.0719 19.9657 43.8087 20.3696 44.2508C20.5271 44.4231 20.8267 44.535 21.03 44.5894C21.2479 44.6477 21.4409 44.7285 21.6649 44.7221C22.5922 44.6956 23.6702 44.0997 24.0139 42.9787C24.0098 42.996 24.0107 42.9959 24.0248 42.9474C24.038 42.8943 24.0408 42.882 24.0387 42.8879C24.0854 42.6842 24.113 42.4663 24.1142 42.2478C24.1162 41.9276 24.0615 41.6072 23.9236 41.3307C23.6631 40.8083 23.1843 40.5322 22.7044 40.526C22.6978 40.5258 22.6912 40.5258 22.6848 40.5258C21.9302 40.5258 21.2834 41.0937 20.8162 41.8107ZM14.4412 41.6486C14.3793 42.0992 14.4465 42.5112 14.5971 42.8804C14.5973 42.8809 14.5974 42.8816 14.5978 42.8822C14.7662 43.2945 15.0383 43.6534 15.3538 43.9529C15.6535 44.2373 15.9916 44.4682 16.3152 44.6407C16.3162 44.6412 16.3175 44.6418 16.3185 44.6427C16.3777 44.6738 16.4361 44.7036 16.4941 44.731C16.7809 44.8675 17.0835 44.9609 17.3857 45.0135C17.6892 45.0664 17.9367 45.0267 18.2232 44.9607C18.6954 44.8337 19.1749 44.5033 19.3543 43.923C19.3532 43.929 19.3549 43.9251 19.3627 43.8984C19.3695 43.8683 19.37 43.8643 19.3679 43.8708C19.5521 43.0194 19.1057 42.3517 18.5277 41.869C18.177 41.5764 17.7786 41.3519 17.4418 41.1962C17.3663 41.1612 17.2934 41.129 17.2253 41.101C16.6974 40.8834 16.1377 40.7332 15.5844 40.6825C15.5554 40.6798 15.5261 40.676 15.4969 40.6739C15.4709 40.6721 15.4451 40.671 15.4196 40.671C14.9251 40.671 14.5333 41.0264 14.4412 41.6486ZM27.0246 41.0805C26.5395 41.2475 25.9027 41.779 25.7388 42.4041C25.722 42.4674 25.7104 42.5313 25.7042 42.5962C25.6766 42.884 25.7562 43.1851 26.0018 43.4754C26.0472 43.5293 26.095 43.5805 26.144 43.629C26.1901 43.604 26.237 43.5783 26.2844 43.5522C26.2931 43.5475 26.3017 43.5425 26.3104 43.5379C26.6051 43.3743 26.926 43.1849 27.2612 42.9686C27.4535 42.8448 27.6504 42.7116 27.8494 42.57C27.8849 42.5449 27.9203 42.5194 27.9561 42.4935C28.3346 42.2193 28.7193 41.9134 29.0949 41.5755C29.1635 41.5137 29.2321 41.451 29.3 41.3872C29.3809 41.3109 29.4613 41.233 29.5409 41.1538C29.3615 40.9868 29.1486 40.8863 28.9196 40.8339C28.7742 40.8004 28.6222 40.7862 28.4682 40.7862C27.9572 40.786 27.4226 40.9435 27.0246 41.0805ZM9.67875 41.2124C9.50555 42.0402 10.5349 42.567 11.0116 42.7826C11.2969 42.9057 11.7655 43.0873 12.1785 43.0917H12.1801C12.4658 43.0944 12.7245 43.0117 12.877 42.7655C12.877 42.7655 12.8785 42.7639 12.8826 42.7569C12.8859 42.7496 12.8867 42.7476 12.8863 42.7475C12.8998 42.7168 12.9096 42.6871 12.918 42.6568L12.9184 42.6561C12.9314 42.6085 12.9399 42.5597 12.9446 42.5048C12.8956 42.4668 12.8491 42.4075 12.8339 42.3367C12.7869 42.1236 12.689 41.9426 12.5604 41.7893C12.3038 41.483 11.9831 41.276 11.6559 41.1169C11.3127 40.9501 10.933 40.8405 10.5677 40.8248C10.5276 40.8232 10.484 40.8218 10.4382 40.8218C10.1538 40.8218 9.78673 40.8735 9.67875 41.2124ZM13.4766 43.5707C13.5379 43.8075 13.7281 43.9108 13.9118 43.944C13.9109 43.9443 13.9148 43.9452 13.9285 43.9476C14.1028 43.9533 14.3031 43.8986 14.2156 43.6502C14.1229 43.4591 13.959 43.3255 13.786 43.2777C13.7605 43.2706 13.735 43.2672 13.7102 43.2672C13.573 43.2672 13.4558 43.3733 13.4766 43.5707ZM24.8011 43.4579C24.392 43.4638 24.1661 43.8565 24.2322 44.3585C24.2407 44.3959 24.2522 44.4303 24.2652 44.4627L24.6953 44.3155C24.6953 44.3155 25.0544 44.1792 25.614 43.903C25.6194 43.9002 25.6245 43.8977 25.6301 43.895C25.6285 43.8902 25.6279 43.8852 25.6263 43.8802C25.6028 43.834 25.5707 43.7922 25.5339 43.7535C25.3466 43.5577 25.015 43.4579 24.8095 43.4579C24.8067 43.4579 24.804 43.4579 24.8011 43.4579ZM14.4182 45.0053C15.2753 45.5824 15.71 45.4347 15.8855 45.3075C15.5422 45.1318 15.1575 45.0776 14.8209 45.001C14.7795 44.9916 14.7291 44.9876 14.6728 44.9876C14.5962 44.9876 14.5087 44.9948 14.4182 45.0053Z" fill="white"/>
</g>
<defs>
<clipPath id="clip0_4890_25075">
<rect width="144.332" height="47.7542" fill="white"/>
</clipPath>
</defs>
</svg>
