<?xml version="1.0"?>
<svg fill="#ffffff" xmlns="http://www.w3.org/2000/svg" width="148" height="28" viewBox="0 0 148 28" fill="none">
<path d="M12.2188 1.84668C13.9454 1.84668 15.5659 2.304 16.832 3.20117C16.832 3.20117 16.9589 3.29414 17.0098 3.34473C17.7964 3.99972 17.5057 4.4825 17.501 4.49023C17.4541 4.58194 17.3734 4.66874 17.2344 4.74023C17.499 5.19206 17.421 5.51625 17.1807 5.75098C17.2567 5.96683 17.3052 6.19493 17.3037 6.43359C17.3056 6.48842 17.299 6.54553 17.2852 6.5918C17.2381 6.74606 17.0375 6.85178 16.8096 6.86328L16.7256 6.86621C16.6249 6.8662 16.5233 6.8491 16.418 6.82031C16.3792 7.26742 16.1372 7.62471 15.5713 7.73926C15.3619 7.77824 15.2014 7.79589 15.0547 7.7959C14.7955 7.7959 14.58 7.74204 14.2197 7.65918C13.5267 7.5081 13.5872 7.49028 12.751 7.28711C11.9883 7.08951 11.0607 6.90924 10.5039 6.90918C9.78409 6.90918 9.04849 7.00345 8.35938 7.25293C8.28884 7.27832 8.21828 7.3076 8.14844 7.34082C7.84252 7.52002 7.54567 7.71946 7.25879 7.93555C6.937 8.23505 6.63666 8.5771 6.35742 8.96387C5.45496 10.2157 4.64861 11.5731 4.30176 13.1504C4.1631 13.7808 4.09993 14.4297 4.11133 15.0781C4.21846 16.145 4.52728 17.193 5.03711 18.126C6.27418 20.5214 8.86163 22.3262 11.2637 22.3262H11.3516C12.744 22.3262 14.0204 21.9534 15.2822 21.5498C15.6734 21.4265 16.3084 21.1817 16.8008 21.1816C17.0315 21.1816 17.2312 21.2351 17.3594 21.3809C17.5737 21.6199 17.4528 21.9687 17.2627 22.2891C17.7791 22.2952 18.2779 22.4311 18.4717 22.8975C18.5426 23.0686 18.5132 23.2576 18.4307 23.4453C19.0117 23.7491 18.5131 24.6039 18.1562 25.0771C16.8916 26.7153 14.7065 27.8888 12.3057 27.9688C12.1818 27.9744 12.0573 27.9775 11.9326 27.9775C9.95388 27.9774 7.83156 27.2708 5.98535 25.9023C3.68526 24.5697 1.80684 22.4615 0.851562 19.7988C-0.57668 16.2673 -0.170888 11.8686 1.78711 8.59473C2.00635 8.10562 2.26057 7.63331 2.5498 7.18359C4.01017 4.8472 6.26933 3.14654 8.59766 2.49609C9.8014 2.06231 11.0349 1.84672 12.2188 1.84668ZM18.2383 23.7646C18.1379 23.9014 18.0226 24.0318 17.9072 24.1445C17.9686 24.5676 17.3848 25.1329 17.0459 25.415C16.2023 26.1166 15.6507 26.4397 14.585 26.8779C14.0064 27.1159 13.256 27.344 12.6953 27.4111C12.2852 27.4606 11.9256 27.4921 11.5059 27.4932C10.8423 27.4737 10.1827 27.3927 9.53418 27.2588C10.3278 27.4843 11.1348 27.6044 11.9326 27.6045C12.0512 27.6045 12.1718 27.602 12.2891 27.5967H12.293C14.4755 27.5242 16.6093 26.4718 17.8613 24.8506C18.2367 24.3524 18.3613 23.9742 18.3184 23.833C18.3149 23.8216 18.3059 23.794 18.2383 23.7646ZM2.14551 20.2549C2.20443 20.4027 2.26578 20.5498 2.33008 20.6953C3.01627 22.2487 3.99477 23.6428 5.16016 24.7256L5.16211 24.7266L5.16309 24.7285C5.489 25.0384 5.83232 25.3241 6.18652 25.5879C6.8445 25.9679 7.53719 26.2841 8.25781 26.5283C9.31877 26.888 10.4132 27.0874 11.5107 27.1201C11.9478 27.1188 12.3176 27.0809 12.6514 27.041C13.13 26.9835 13.8335 26.7849 14.4434 26.5342C15.4911 26.1028 16.0002 25.8005 16.8086 25.1279C17.0136 24.9573 17.1659 24.8012 17.2783 24.6689C16.5338 25.232 15.6962 25.7076 14.7744 26.0137C13.6467 26.4206 12.4006 26.4472 12.0869 26.4473C12.0419 26.4473 12.0158 26.4473 12.0127 26.4473C7.96745 26.2966 4.11998 23.9905 2.14551 20.2549ZM16.833 24.0215C16.6885 24.0215 16.5365 24.0319 16.3857 24.0459C16.3647 24.0686 16.3445 24.0927 16.3232 24.1152C15.6278 24.8652 14.6835 25.3319 13.6387 25.5947C13.3334 25.6739 13.0192 25.7368 12.6992 25.7861C12.141 25.9108 11.5577 25.9795 10.9512 25.9795C10.9482 25.9795 10.9453 25.9785 10.9424 25.9785C11.3 26.0268 11.6605 26.0606 12.0234 26.0742C12.0301 26.0745 12.0522 26.0742 12.0869 26.0742C12.324 26.0742 13.561 26.0543 14.6484 25.6621L14.6533 25.6611L14.6572 25.6592C15.6088 25.3433 16.5306 24.8171 17.4004 24.0977C17.286 24.054 17.1014 24.0215 16.833 24.0215ZM12.1807 3.78418C11.9118 3.78418 11.6393 3.80707 11.3721 3.85254C10.6895 3.9687 9.9763 4.11135 9.25879 4.31641C6.37663 5.33911 3.48699 7.64724 2.39648 10.6846V10.6865L2.39551 10.6895C1.93897 11.9006 1.69258 13.2623 1.68457 14.627C1.67657 15.9834 1.90285 17.354 2.33887 18.5898C2.47889 18.9995 2.64706 19.4035 2.83691 19.7988C4.0986 21.9391 6.00164 23.69 8.08984 24.5371L8.09375 24.5391C9.10471 24.9623 10.1525 25.1767 11.208 25.1768C11.4542 25.1768 11.7024 25.1647 11.9443 25.1406C12.4801 25.0874 13.0148 24.9618 13.5791 24.7578C13.7067 24.7113 13.833 24.6605 13.957 24.6064C13.2697 24.7554 12.5721 24.833 11.8701 24.833C10.4652 24.833 9.12066 24.5301 7.87402 23.9316C6.4648 23.2732 5.23341 22.1542 4.33008 20.7773C3.62141 19.8157 3.07387 18.7261 2.73633 17.583C2.19677 15.883 2.11762 13.9739 2.51465 12.207C2.79368 10.9659 3.28943 9.8425 3.96973 8.88574C4.4371 7.98073 5.04522 7.18386 5.77832 6.52734C7.99265 4.50898 10.6266 4.08594 12.4463 4.08594C12.972 4.08594 13.5019 4.12148 14.0283 4.19141C13.483 3.9269 12.854 3.78422 12.1807 3.78418ZM3.0752 15.3721C3.08542 16.133 3.17783 16.8899 3.36133 17.6182C3.6107 18.6721 4.04758 19.6659 4.62207 20.5488C5.59511 21.8704 6.87005 22.9166 8.2959 23.5322C9.3649 24.0015 10.3664 24.2783 11.4453 24.2783C11.5512 24.2783 11.6582 24.2758 11.7656 24.2705C12.9405 24.209 14.1579 23.9942 15.29 23.8193C15.7398 23.4753 16.138 23.1088 16.4619 22.7412C16.3814 22.7554 16.3063 22.7669 16.2402 22.7803C15.8688 22.8562 15.4905 22.9503 15.0908 23.0498C14.2405 23.2613 13.3611 23.4802 12.4873 23.5283C12.3464 23.5355 12.2049 23.5391 12.0664 23.5391C11.4777 23.539 10.9007 23.4718 10.3252 23.3398C9.88725 23.2713 9.4464 23.1662 9.01758 23.0234C7.70078 22.6268 6.42876 21.7522 5.43555 20.5605C4.84872 19.8567 4.37254 19.0564 4.03125 18.2148C3.76252 17.6771 3.53782 17.1177 3.36816 16.5439C3.24691 16.1627 3.1498 15.7704 3.0752 15.3721ZM17.5615 23.6484C17.4443 23.6484 17.3241 23.6583 17.2021 23.6729C17.3951 23.6983 17.5649 23.7479 17.6924 23.833C17.7475 23.7772 17.7984 23.7217 17.8447 23.667C17.7545 23.6554 17.66 23.6485 17.5615 23.6484ZM0.884766 11.623C0.796231 11.9298 0.717857 12.2422 0.651367 12.5596C0.139563 15.0031 0.333103 17.5241 1.19629 19.6582L1.19922 19.665L1.20117 19.6719C1.71926 21.1158 2.52754 22.4228 3.57812 23.5332C2.16401 21.6912 1.21653 19.3911 0.935547 17.0029C0.542334 15.2613 0.536633 13.402 0.884766 11.623ZM17.1543 22.6631C17.1379 22.7088 17.12 22.7576 17.0977 22.8086C17.0916 22.9877 17.0301 23.1621 16.9346 23.335C17.1465 23.2984 17.3568 23.2764 17.5615 23.2764C17.7382 23.2764 17.9108 23.2931 18.0771 23.3291C18.1359 23.21 18.1571 23.1098 18.1289 23.041C17.9711 22.661 17.4099 22.6602 17.2256 22.6602C17.2019 22.6602 17.1781 22.6625 17.1543 22.6631ZM16.4238 22.1777C16.2623 22.1777 16.0625 22.1989 15.8457 22.2393C15.7214 22.2652 15.5982 22.2963 15.4756 22.3311C15.377 22.3662 15.2769 22.4033 15.1748 22.4414C15.0013 22.5064 14.8216 22.573 14.6406 22.6318C14.5865 22.6493 14.5308 22.6631 14.4756 22.6797C14.3973 22.7103 14.3187 22.742 14.2393 22.7734C14.0534 22.8468 13.864 22.9204 13.6719 22.9922C14.5186 22.8261 15.3658 22.5789 16.166 22.416C16.2978 22.3891 16.455 22.359 16.625 22.335C16.5721 22.2563 16.5195 22.2088 16.4629 22.1797C16.4504 22.1794 16.4374 22.1777 16.4238 22.1777ZM5.77344 19.875C6.01101 20.183 6.26789 20.4713 6.5459 20.7314C8.06168 22.1538 9.96959 22.7822 11.7822 22.7822C12.0799 22.7822 12.3748 22.7637 12.665 22.7305C12.7217 22.7163 12.7787 22.705 12.834 22.6885C13.1085 22.6062 13.377 22.5078 13.6436 22.4053C12.9067 22.5798 12.1523 22.6982 11.3516 22.6982H11.2627C10.0373 22.6982 8.70238 22.2487 7.50391 21.4326C6.86357 20.9964 6.27718 20.4655 5.77344 19.875ZM16.8008 21.5537C16.661 21.5537 16.4999 21.5816 16.334 21.6201C16.3637 21.6191 16.3934 21.6182 16.4229 21.6182C16.6844 21.6182 16.931 21.661 17.0859 21.7871C17.1145 21.6754 17.0887 21.6363 17.082 21.6289L17.0801 21.627C17.0241 21.5631 16.8809 21.5537 16.8008 21.5537ZM35.5713 8.03809C35.5732 8.04555 35.5761 8.05982 35.5762 8.08398V9.59863C35.5762 9.6228 35.5732 9.63753 35.5742 9.6416C35.5666 9.64397 35.552 9.64648 35.5283 9.64648H31.9043C31.3463 9.64648 30.8584 9.84755 30.4531 10.2441C30.0467 10.6421 29.8408 11.1367 29.8408 11.7139V17.5791C29.8409 18.1394 30.0465 18.6286 30.4512 19.0342C30.856 19.4402 31.3452 19.6455 31.9043 19.6455H35.5283C35.5519 19.6455 35.566 19.6489 35.5713 19.6475C35.5731 19.6549 35.5761 19.6693 35.5762 19.6934V21.208C35.5762 21.2313 35.5734 21.2462 35.5742 21.251C35.5667 21.2531 35.5521 21.2568 35.5283 21.2568H31.9043C30.8894 21.2568 30.0421 20.9016 29.3145 20.1729C28.5868 19.4437 28.2325 18.5954 28.2324 17.5791V11.7139C28.2324 10.6819 28.5865 9.82965 29.3135 9.1084C30.0416 8.38738 30.8894 8.03613 31.9043 8.03613H35.5283C35.5518 8.03613 35.5659 8.03802 35.5713 8.03809ZM79.9004 8.03613C80.9308 8.03624 81.7819 8.38678 82.502 9.10742C83.2218 9.82844 83.5713 10.6816 83.5713 11.7139V14.9346C83.5713 14.9582 83.569 14.9726 83.5693 14.9775C83.5624 14.9794 83.5472 14.9824 83.5234 14.9824H78.3643C78.0385 14.9824 77.8359 15.1854 77.8359 15.5117V17.5781C77.8359 18.1387 78.0415 18.6285 78.4463 19.0342C78.8516 19.4402 79.341 19.6455 79.9004 19.6455H83.5234C83.5472 19.6455 83.5623 19.6491 83.5674 19.6475C83.5692 19.6552 83.5713 19.6693 83.5713 19.6934V21.208C83.5713 21.2314 83.569 21.2465 83.5693 21.251C83.5624 21.2534 83.5472 21.2568 83.5234 21.2568H79.9004C78.8852 21.2568 78.0372 20.9019 77.3096 20.1729C76.5818 19.4438 76.2285 18.5946 76.2285 17.5781V11.7139C76.2285 10.6821 76.5816 9.8294 77.3086 9.1084C78.037 8.38711 78.8849 8.03613 79.9004 8.03613ZM120.384 8.03613C121.415 8.03614 122.266 8.3869 122.985 9.10742C123.705 9.82844 124.055 10.6815 124.055 11.7139V14.9346C124.055 14.958 124.053 14.9726 124.054 14.9775C124.047 14.9794 124.031 14.9824 124.007 14.9824H118.848C118.522 14.9825 118.319 15.1855 118.319 15.5117V17.5781C118.319 18.1385 118.525 18.6285 118.93 19.0342C119.335 19.4402 119.824 19.6455 120.384 19.6455H124.007C124.031 19.6455 124.047 19.6474 124.051 19.6475C124.052 19.6552 124.055 19.6693 124.055 19.6934V21.208C124.055 21.2316 124.053 21.2466 124.054 21.251C124.047 21.2534 124.031 21.2568 124.007 21.2568H120.384C119.369 21.2568 118.521 20.9019 117.794 20.1729C117.066 19.4441 116.712 18.5947 116.712 17.5781V11.7139C116.712 10.6815 117.066 9.82942 117.793 9.1084C118.521 8.38714 119.369 8.03613 120.384 8.03613ZM133.646 3.95215C133.649 3.96028 133.654 3.98076 133.654 4.02246V21.209C133.654 21.2328 133.652 21.2477 133.652 21.252C133.644 21.2541 133.63 21.2568 133.606 21.2568H130.295C129.183 21.2568 128.261 20.871 127.478 20.0781C126.693 19.2846 126.312 18.3568 126.312 17.2422V12.2188C126.312 11.1043 126.693 10.1763 127.478 9.38281C128.262 8.58995 129.183 8.20508 130.295 8.20508H131.52C131.845 8.20488 132.047 8.0019 132.047 7.67578V4.02246C132.047 3.9823 132.053 3.96166 132.053 3.95996C132.058 3.95692 132.078 3.9502 132.119 3.9502H133.606C133.629 3.9502 133.642 3.95213 133.646 3.95215ZM39.4307 3.95508C39.4335 3.96026 39.4404 3.98062 39.4404 4.02148V7.6748C39.4404 8.00124 39.6422 8.20397 39.9678 8.2041H41.1924C42.3034 8.20411 43.2246 8.58959 44.0088 9.38281C44.7828 10.1656 45.1758 11.1195 45.1758 12.2178V21.208C45.1758 21.2317 45.173 21.2467 45.1738 21.251C45.1661 21.2531 45.152 21.2559 45.1279 21.2559H43.6396L43.5732 21.25C43.5714 21.2445 43.5684 21.2314 43.5684 21.208V12.2178C43.5683 11.5629 43.3348 10.993 42.875 10.5234C42.4136 10.053 41.8476 9.81446 41.1924 9.81445H39.9678C39.6422 9.81459 39.4404 10.0173 39.4404 10.3438V21.208C39.4404 21.2307 39.4377 21.2436 39.4385 21.2471C39.4307 21.2497 39.4096 21.2559 39.3682 21.2559H37.8799C37.8559 21.2558 37.8414 21.2528 37.8369 21.2539C37.835 21.247 37.832 21.2317 37.832 21.208V4.02148C37.832 3.978 37.839 3.95731 37.8379 3.9541C37.8434 3.95248 37.8563 3.94926 37.8799 3.94922H39.3682C39.4082 3.94922 39.4299 3.95657 39.4307 3.95508ZM54.7695 8.20605C54.7714 8.2135 54.7744 8.22787 54.7744 8.25195V21.208C54.7744 21.2316 54.7718 21.2464 54.7725 21.251C54.7653 21.2531 54.7499 21.2559 54.7256 21.2559H51.4385C50.326 21.2558 49.4003 20.8708 48.6084 20.0771C47.816 19.2837 47.4307 18.3565 47.4307 17.2422V12.2178C47.4308 11.0888 47.8165 10.1584 48.6084 9.37305C49.3894 8.59777 50.3411 8.20413 51.4385 8.2041H54.7256C54.7499 8.2041 54.7653 8.20712 54.7695 8.20605ZM60.7021 8.2041C61.7326 8.2041 62.5839 8.55461 63.3037 9.27539C64.0233 9.99641 64.374 10.8495 64.374 11.8818V21.208C64.374 21.2313 64.3712 21.2464 64.3721 21.251C64.3646 21.2531 64.35 21.2558 64.3262 21.2559H62.8379C62.7984 21.2559 62.7776 21.25 62.7715 21.25L62.7705 21.251C62.7686 21.2456 62.7666 21.2318 62.7666 21.208V11.8818C62.7666 11.3059 62.5649 10.812 62.168 10.4141C61.7707 10.0164 61.2773 9.81445 60.7021 9.81445H59.1182C58.8265 9.8145 58.6379 10.0031 58.6377 10.2949V21.208C58.6377 21.2303 58.6353 21.2433 58.6357 21.2471C58.6278 21.2498 58.6075 21.2558 58.5664 21.2559H57.0781C57.0541 21.2558 57.04 21.2529 57.0352 21.2539C57.033 21.247 57.0303 21.2318 57.0303 21.208V8.2041H60.7021ZM70.3008 8.2041C71.3314 8.2041 72.1835 8.55437 72.9033 9.27539C73.6232 9.9964 73.9727 10.8495 73.9727 11.8818V21.208C73.9727 21.2313 73.9703 21.2463 73.9707 21.251C73.9638 21.2531 73.9488 21.2559 73.9248 21.2559H72.4365C72.3973 21.2558 72.3769 21.2501 72.3711 21.25L72.3691 21.251C72.3673 21.2456 72.3652 21.2318 72.3652 21.208V11.8818C72.3652 11.3059 72.1635 10.812 71.7666 10.4141C71.3693 10.0164 70.8762 9.81445 70.3008 9.81445H68.7168C68.4256 9.81461 68.2375 10.0032 68.2373 10.2949V21.208C68.2373 21.2305 68.2349 21.2434 68.2354 21.2471C68.2276 21.2497 68.2064 21.2559 68.165 21.2559H66.6768C66.653 21.2558 66.6383 21.2528 66.6338 21.2539C66.6319 21.2469 66.6299 21.2317 66.6299 21.208V8.2041H70.3008ZM87.3789 3.95117C87.3819 3.95953 87.3877 3.97982 87.3877 4.02148V21.208C87.3877 21.2319 87.3847 21.247 87.3857 21.251C87.3782 21.2533 87.3636 21.2558 87.3398 21.2559H85.8516C85.8309 21.2558 85.8172 21.2539 85.8105 21.2539H85.8086C85.8067 21.247 85.8047 21.2319 85.8047 21.208V4.02148C85.8047 3.978 85.8106 3.95731 85.8096 3.9541C85.815 3.95223 85.828 3.94924 85.8516 3.94922H87.3398C87.3629 3.94924 87.3754 3.953 87.3789 3.95117ZM97.3135 3.95117C97.3164 3.95956 97.3223 3.97991 97.3223 4.02148V21.208C97.3222 21.2319 97.3193 21.247 97.3203 21.251C97.3126 21.2534 97.2982 21.2558 97.2744 21.2559H95.7861C95.7654 21.2559 95.7515 21.2539 95.7451 21.2539H95.7432C95.7413 21.247 95.7383 21.2319 95.7383 21.208V6.1123C95.7381 5.77105 95.5264 5.55957 95.1855 5.55957H93.8184C93.7947 5.55955 93.7805 5.55674 93.7754 5.55762C93.7733 5.55011 93.7705 5.53584 93.7705 5.51172V4.02148C93.7705 3.97803 93.7774 3.95732 93.7764 3.9541C93.782 3.95223 93.7949 3.94924 93.8184 3.94922H97.2744C97.2974 3.94926 97.31 3.95303 97.3135 3.95117ZM137.945 8.20605C137.947 8.21378 137.949 8.22788 137.949 8.25195V21.208C137.949 21.2313 137.947 21.2463 137.947 21.251C137.94 21.2531 137.926 21.2558 137.902 21.2559H136.414C136.393 21.2559 136.38 21.2539 136.373 21.2539H136.37C136.368 21.2469 136.366 21.2316 136.366 21.208V8.25195C136.366 8.22785 136.368 8.21377 136.367 8.20898C136.375 8.20685 136.39 8.2041 136.414 8.2041H137.902C137.926 8.20413 137.94 8.20659 137.945 8.20605ZM147.521 8.20605C147.523 8.2135 147.524 8.22787 147.524 8.25195V21.208C147.524 21.2315 147.523 21.2463 147.523 21.251C147.516 21.2531 147.501 21.2558 147.478 21.2559H144.189C143.077 21.2558 142.152 20.8708 141.359 20.0771C140.568 19.2837 140.183 18.3565 140.183 17.2422V12.2178C140.183 11.0888 140.568 10.1584 141.359 9.37305C142.14 8.59777 143.092 8.20413 144.189 8.2041H147.478C147.501 8.20412 147.515 8.20631 147.521 8.20605ZM111.457 7.46289C112.342 7.46289 113.071 7.76197 113.687 8.37793C114.301 8.99352 114.601 9.72461 114.601 10.6113V20.4668C114.601 20.4903 114.598 20.5053 114.599 20.5098C114.591 20.5119 114.576 20.5146 114.553 20.5146H113.041C113.02 20.5146 113.006 20.5127 113 20.5127H112.997C112.995 20.5057 112.993 20.4906 112.993 20.4668V10.6113C112.993 10.1787 112.844 9.81002 112.551 9.51562C112.257 9.22207 111.888 9.07324 111.457 9.07324H110.377C110.085 9.07328 109.897 9.26178 109.896 9.55371V20.4668C109.896 20.4905 109.894 20.5055 109.896 20.5098C109.888 20.5119 109.873 20.5146 109.85 20.5146H108.337C108.313 20.5146 108.299 20.5117 108.294 20.5127C108.292 20.5057 108.289 20.4906 108.289 20.4668V9.55371C108.289 9.26188 108.101 9.0734 107.81 9.07324H105.674C105.383 9.07324 105.193 9.26175 105.193 9.55371V20.4668C105.193 20.4904 105.191 20.5054 105.191 20.5098C105.184 20.5119 105.169 20.5146 105.146 20.5146H103.634C103.61 20.5146 103.595 20.5116 103.59 20.5127C103.588 20.5057 103.586 20.4906 103.586 20.4668V7.46289H111.457ZM130.295 9.81543C129.639 9.81543 129.073 10.054 128.611 10.5244C128.152 10.9937 127.919 11.5636 127.919 12.2188V17.2422C127.919 17.8985 128.152 18.4692 128.611 18.9375C129.072 19.4078 129.639 19.6465 130.295 19.6465H131.519C131.844 19.6465 132.047 19.4435 132.047 19.1172V10.3682C132.047 10.0269 131.844 9.81543 131.519 9.81543H130.295ZM51.4395 9.81445C50.7847 9.81445 50.2154 10.0483 49.7471 10.5088C49.2775 10.9701 49.0391 11.545 49.0391 12.2178V17.2412C49.0391 17.898 49.2762 18.4699 49.7451 18.9385C50.2134 19.4079 50.7841 19.6455 51.4395 19.6455H52.6387C52.9647 19.6455 53.167 19.4425 53.167 19.1162V10.3438C53.167 10.0175 52.9647 9.81445 52.6387 9.81445H51.4395ZM144.189 9.81445C143.535 9.81452 142.966 10.0483 142.497 10.5088C142.028 10.97 141.79 11.5452 141.79 12.2178V17.2412C141.79 17.898 142.027 18.4699 142.496 18.9385C142.964 19.408 143.534 19.6454 144.189 19.6455H145.39C145.715 19.6455 145.918 19.4425 145.918 19.1162V10.3438C145.918 10.0175 145.715 9.81445 145.39 9.81445H144.189ZM3.05957 11.6025C2.65589 12.9298 2.54228 14.3607 2.71582 15.7451C2.67948 14.9928 2.7204 14.226 2.84473 13.4678C2.8609 13.3691 2.88058 13.2708 2.89941 13.1729C2.91289 12.6455 2.96704 12.1194 3.05957 11.6025ZM11.6826 5.49121C9.072 5.59748 6.31135 7.05453 4.64648 9.73047C3.97652 10.7693 3.51154 11.971 3.26855 13.2227C3.25546 13.8103 3.29584 14.3988 3.38477 14.9775C3.37197 13.9164 3.54295 12.8006 3.8916 11.7275C4.39114 10.1904 5.21479 8.88045 6.22266 8.01367L6.21777 8.00684C6.35125 7.89615 6.49292 7.78901 6.63867 7.68848L6.64355 7.69629C7.06888 7.40839 7.51431 7.17391 7.9707 6.99219C8.37758 6.7358 8.8146 6.52998 9.2832 6.37012C9.70136 6.20122 10.1308 6.0593 10.5664 5.94824C11.3087 5.75382 12.0975 5.65919 12.9746 5.65918C13.1886 5.65918 13.4053 5.66565 13.6318 5.67676C13.3892 5.61826 13.1421 5.57354 12.8916 5.54199C12.5252 5.50881 12.1539 5.49023 11.7803 5.49023C11.7477 5.49024 11.7152 5.49094 11.6826 5.49121ZM79.9004 9.64648C79.3422 9.64648 78.8533 9.84695 78.4482 10.2432C78.0422 10.6413 77.8361 11.1362 77.8359 11.7129V12.8438C77.8361 13.1697 78.0387 13.372 78.3643 13.3721H81.4365C81.7621 13.3719 81.9637 13.1696 81.9639 12.8438V11.7129C81.9638 11.1372 81.7631 10.6436 81.3662 10.2461C80.9687 9.84845 80.4757 9.64653 79.9004 9.64648ZM120.384 9.64648C119.826 9.64652 119.337 9.84711 118.933 10.2432C118.526 10.6413 118.32 11.1362 118.32 11.7129V12.8438C118.32 13.1696 118.522 13.3719 118.848 13.3721H121.92C122.245 13.372 122.447 13.1697 122.447 12.8438V11.7129C122.447 11.1371 122.246 10.6442 121.85 10.2461C121.452 9.84841 120.959 9.64648 120.384 9.64648ZM11.0693 2.52344C10.5735 2.52344 10.072 2.56692 9.57227 2.6543C7.89319 3.21805 6.06398 4.46582 4.03711 6.43066L4.03125 6.43652L4.02539 6.44141C3.45328 6.9507 2.93691 7.54364 2.4834 8.20215C1.96998 9.15689 1.5774 10.2138 1.3252 11.335C1.25771 11.6995 1.20652 12.0681 1.17285 12.4395C1.70318 10.092 2.84895 7.89365 4.42383 6.21875C6.66536 3.76247 9.4308 2.84802 12.1377 2.84668H12.1396C13.3226 2.84668 14.4749 3.29302 15.1602 3.64062C15.0201 3.53609 14.8779 3.43582 14.7393 3.34277C13.5562 2.79905 12.3259 2.52344 11.0693 2.52344ZM7.3584 6.48633C6.67182 6.83212 6.00951 7.27769 5.39062 7.84375C4.97743 8.21467 4.61121 8.62898 4.29102 9.07617C3.98918 9.66399 3.75437 10.2894 3.58594 10.9355C3.80003 10.4415 4.04986 9.97059 4.33301 9.53125C5.10396 8.29292 6.14369 7.24866 7.3584 6.48633ZM12.2471 6.16309C11.6558 6.16309 11.0513 6.23507 10.4492 6.36719C10.1066 6.46288 9.76229 6.57739 9.42188 6.71484C9.80285 6.64297 10.2359 6.56839 10.5039 6.56836C11.0419 6.56836 11.6159 6.58687 12.21 6.68555C12.9038 6.80107 13.5902 6.95103 14.2539 7.0957L14.3379 7.11328L14.3418 7.11426L14.3447 7.11523L14.4141 7.13086C14.7116 7.19955 14.8762 7.23824 15.0547 7.23828C15.167 7.23828 15.2936 7.2232 15.4648 7.19141C15.7538 7.13192 15.8059 6.99958 15.8281 6.94238C15.8643 6.84884 15.874 6.72904 15.8633 6.59277C15.8259 6.57414 15.7878 6.55498 15.749 6.53516C15.6164 6.60923 15.4542 6.65327 15.2666 6.65332C15.1633 6.65332 15.0521 6.64039 14.9346 6.6123C14.3445 6.44142 13.7405 6.30005 13.1211 6.21875C12.8342 6.18106 12.5422 6.1631 12.2471 6.16309ZM12.4463 4.45801C10.232 4.45801 7.89028 5.10592 6.02734 6.80469C5.94413 6.87918 5.86266 6.95531 5.7832 7.0332C6.55883 6.44315 7.41797 5.98285 8.34863 5.66406C9.3797 5.31054 10.5014 5.12769 11.6836 5.11816C11.7856 5.11425 11.8875 5.11231 11.9893 5.1123C12.299 5.1123 12.6049 5.13151 12.9053 5.16797C13.2874 5.20209 13.6731 5.25327 14.0596 5.32129C14.1587 5.33863 14.2394 5.3524 14.2705 5.35645L14.2744 5.35742H14.2773C14.7304 5.42502 15.126 5.46 15.4541 5.46484C15.4069 5.38739 15.3565 5.3111 15.3027 5.2373C15.1565 5.03956 14.9889 4.86048 14.8037 4.7002C14.7155 4.68294 14.6234 4.66742 14.5293 4.64746C13.8614 4.52637 13.1606 4.45802 12.4463 4.45801ZM20.291 0C20.3805 0 20.4541 0.0734935 20.4541 0.163086V6.68848C20.4541 6.77804 20.3804 6.85156 20.291 6.85156H19.6133C19.5239 6.85156 19.4502 6.77804 19.4502 6.68848V1.21973C19.4502 1.13048 19.3774 1.05676 19.2881 1.05664H18.6143C18.5249 1.05653 18.4521 0.98308 18.4521 0.893555V0.163086C18.4521 0.0735607 18.5249 0.000109905 18.6143 0H20.291ZM16.8613 5.97266C16.7256 6.04085 16.5479 6.09392 16.3457 6.12988C16.3713 6.22687 16.3899 6.32331 16.4033 6.41797C16.7044 6.49704 16.8162 6.43296 16.8408 6.39648C16.9154 6.28636 16.8966 6.11417 16.8926 6.08301C16.8843 6.04564 16.872 6.00937 16.8613 5.97266ZM14.126 6.08398C14.4099 6.14725 14.7049 6.22227 15.0137 6.31152C15.1018 6.33211 15.1871 6.34277 15.2666 6.34277C15.2982 6.34277 15.3286 6.33828 15.3584 6.33496C15.2406 6.275 15.1153 6.21557 14.9834 6.1543C14.6334 6.12301 14.3319 6.09956 14.126 6.08398ZM16.6846 5.54395C16.6032 5.63099 16.4672 5.71277 16.2383 5.76855C16.4351 5.73679 16.5999 5.69198 16.709 5.63379C16.7143 5.63093 16.7192 5.62703 16.7246 5.62402C16.7113 5.59729 16.6988 5.57014 16.6846 5.54395ZM137.94 3.95117C137.944 3.95949 137.949 3.9797 137.949 4.02148V5.51172C137.949 5.55493 137.943 5.57563 137.944 5.5791C137.939 5.58096 137.926 5.58395 137.902 5.58398H136.414C136.394 5.58398 136.382 5.58112 136.377 5.58105L136.375 5.58203C136.372 5.57429 136.366 5.55333 136.366 5.51172V4.02148C136.366 3.978 136.372 3.95731 136.371 3.9541C136.377 3.95223 136.39 3.94922 136.414 3.94922H137.902C137.924 3.94925 137.937 3.95158 137.94 3.95117ZM15.8232 4.85645C15.9164 4.99553 16.0107 5.16868 16.0752 5.42285C16.2705 5.38573 16.3594 5.33476 16.3955 5.30566C16.4328 5.27552 16.4356 5.26106 16.4404 5.19727V5.18945C16.4409 5.18308 16.4393 5.17591 16.4395 5.16797C16.362 5.06608 16.2802 4.97133 16.1992 4.88379C16.084 4.87895 15.9591 4.87023 15.8232 4.85645ZM16.8662 4.85645C16.8337 4.8619 16.7994 4.8649 16.7637 4.86914C16.7829 4.92975 16.7963 4.98519 16.8037 5.03613C16.877 5.1392 16.9444 5.24918 17.0068 5.36328C17.0124 5.35032 17.0183 5.33773 17.0215 5.32422C17.0486 5.20869 16.9935 5.04845 16.8662 4.85645ZM12.1377 3.21875C10.7513 3.21955 9.44209 3.46703 8.24707 3.95605C7.79412 4.14137 7.35678 4.36265 6.93652 4.61719C8.33466 3.91175 9.8265 3.54877 11.2783 3.30176C11.5757 3.25149 11.878 3.22462 12.1797 3.22461C12.3088 3.22461 12.4379 3.23071 12.5664 3.24023C12.4245 3.22703 12.2819 3.21875 12.1396 3.21875H12.1377ZM13.7861 3.4873C13.958 3.54637 14.126 3.61553 14.2891 3.69531C14.7847 3.84955 15.2055 4.08565 15.5195 4.44434C15.6051 4.4565 15.6878 4.46649 15.7676 4.47559C15.6155 4.34824 15.5107 4.27405 15.5068 4.27148L15.4951 4.26367C15.2604 4.09207 14.6012 3.73573 13.7861 3.4873ZM13.6445 2.33105C13.9386 2.44853 14.2322 2.59051 14.5225 2.76367C14.6479 2.83847 14.7853 2.92572 14.9287 3.02148C15.2551 3.17256 15.572 3.33902 15.877 3.52051C15.8952 3.53151 16.2855 3.76854 16.5293 3.97656C16.7518 4.15229 16.9109 4.32129 17.0107 4.43555C17.0914 4.40451 17.1463 4.36626 17.1699 4.32031L17.1768 4.30664C17.2119 4.21478 17.1716 3.96335 16.7725 3.63086L16.7598 3.62012L16.748 3.6084C16.7312 3.59182 16.6681 3.54198 16.6152 3.50293C15.7736 2.90703 14.7639 2.51106 13.6445 2.33105Z" fill="#ffffff"/>
</svg>
