<?xml version="1.0"?>
<svg xmlns="http://www.w3.org/2000/svg" width="131" height="27" viewBox="0 0 131 27" fill="#ffffff">
<path fill-rule="evenodd" clip-rule="evenodd" d="M18.6201 0.00126039C18.6201 4.32002 22.1285 7.82844 26.4473 7.82844V13.3535C19.0771 13.3535 13.095 7.37143 13.095 0.00126039H18.6201Z" fill="#ffffff"/>
<path fill-rule="evenodd" clip-rule="evenodd" d="M5.52633 0.0364166C5.52633 4.35518 9.03476 7.8636 13.3535 7.8636V13.3887C5.98334 13.3887 0.00126039 7.40659 0.00126039 0.0364166H5.52633Z" fill="#ffffff"/>
<path fill-rule="evenodd" clip-rule="evenodd" d="M21.0948 26.3249C21.0948 22.0062 17.5863 18.4977 13.2676 18.4977V12.9727C20.6378 12.9727 26.6198 18.9547 26.6198 26.3249H21.0948Z" fill="#ffffff"/>
<path fill-rule="evenodd" clip-rule="evenodd" d="M5.52633 13.1302C5.52633 17.4489 9.03476 20.9574 13.3535 20.9574V26.4824C5.98334 26.4824 0.00126039 20.5003 0.00126039 13.1302H5.52633Z" fill="#ffffff"/>
<path d="M130.136 15.9918H130.229L130.323 18.3245C129.786 18.5345 129.32 18.6744 128.433 18.6744C125.984 18.6744 124.421 17.2748 124.444 14.3823L124.468 9.29701H122.578V6.91766H124.468L124.491 3.55859H127.267L127.244 6.91766H130.253V9.29701H127.244L127.22 14.2423C127.22 15.7352 127.897 16.2251 129.086 16.2251C129.553 16.2251 129.903 16.1085 130.136 15.9918Z" fill="#ffffff"/>
<path d="M113.251 18.4168H110.475V6.91664H113.227V8.57285H113.46C114.137 7.52314 115.163 6.63672 117.006 6.63672C119.712 6.63672 121.462 8.82945 121.462 11.5587V18.4168H118.709V11.8619C118.709 10.2757 117.799 9.17935 116.19 9.17935C114.58 9.17935 113.251 10.299 113.251 11.9086V18.4168Z" fill="#ffffff"/>
<path d="M109.019 12.2352V13.3315H100.178C100.318 15.1277 101.554 16.294 103.234 16.294C104.657 16.294 105.683 15.5243 106.033 14.4046L108.925 14.4979C108.389 17.1105 106.056 18.6967 103.257 18.6967C99.9213 18.6967 97.332 16.2241 97.332 12.6784V12.6317C97.332 9.08604 99.9446 6.63672 103.28 6.63672C106.22 6.63672 109.019 8.54952 109.019 12.2352ZM103.257 9.01606C101.601 9.01606 100.458 10.0891 100.201 11.5587H106.103C105.963 9.97246 104.727 9.01606 103.257 9.01606Z" fill="#ffffff"/>
<path d="M92.0982 18.4171H89.3223V6.91697H92.0049V8.7598H92.2148C92.6347 7.85005 93.5678 6.70703 95.1307 6.70703C95.7605 6.70703 96.227 6.82367 96.7635 7.03361L96.6936 9.80951H96.4836C95.9471 9.57624 95.3406 9.38962 94.7108 9.38962C93.2179 9.38962 92.0982 10.8126 92.0982 12.3055V18.4171Z" fill="#ffffff"/>
<path d="M87.8665 12.2352V13.3315H79.0256C79.1655 15.1277 80.4019 16.294 82.0814 16.294C83.5043 16.294 84.5307 15.5243 84.8806 14.4046L87.7731 14.4979C87.2366 17.1105 84.9039 18.6967 82.1047 18.6967C78.769 18.6967 76.1797 16.2241 76.1797 12.6784V12.6317C76.1797 9.08604 78.7923 6.63672 82.128 6.63672C85.0672 6.63672 87.8665 8.54952 87.8665 12.2352ZM82.1047 9.01606C80.4485 9.01606 79.3055 10.0891 79.0489 11.5587H84.9506C84.8106 9.97246 83.5743 9.01606 82.1047 9.01606Z" fill="#ffffff"/>
<path d="M66.5728 18.4176H63.7969V1.85547H66.5728V8.57361H66.8294C67.4592 7.5239 68.4856 6.63748 70.3517 6.63748C73.0576 6.63748 74.7838 8.83021 74.7838 11.5595V18.4176H72.0313V11.8627C72.0313 10.2765 71.1448 9.18011 69.5353 9.18011C67.9024 9.18011 66.5728 10.2998 66.5728 11.9094V18.4176Z" fill="#ffffff"/>
<path d="M56.3274 18.6967C53.0383 18.6967 50.4023 16.2241 50.4023 12.6784V12.6317C50.4023 9.08604 53.0383 6.63672 56.3274 6.63672C59.6398 6.63672 62.2757 9.08604 62.2757 12.6317V12.6784C62.2757 16.2241 59.6398 18.6967 56.3274 18.6967ZM56.3274 16.2474C58.1469 16.2474 59.4532 14.7545 59.4532 12.6784V12.6317C59.4532 10.5323 58.1469 9.08604 56.3274 9.08604C54.5079 9.08604 53.2249 10.5323 53.2249 12.6317V12.6784C53.2249 14.7545 54.5079 16.2474 56.3274 16.2474Z" fill="#ffffff"/>
<path d="M43.8838 18.6967C40.548 18.6967 37.9121 16.2241 37.9121 12.6784V12.6317C37.9121 9.08604 40.548 6.63672 43.8838 6.63672C46.683 6.63672 49.0857 8.24627 49.5755 11.4187L46.7063 11.4887C46.3798 9.94914 45.2367 9.08604 43.8605 9.08604C42.0643 9.08604 40.7347 10.5556 40.7347 12.6317V12.6784C40.7347 14.7545 42.0643 16.2474 43.8605 16.2474C45.2367 16.2474 46.3798 15.361 46.7063 13.8214L49.5755 13.8914C49.0857 17.0638 46.683 18.6967 43.8838 18.6967Z" fill="#ffffff"/>
</svg>
