<?xml version="1.0"?>
<svg xmlns="http://www.w3.org/2000/svg" width="48" height="48" viewBox="0 0 48 48" fill="none">
<rect x="-0.75" y="-0.75" width="46.5" height="46.5" rx="23.25" transform="matrix(4.37114e-08 -1 -1 -4.37114e-08 46.5 46.5)" fill="#F6F8F9"/>
<rect x="-0.75" y="-0.75" width="46.5" height="46.5" rx="23.25" transform="matrix(4.37114e-08 -1 -1 -4.37114e-08 46.5 46.5)" stroke="#628292" stroke-width="1.5"/>
<g clip-path="url(#clip0_4559_15243)">
<path d="M20.759 16.3253C19.5053 16.8555 18.4005 17.6847 17.5412 18.7404C16.682 19.7962 16.0945 21.0463 15.83 22.3816C15.5655 23.7169 15.6322 25.0966 16.0242 26.4002C16.4161 27.7038 17.1214 28.8915 18.0784 29.8595C19.0355 30.8275 20.215 31.5463 21.514 31.9531C22.813 32.3599 24.1919 32.4423 25.5301 32.1932C26.8683 31.944 28.1251 31.3707 29.1906 30.5236C30.2561 29.6765 31.0979 28.5812 31.6423 27.3336M24.0007 15.667C25.095 15.667 26.1786 15.8825 27.1897 16.3013C28.2007 16.7201 29.1194 17.3339 29.8932 18.1078C30.667 18.8816 31.2809 19.8002 31.6996 20.8113C32.1184 21.8223 32.334 22.906 32.334 24.0003L24.0007 24.0003L24.0007 15.667Z" stroke="#003650" stroke-width="1.5" stroke-linecap="round" stroke-linejoin="round"/>
</g>
<defs>
<clipPath id="clip0_4559_15243">
<rect width="20" height="20" fill="white" transform="matrix(4.37114e-08 -1 -1 -4.37114e-08 34 34)"/>
</clipPath>
</defs>
</svg>
