<svg width="749" height="764" viewBox="0 0 749 764" fill="none" xmlns="http://www.w3.org/2000/svg">
<rect width="749" height="764" fill="#F8F8F8"/>
<g id="discovery v3">
<rect width="1920" height="17398" transform="translate(-1072 -72)" fill="white"/>
<g id="hero">
<rect width="1920" height="764" transform="translate(-1072)" fill="#003650"/>
<g id="Hero Graphic" clip-path="url(#clip0_4047_10858)">
<g id="Graphic Agilno ">
<g id="Vertical lines">
<line id="Verticals" y1="-0.57563" x2="756.378" y2="-0.57563" transform="matrix(-0.173648 0.984808 1 0 604.611 -212)" stroke="url(#paint0_linear_4047_10858)" stroke-opacity="0.4" stroke-width="1.15126" stroke-dasharray="10.36 10.36"/>
<line id="Verticals_2" y1="-0.57563" x2="584.84" y2="-0.57563" transform="matrix(-0.173648 0.984808 1 0 770.395 -212)" stroke="url(#paint1_linear_4047_10858)" stroke-opacity="0.4" stroke-width="1.15126" stroke-dasharray="10.36 10.36"/>
<line id="Verticals_3" y1="-0.57563" x2="938.277" y2="-0.57563" transform="matrix(-0.173648 0.984808 1 0 416.654 -223.336)" stroke="url(#paint2_linear_4047_10858)" stroke-opacity="0.4" stroke-width="1.15126" stroke-dasharray="10.36 10.36"/>
<line id="Verticals_4" y1="-0.57563" x2="756.378" y2="-0.57563" transform="matrix(-0.173648 0.984808 1 0 580.436 -212)" stroke="url(#paint3_linear_4047_10858)" stroke-opacity="0.4" stroke-width="1.15126" stroke-dasharray="10.36 10.36"/>
<line id="Verticals_5" y1="-0.57563" x2="962.453" y2="-0.57563" transform="matrix(-0.173648 0.984808 1 0 224.697 -212)" stroke="url(#paint4_linear_4047_10858)" stroke-opacity="0.4" stroke-width="1.15126" stroke-dasharray="10.36 10.36"/>
<line id="Verticals_6" y1="-0.57563" x2="962.453" y2="-0.57563" transform="matrix(-0.173648 0.984808 1 0 391.877 -219.934)" stroke="url(#paint5_linear_4047_10858)" stroke-opacity="0.4" stroke-width="1.15126" stroke-dasharray="10.36 10.36"/>
</g>
<g id="Horizontal lines">
<line id="Horizontals" y1="-0.57563" x2="719.537" y2="-0.57563" transform="matrix(1 4.80439e-08 -0.173648 0.984808 -84.502 503.414)" stroke="url(#paint6_linear_4047_10858)" stroke-opacity="0.4" stroke-width="1.15126" stroke-dasharray="10.36 10.36"/>
<line id="Horizontals_2" y1="-0.57563" x2="445.537" y2="-0.57563" transform="matrix(1 0 -0.173648 0.984808 -113.289 666.672)" stroke="url(#paint7_linear_4047_10858)" stroke-opacity="0.4" stroke-width="1.15126" stroke-dasharray="10.36 10.36"/>
<line id="Horizontals_3" y1="-0.57563" x2="815.092" y2="-0.57563" transform="matrix(1 0 -0.173648 0.984808 -53.8184 316.332)" stroke="url(#paint8_linear_4047_10858)" stroke-opacity="0.4" stroke-width="1.15126" stroke-dasharray="10.36 10.36"/>
<line id="Horizontals_4" y1="-0.57563" x2="765.588" y2="-0.57563" transform="matrix(1 4.80439e-08 -0.173648 0.984808 -82.6074 479.602)" stroke="url(#paint9_linear_4047_10858)" stroke-opacity="0.4" stroke-width="1.15126" stroke-dasharray="10.36 10.36"/>
<line id="Horizontals_5" y1="-0.57563" x2="798.974" y2="-0.57563" transform="matrix(1 0 -0.173648 0.984808 -18.5293 129.262)" stroke="url(#paint10_linear_4047_10858)" stroke-opacity="0.4" stroke-width="1.15126" stroke-dasharray="10.36 10.36"/>
<line id="Horizontals_6" y1="-0.57563" x2="805.882" y2="-0.57563" transform="matrix(1 0 -0.173648 0.984808 -47.3184 292.527)" stroke="url(#paint11_linear_4047_10858)" stroke-opacity="0.4" stroke-width="1.15126" stroke-dasharray="10.36 10.36"/>
</g>
<g id="Agilno Tiles">
<g id="Row">
<g id="Blue 8">
<g clip-path="url(#clip1_4047_10858)">
<rect width="166.933" height="166.933" rx="15.5739" transform="matrix(1 0 -0.173648 0.984808 163.66 128.156)" fill="#003650"/>
<g id="Group 633154">
<path id="Rectangle 1 (Stroke)" d="M335.388 162.455L241.56 162.455C218.535 162.455 190.887 179.718 185.348 209.196C185.318 209.354 171.686 297.567 171.686 297.567L154.273 297.567L169.672 210.234C175.826 175.959 208.133 147.973 242.962 147.973L337.941 147.973" stroke="#1585BB" stroke-width="0.690756"/>
<circle id="Ellipse 2" cx="48.3529" cy="48.3529" r="48.0075" transform="matrix(-0.173648 0.984808 -1 -4.30473e-08 289.969 162.141)" stroke="#1585BB" stroke-width="0.690756"/>
<circle id="Ellipse 3" cx="63.4017" cy="63.4017" r="63.0564" transform="matrix(-0.173648 0.984808 -1 -4.30473e-08 307.27 147.406)" stroke="#1585BB" stroke-width="0.690756"/>
</g>
<g id="Frame 1000003606">
<rect width="31" height="70.2101" rx="15.5" transform="matrix(1 0 -0.173648 0.984808 223.139 175.758)" fill="#003650"/>
<path id="Define" d="M222.051 186.591L223.289 179.565L226.245 179.565C226.943 179.565 227.507 179.713 227.938 180.009C228.376 180.298 228.673 180.706 228.828 181.233C228.989 181.759 229.008 182.376 228.883 183.083C228.76 183.783 228.524 184.397 228.177 184.923C227.829 185.45 227.388 185.861 226.854 186.157C226.32 186.446 225.704 186.591 225.006 186.591L222.051 186.591ZM223.536 185.492L225.004 185.492C225.428 185.492 225.814 185.412 226.162 185.251C226.511 185.084 226.805 184.821 227.045 184.461C227.291 184.101 227.465 183.632 227.567 183.054C227.668 182.482 227.658 182.02 227.538 181.666C227.424 181.313 227.221 181.056 226.93 180.895C226.639 180.735 226.281 180.654 225.857 180.654L224.389 180.654L223.536 185.492ZM231.564 186.677C231.035 186.677 230.598 186.568 230.251 186.35C229.911 186.131 229.672 185.826 229.532 185.434C229.399 185.042 229.379 184.583 229.472 184.056C229.568 183.51 229.752 183.038 230.025 182.64C230.305 182.235 230.65 181.923 231.061 181.705C231.479 181.48 231.942 181.367 232.451 181.367C233.045 181.367 233.508 181.496 233.841 181.753C234.175 182.003 234.385 182.35 234.47 182.794C234.562 183.231 234.53 183.728 234.373 184.287L230.635 184.287C230.552 184.756 230.612 185.119 230.814 185.376C231.018 185.627 231.322 185.752 231.727 185.752C232.04 185.752 232.316 185.685 232.555 185.55C232.795 185.409 232.965 185.222 233.065 184.991L234.229 184.991C234.124 185.325 233.942 185.621 233.681 185.878C233.422 186.128 233.11 186.324 232.746 186.465C232.382 186.607 231.988 186.677 231.564 186.677ZM232.288 182.293C231.922 182.293 231.607 182.399 231.341 182.611C231.075 182.823 230.891 183.112 230.787 183.478L233.322 183.478C233.373 183.073 233.299 182.774 233.098 182.582C232.897 182.389 232.627 182.293 232.288 182.293ZM235.378 186.591L236.11 182.437L235.21 182.437L235.381 181.464L236.282 181.464L236.397 180.808C236.469 180.404 236.647 180.095 236.932 179.883C237.224 179.671 237.595 179.565 238.045 179.565L239.033 179.565L238.886 180.404L238.24 180.404C238.024 180.404 237.869 180.452 237.774 180.548C237.686 180.638 237.629 180.757 237.603 180.905L237.505 181.464L238.601 181.464L238.429 182.437L237.333 182.437L236.601 186.591L235.378 186.591ZM239.553 180.741L239.761 179.565L240.984 179.565L240.776 180.741L239.553 180.741ZM238.522 186.591L239.426 181.464L240.649 181.464L239.745 186.591L238.522 186.591ZM241.064 186.591L241.968 181.464L243.142 181.464L243.019 182.437L243.078 182.437C243.29 182.084 243.566 181.817 243.904 181.637C244.242 181.457 244.601 181.367 244.979 181.367C245.332 181.367 245.635 181.438 245.891 181.579C246.147 181.721 246.325 181.949 246.426 182.264C246.534 182.578 246.542 182.996 246.45 183.516L245.908 186.591L244.684 186.591L245.181 183.777C245.266 183.295 245.24 182.938 245.105 182.707C244.976 182.476 244.719 182.36 244.334 182.36C243.923 182.36 243.579 182.498 243.302 182.774C243.025 183.051 242.853 183.382 242.785 183.767L242.287 186.591L241.064 186.591ZM249.386 186.677C248.858 186.677 248.42 186.568 248.074 186.35C247.734 186.131 247.494 185.826 247.355 185.434C247.222 185.042 247.201 184.583 247.294 184.056C247.391 183.51 247.575 183.038 247.847 182.64C248.128 182.235 248.473 181.923 248.883 181.705C249.301 181.48 249.765 181.367 250.274 181.367C250.867 181.367 251.331 181.496 251.664 181.753C251.998 182.003 252.207 182.35 252.292 182.794C252.385 183.231 252.353 183.728 252.195 184.287L248.457 184.287C248.374 184.756 248.434 185.119 248.637 185.376C248.841 185.627 249.145 185.752 249.549 185.752C249.862 185.752 250.139 185.685 250.378 185.55C250.618 185.409 250.788 185.222 250.887 184.991L252.052 184.991C251.947 185.325 251.764 185.621 251.504 185.878C251.244 186.128 250.933 186.324 250.568 186.465C250.204 186.607 249.81 186.677 249.386 186.677ZM250.11 182.293C249.745 182.293 249.43 182.399 249.164 182.611C248.898 182.823 248.713 183.112 248.61 183.478L251.144 183.478C251.196 183.073 251.121 182.774 250.921 182.582C250.72 182.389 250.45 182.293 250.11 182.293Z" fill="white"/>
<path id="&#226;&#134;&#146;" d="M235.982 193.732L235.248 197.895L236.983 196.825L236.821 197.741L234.595 199.099L232.848 197.741L233.01 196.825L234.367 197.895L235.101 193.732L235.982 193.732Z" fill="white"/>
<path id="Test" d="M224.196 213.778L225.239 207.861L223.067 207.861L223.262 206.753L228.938 206.753L228.743 207.861L226.531 207.861L225.488 213.778L224.196 213.778ZM229.671 213.865C229.143 213.865 228.705 213.756 228.359 213.537C228.019 213.319 227.779 213.014 227.64 212.622C227.507 212.23 227.486 211.77 227.579 211.244C227.676 210.698 227.86 210.225 228.133 209.827C228.413 209.422 228.758 209.111 229.168 208.892C229.586 208.667 230.05 208.555 230.559 208.555C231.152 208.555 231.616 208.683 231.949 208.94C232.283 209.191 232.492 209.538 232.577 209.981C232.67 210.418 232.638 210.916 232.48 211.475L228.742 211.475C228.66 211.944 228.719 212.307 228.922 212.564C229.126 212.814 229.43 212.94 229.834 212.94C230.148 212.94 230.424 212.872 230.663 212.737C230.903 212.596 231.073 212.41 231.172 212.178L232.337 212.178C232.232 212.513 232.05 212.808 231.789 213.065C231.53 213.316 231.218 213.512 230.854 213.653C230.489 213.794 230.095 213.865 229.671 213.865ZM230.395 209.48C230.03 209.48 229.715 209.586 229.449 209.798C229.183 210.01 228.998 210.299 228.895 210.665L231.429 210.665C231.481 210.261 231.407 209.962 231.206 209.769C231.005 209.576 230.735 209.48 230.395 209.48ZM235.093 213.875C234.356 213.875 233.812 213.717 233.464 213.402C233.121 213.088 232.998 212.676 233.094 212.169L234.298 212.169C234.25 212.477 234.318 212.702 234.501 212.843C234.693 212.978 234.949 213.046 235.268 213.046C235.601 213.046 235.862 212.988 236.052 212.872C236.249 212.757 236.365 212.596 236.401 212.39C236.448 212.127 236.384 211.954 236.209 211.87C236.042 211.787 235.76 211.716 235.366 211.658C234.985 211.6 234.649 211.523 234.36 211.427C234.07 211.33 233.852 211.183 233.704 210.983C233.564 210.778 233.526 210.495 233.589 210.135C233.68 209.621 233.951 209.23 234.403 208.96C234.855 208.69 235.408 208.555 236.06 208.555C236.719 208.555 237.213 208.696 237.541 208.979C237.876 209.262 238.002 209.657 237.919 210.164L236.726 210.164C236.765 209.901 236.709 209.705 236.555 209.576C236.402 209.448 236.178 209.384 235.885 209.384C235.578 209.384 235.333 209.442 235.149 209.557C234.972 209.673 234.868 209.824 234.835 210.01C234.796 210.229 234.863 210.386 235.035 210.482C235.214 210.579 235.504 210.653 235.906 210.704C236.264 210.749 236.587 210.82 236.877 210.916C237.168 211.006 237.386 211.154 237.533 211.359C237.685 211.565 237.726 211.87 237.655 212.275C237.559 212.821 237.282 213.226 236.824 213.489C236.374 213.746 235.797 213.875 235.093 213.875ZM240.05 213.778C239.568 213.778 239.259 213.675 239.126 213.47C238.993 213.264 238.958 212.978 239.023 212.612L239.55 209.625L238.591 209.625L238.762 208.651L239.721 208.651L239.976 207.206L241.212 207.08L240.935 208.651L242.041 208.651L241.869 209.625L240.763 209.625L240.275 212.39C240.247 212.551 240.264 212.66 240.325 212.718C240.388 212.77 240.494 212.795 240.644 212.795L241.31 212.795L241.137 213.778L240.05 213.778Z" fill="white"/>
<path id="&#226;&#134;&#146;_2" d="M231.187 220.919L230.453 225.082L232.188 224.013L232.026 224.928L229.8 226.287L228.053 224.928L228.215 224.013L229.572 225.082L230.306 220.919L231.187 220.919Z" fill="white"/>
<path id="Iterate" d="M212.463 240.962L213.701 233.936L214.993 233.936L213.754 240.962L212.463 240.962ZM216.835 240.962C216.352 240.962 216.044 240.859 215.911 240.653C215.778 240.448 215.743 240.162 215.808 239.796L216.335 236.808L215.376 236.808L215.547 235.835L216.506 235.835L216.761 234.389L217.997 234.264L217.72 235.835L218.825 235.835L218.654 236.808L217.548 236.808L217.06 239.574C217.032 239.735 217.049 239.844 217.11 239.902C217.173 239.953 217.279 239.979 217.429 239.979L218.095 239.979L217.921 240.962L216.835 240.962ZM220.934 241.049C220.406 241.049 219.968 240.939 219.622 240.721C219.282 240.502 219.042 240.197 218.903 239.805C218.769 239.413 218.749 238.954 218.842 238.427C218.938 237.881 219.123 237.409 219.395 237.011C219.675 236.606 220.021 236.294 220.431 236.076C220.849 235.851 221.313 235.739 221.821 235.739C222.415 235.739 222.878 235.867 223.211 236.124C223.546 236.375 223.755 236.721 223.84 237.165C223.933 237.602 223.9 238.1 223.743 238.659L220.005 238.659C219.922 239.128 219.982 239.491 220.185 239.748C220.389 239.998 220.693 240.123 221.097 240.123C221.41 240.123 221.686 240.056 221.925 239.921C222.166 239.78 222.336 239.593 222.435 239.362L223.6 239.362C223.495 239.696 223.312 239.992 223.052 240.249C222.792 240.499 222.48 240.695 222.116 240.837C221.752 240.978 221.358 241.049 220.934 241.049ZM221.658 236.664C221.293 236.664 220.977 236.77 220.712 236.982C220.446 237.194 220.261 237.483 220.158 237.849L222.692 237.849C222.744 237.444 222.669 237.146 222.468 236.953C222.268 236.76 221.997 236.664 221.658 236.664ZM224.347 240.962L225.251 235.835L226.357 235.835L226.264 236.693L226.303 236.693C226.478 236.365 226.709 236.13 226.995 235.989C227.288 235.841 227.605 235.767 227.944 235.767L228.247 235.767L228.047 236.905C228.008 236.905 227.959 236.905 227.9 236.905C227.849 236.898 227.791 236.895 227.726 236.895C227.249 236.895 226.874 237.007 226.6 237.232C226.333 237.451 226.154 237.759 226.065 238.157L225.57 240.962L224.347 240.962ZM229.763 241.049C229.137 241.049 228.671 240.824 228.365 240.374C228.059 239.924 227.983 239.266 228.136 238.398C228.29 237.525 228.599 236.863 229.063 236.413C229.528 235.963 230.073 235.739 230.699 235.739C231.123 235.739 231.468 235.835 231.734 236.028C232.002 236.214 232.169 236.465 232.238 236.779L232.306 236.779L232.522 235.835L233.696 235.835L232.792 240.962L231.569 240.962L231.737 240.008L231.669 240.008C231.489 240.323 231.232 240.576 230.898 240.769C230.565 240.955 230.187 241.049 229.763 241.049ZM230.396 240.066C230.69 240.066 230.943 239.998 231.156 239.863C231.375 239.728 231.553 239.555 231.688 239.343C231.824 239.124 231.914 238.896 231.955 238.659L232.049 238.129C232.092 237.884 232.083 237.656 232.023 237.444C231.963 237.226 231.847 237.052 231.674 236.924C231.509 236.789 231.279 236.721 230.986 236.721C230.594 236.721 230.254 236.86 229.963 237.136C229.673 237.412 229.478 237.833 229.379 238.398C229.28 238.957 229.327 239.375 229.52 239.651C229.713 239.927 230.005 240.066 230.396 240.066ZM235.719 240.962C235.236 240.962 234.928 240.859 234.794 240.653C234.661 240.448 234.627 240.162 234.691 239.796L235.218 236.808L234.259 236.808L234.431 235.835L235.39 235.835L235.644 234.389L236.88 234.264L236.603 235.835L237.709 235.835L237.537 236.808L236.431 236.808L235.944 239.574C235.915 239.735 235.932 239.844 235.994 239.902C236.056 239.953 236.163 239.979 236.313 239.979L236.978 239.979L236.805 240.962L235.719 240.962ZM239.817 241.049C239.289 241.049 238.852 240.939 238.505 240.721C238.165 240.502 237.926 240.197 237.786 239.805C237.653 239.413 237.633 238.954 237.725 238.427C237.822 237.881 238.006 237.409 238.279 237.011C238.559 236.606 238.904 236.294 239.314 236.076C239.732 235.851 240.196 235.739 240.705 235.739C241.298 235.739 241.762 235.867 242.095 236.124C242.429 236.375 242.639 236.721 242.724 237.165C242.816 237.602 242.784 238.1 242.626 238.659L238.888 238.659C238.806 239.128 238.866 239.491 239.068 239.748C239.272 239.998 239.576 240.123 239.98 240.123C240.294 240.123 240.57 240.056 240.809 239.921C241.049 239.78 241.219 239.593 241.318 239.362L242.483 239.362C242.378 239.696 242.196 239.992 241.935 240.249C241.676 240.499 241.364 240.695 241 240.837C240.636 240.978 240.241 241.049 239.817 241.049ZM240.542 236.664C240.176 236.664 239.861 236.77 239.595 236.982C239.329 237.194 239.145 237.483 239.041 237.849L241.575 237.849C241.627 237.444 241.553 237.146 241.352 236.953C241.151 236.76 240.881 236.664 240.542 236.664Z" fill="white"/>
</g>
</g>
<rect x="0.475673" y="0.566885" width="165.781" height="165.781" rx="14.9983" transform="matrix(1 0 -0.173648 0.984808 163.759 128.165)" stroke="#1585BB" stroke-width="1.15126"/>
</g>
<g id="Blue 10">
<g clip-path="url(#clip2_4047_10858)">
<rect width="166.933" height="166.933" rx="15.5739" transform="matrix(1 0 -0.173648 0.984808 353.617 128.156)" fill="#0B5377"/>
<g id="Container">
<g id="Copy">
<path id="Problem x Solution Fit" d="M376.899 156.153L378.211 148.715H381.443C382.265 148.715 382.884 148.929 383.299 149.357C383.715 149.779 383.854 150.378 383.718 151.153C383.631 151.643 383.448 152.075 383.168 152.449C382.889 152.817 382.531 153.106 382.093 153.317C381.656 153.521 381.151 153.623 380.578 153.623L378.963 153.612L378.515 156.153H376.899ZM380.937 150.061H379.59L379.181 152.378L380.526 152.388C380.768 152.388 380.995 152.354 381.207 152.286C381.421 152.211 381.605 152.089 381.759 151.919C381.915 151.742 382.018 151.507 382.07 151.214C382.121 150.922 382.099 150.694 382.004 150.531C381.91 150.361 381.768 150.242 381.58 150.174C381.393 150.099 381.178 150.061 380.937 150.061ZM383.725 156.153L384.69 150.684H386.068L385.975 151.561H386.027C386.214 151.208 386.454 150.963 386.747 150.827C387.048 150.684 387.375 150.612 387.728 150.612H388.039L387.79 152.021H387.448C386.937 152.021 386.548 152.133 386.28 152.357C386.014 152.575 385.838 152.888 385.752 153.296L385.248 156.153H383.725ZM390.202 156.245C389.649 156.245 389.182 156.133 388.8 155.908C388.419 155.684 388.147 155.361 387.987 154.939C387.833 154.517 387.809 154.01 387.913 153.419C388.013 152.854 388.21 152.361 388.506 151.939C388.802 151.51 389.179 151.177 389.635 150.939C390.092 150.701 390.613 150.582 391.2 150.582C391.753 150.582 392.217 150.694 392.592 150.919C392.973 151.143 393.241 151.47 393.393 151.898C393.553 152.32 393.581 152.827 393.477 153.419C393.378 153.983 393.179 154.48 392.883 154.908C392.587 155.33 392.212 155.66 391.755 155.898C391.307 156.129 390.789 156.245 390.202 156.245ZM390.406 155.031C390.779 155.031 391.103 154.898 391.377 154.633C391.652 154.368 391.837 153.963 391.933 153.419C392.029 152.874 391.99 152.47 391.816 152.204C391.642 151.939 391.364 151.806 390.985 151.806C390.605 151.806 390.277 151.939 390.003 152.204C389.728 152.47 389.543 152.874 389.447 153.419C389.352 153.956 389.391 154.361 389.564 154.633C389.745 154.898 390.026 155.031 390.406 155.031ZM397.315 156.255C396.886 156.255 396.533 156.16 396.256 155.97C395.987 155.772 395.814 155.517 395.738 155.204H395.656L395.426 156.153H393.965L395.277 148.715H396.8L396.285 151.633H396.368C396.556 151.313 396.818 151.058 397.156 150.868C397.5 150.677 397.887 150.582 398.315 150.582C398.978 150.582 399.471 150.82 399.795 151.296C400.12 151.766 400.199 152.473 400.032 153.419C399.867 154.357 399.538 155.065 399.046 155.541C398.555 156.017 397.978 156.255 397.315 156.255ZM396.948 155.041C397.321 155.041 397.645 154.912 397.918 154.653C398.193 154.388 398.379 153.976 398.478 153.419C398.576 152.861 398.534 152.453 398.352 152.194C398.171 151.929 397.894 151.796 397.521 151.796C397.237 151.796 396.991 151.861 396.782 151.99C396.573 152.119 396.404 152.289 396.277 152.5C396.152 152.704 396.068 152.922 396.028 153.153L395.934 153.684C395.893 153.915 395.899 154.136 395.952 154.347C396.006 154.551 396.114 154.718 396.278 154.847C396.442 154.976 396.665 155.041 396.948 155.041ZM400.522 156.153L401.834 148.715H403.357L402.045 156.153H400.522ZM405.774 156.245C405.194 156.245 404.717 156.129 404.343 155.898C403.976 155.667 403.719 155.344 403.571 154.929C403.424 154.507 403.4 154.017 403.498 153.459C403.603 152.868 403.803 152.357 404.1 151.929C404.403 151.5 404.779 151.17 405.228 150.939C405.677 150.701 406.175 150.582 406.721 150.582C407.363 150.582 407.867 150.721 408.232 151C408.599 151.272 408.829 151.65 408.923 152.133C409.019 152.609 408.982 153.15 408.813 153.755H404.949C404.865 154.191 404.92 154.527 405.112 154.765C405.307 154.997 405.594 155.112 405.973 155.112C406.264 155.112 406.52 155.051 406.742 154.929C406.972 154.799 407.133 154.629 407.225 154.419H408.665C408.552 154.786 408.354 155.106 408.071 155.378C407.796 155.65 407.461 155.864 407.067 156.021C406.675 156.17 406.243 156.245 405.774 156.245ZM406.521 151.714C406.175 151.714 405.878 151.813 405.629 152.01C405.382 152.201 405.215 152.463 405.128 152.796H407.491C407.535 152.429 407.462 152.157 407.272 151.98C407.089 151.803 406.839 151.714 406.521 151.714ZM409.386 156.153L410.35 150.684H411.821L411.699 151.674H411.761C411.963 151.313 412.235 151.041 412.578 150.857C412.921 150.674 413.28 150.582 413.653 150.582C414.039 150.582 414.376 150.674 414.661 150.857C414.946 151.041 415.125 151.357 415.198 151.806H415.281C415.484 151.398 415.77 151.092 416.137 150.888C416.512 150.684 416.91 150.582 417.331 150.582C417.69 150.582 417.998 150.657 418.255 150.806C418.512 150.956 418.694 151.197 418.801 151.531C418.916 151.857 418.925 152.296 418.828 152.847L418.245 156.153H416.721L417.247 153.174C417.328 152.711 417.31 152.368 417.19 152.143C417.078 151.919 416.849 151.806 416.504 151.806C416.138 151.806 415.827 151.939 415.573 152.204C415.328 152.463 415.174 152.765 415.113 153.112L414.577 156.153H413.054L413.579 153.174C413.661 152.711 413.642 152.368 413.522 152.143C413.41 151.919 413.181 151.806 412.836 151.806C412.463 151.806 412.153 151.939 411.906 152.204C411.66 152.463 411.506 152.765 411.445 153.112L410.909 156.153H409.386ZM421.006 156.153L423.583 153.347L422.157 150.684H423.97L424.789 152.327H424.851L426.239 150.684H427.969L425.663 153.306L427.202 156.153H425.409L424.452 154.296H424.39L422.715 156.153H421.006ZM432.819 156.245C431.797 156.245 431.06 156.021 430.607 155.572C430.161 155.123 430.002 154.538 430.129 153.816H431.766C431.715 154.184 431.787 154.48 431.982 154.704C432.186 154.922 432.557 155.031 433.096 155.031C433.51 155.031 433.855 154.956 434.13 154.806C434.405 154.657 434.568 154.436 434.62 154.143C434.662 153.905 434.642 153.721 434.562 153.592C434.482 153.456 434.321 153.351 434.079 153.276C433.836 153.201 433.494 153.126 433.051 153.051C432.205 152.915 431.589 152.684 431.205 152.357C430.821 152.024 430.687 151.534 430.801 150.888C430.924 150.187 431.284 149.636 431.88 149.235C432.476 148.827 433.234 148.623 434.153 148.623C434.747 148.623 435.242 148.715 435.638 148.898C436.034 149.082 436.32 149.34 436.496 149.674C436.679 150.007 436.731 150.395 436.653 150.837H435.027C435.076 150.476 434.987 150.218 434.759 150.061C434.538 149.905 434.248 149.827 433.889 149.827C433.509 149.827 433.195 149.905 432.946 150.061C432.706 150.211 432.562 150.419 432.515 150.684C432.474 150.915 432.506 151.089 432.61 151.204C432.714 151.32 432.892 151.408 433.143 151.47C433.402 151.531 433.742 151.599 434.164 151.674C434.474 151.721 434.773 151.786 435.063 151.868C435.352 151.949 435.603 152.072 435.816 152.235C436.037 152.391 436.195 152.612 436.29 152.898C436.393 153.177 436.405 153.541 436.325 153.99C436.208 154.657 435.849 155.201 435.25 155.623C434.659 156.038 433.849 156.245 432.819 156.245ZM439.428 156.245C438.876 156.245 438.409 156.133 438.027 155.908C437.645 155.684 437.374 155.361 437.213 154.939C437.06 154.517 437.035 154.01 437.14 153.419C437.239 152.854 437.437 152.361 437.732 151.939C438.029 151.51 438.405 151.177 438.862 150.939C439.318 150.701 439.84 150.582 440.427 150.582C440.98 150.582 441.443 150.694 441.818 150.919C442.2 151.143 442.467 151.47 442.619 151.898C442.78 152.32 442.808 152.827 442.704 153.419C442.604 153.983 442.406 154.48 442.109 154.908C441.814 155.33 441.438 155.66 440.982 155.898C440.533 156.129 440.015 156.245 439.428 156.245ZM439.632 155.031C440.005 155.031 440.329 154.898 440.604 154.633C440.878 154.368 441.064 153.963 441.16 153.419C441.256 152.874 441.217 152.47 441.042 152.204C440.868 151.939 440.591 151.806 440.211 151.806C439.831 151.806 439.504 151.939 439.229 152.204C438.954 152.47 438.769 152.874 438.673 153.419C438.578 153.956 438.617 154.361 438.79 154.633C438.972 154.898 439.252 155.031 439.632 155.031ZM443.192 156.153L444.503 148.715H446.026L444.715 156.153H443.192ZM447.936 156.245C447.293 156.245 446.835 156.061 446.562 155.694C446.288 155.327 446.213 154.793 446.336 154.092L446.937 150.684H448.46L447.93 153.694C447.853 154.129 447.874 154.463 447.992 154.694C448.118 154.919 448.371 155.031 448.751 155.031C449.138 155.031 449.457 154.902 449.71 154.643C449.971 154.378 450.133 154.065 450.197 153.704L450.73 150.684H452.253L451.288 156.153H449.827L449.941 155.153H449.869C449.675 155.507 449.403 155.779 449.052 155.97C448.708 156.153 448.336 156.245 447.936 156.245ZM454.375 156.153C454.002 156.153 453.721 156.099 453.533 155.99C453.345 155.881 453.227 155.728 453.179 155.531C453.139 155.327 453.143 155.089 453.191 154.816L453.708 151.888H452.713L452.925 150.684H453.92L454.183 149.194L455.721 149.051L455.433 150.684H456.552L456.339 151.888H455.22L454.754 154.531C454.726 154.694 454.744 154.803 454.811 154.857C454.877 154.912 454.983 154.939 455.128 154.939H455.801L455.587 156.153H454.375ZM457.616 149.98L457.839 148.715H459.362L459.139 149.98H457.616ZM456.528 156.153L457.492 150.684H459.015L458.051 156.153H456.528ZM461.8 156.245C461.248 156.245 460.781 156.133 460.399 155.908C460.017 155.684 459.746 155.361 459.585 154.939C459.432 154.517 459.407 154.01 459.512 153.419C459.611 152.854 459.809 152.361 460.104 151.939C460.401 151.51 460.777 151.177 461.234 150.939C461.69 150.701 462.212 150.582 462.799 150.582C463.352 150.582 463.815 150.694 464.19 150.919C464.572 151.143 464.839 151.47 464.991 151.898C465.152 152.32 465.18 152.827 465.076 153.419C464.976 153.983 464.778 154.48 464.481 154.908C464.186 155.33 463.81 155.66 463.354 155.898C462.905 156.129 462.387 156.245 461.8 156.245ZM462.004 155.031C462.377 155.031 462.701 154.898 462.976 154.633C463.25 154.368 463.436 153.963 463.532 153.419C463.628 152.874 463.589 152.47 463.414 152.204C463.24 151.939 462.963 151.806 462.583 151.806C462.203 151.806 461.876 151.939 461.601 152.204C461.326 152.47 461.141 152.874 461.045 153.419C460.95 153.956 460.989 154.361 461.162 154.633C461.344 154.898 461.624 155.031 462.004 155.031ZM465.564 156.153L466.528 150.684H467.989L467.877 151.674H467.939C468.154 151.313 468.437 151.041 468.787 150.857C469.137 150.674 469.509 150.582 469.903 150.582C470.276 150.582 470.594 150.657 470.858 150.806C471.129 150.956 471.321 151.197 471.435 151.531C471.55 151.857 471.559 152.296 471.462 152.847L470.879 156.153H469.356L469.881 153.174C469.963 152.711 469.94 152.368 469.814 152.143C469.688 151.919 469.442 151.806 469.076 151.806C468.682 151.806 468.355 151.939 468.094 152.204C467.841 152.463 467.684 152.765 467.623 153.112L467.087 156.153H465.564ZM474.502 156.153L475.814 148.715H481.295L481.056 150.072H477.191L476.861 151.939H480.312L480.083 153.235H476.633L476.118 156.153H474.502ZM481.982 149.98L482.205 148.715H483.728L483.505 149.98H481.982ZM480.893 156.153L481.857 150.684H483.381L482.416 156.153H480.893ZM485.56 156.153C485.187 156.153 484.907 156.099 484.719 155.99C484.531 155.881 484.413 155.728 484.364 155.531C484.324 155.327 484.328 155.089 484.376 154.816L484.893 151.888H483.898L484.11 150.684H485.105L485.368 149.194L486.906 149.051L486.618 150.684H487.737L487.525 151.888H486.406L485.94 154.531C485.911 154.694 485.93 154.803 485.996 154.857C486.062 154.912 486.168 154.939 486.313 154.939H486.987L486.772 156.153H485.56Z" fill="white"/>
</g>
</g>
<g id="Graphic">
<g id="Lines">
<line id="Line 23" y1="-0.29581" x2="85.1932" y2="-0.29581" transform="matrix(-0.173648 0.984808 -1 4.30473e-08 371.59 180.281)" stroke="#1585BB" stroke-width="0.591619" stroke-dasharray="1.18 1.18"/>
<line id="Line 25" y1="-0.29581" x2="85.1932" y2="-0.29581" transform="matrix(-0.173648 0.984808 -1 4.30473e-08 484.096 180.281)" stroke="#1585BB" stroke-width="0.591619" stroke-dasharray="1.18 1.18"/>
<line id="Line 21" y1="-0.29581" x2="85.1932" y2="-0.29581" transform="matrix(-0.173648 0.984808 -1 4.30473e-08 427.299 180.281)" stroke="#1585BB" stroke-width="0.591619" stroke-dasharray="1.18 1.18"/>
</g>
<g id="Squares">
<rect id="Rectangle 34624181" x="454.416" y="194.266" width="36.5075" height="43.5079" rx="2.36648" transform="rotate(50 454.416 194.266)" fill="#0B5377" stroke="#E6F7FF" stroke-opacity="0.8" stroke-width="0.591619"/>
<rect id="Rectangle 34624179" x="397.619" y="194.266" width="36.5075" height="43.5079" rx="2.36648" transform="rotate(50 397.619 194.266)" fill="#0B5377" stroke="#E6F7FF" stroke-opacity="0.8" stroke-width="0.591619"/>
<path id="Arrow 22" d="M442.646 240.873L439.501 240.002L442.335 237.624L442.646 240.873ZM434.824 231.551L435.07 231.345L441.336 238.813L441.091 239.019L440.845 239.225L434.579 231.757L434.824 231.551Z" fill="#E6F7FF" fill-opacity="0.8"/>
<path id="Arrow 23" d="M457.506 203.588L460.652 204.459L457.817 206.837L457.506 203.588ZM465.328 212.91L465.083 213.116L458.816 205.648L459.062 205.442L459.307 205.236L465.574 212.704L465.328 212.91Z" fill="#E6F7FF" fill-opacity="0.8"/>
<path id="Arrow 20" d="M382.502 212.908L385.955 212.037L383.959 209.659L382.502 212.908ZM393.611 203.586L393.438 203.38L384.538 210.848L384.711 211.054L384.884 211.26L393.784 203.792L393.611 203.586Z" fill="#E6F7FF" fill-opacity="0.8"/>
<path id="Arrow 21" d="M402.672 232.721L399.219 233.591L401.215 235.97L402.672 232.721ZM391.562 242.043L391.735 242.249L400.636 234.781L400.463 234.575L400.29 234.369L391.39 241.837L391.562 242.043Z" fill="#E6F7FF" fill-opacity="0.8"/>
</g>
<g id="Icons">
<g id="Bubble">
<circle id="Ellipse 1440" cx="13.6072" cy="13.6072" r="13.1303" transform="matrix(1 0 -0.173648 0.984808 352.461 208.246)" fill="#003650" stroke="#1585BB" stroke-width="0.953963"/>
<g id="Icon">
<path id="Vector" d="M361.275 225.793H364.677" stroke="#F2F6F7" stroke-width="0.816435" stroke-linecap="round" stroke-linejoin="round"/>
<path id="Vector_2" d="M361.353 223.071C361.003 222.761 360.745 222.364 360.598 221.911C360.452 221.457 360.422 220.959 360.509 220.454C360.821 218.637 362.572 217.125 364.424 217.083C365.142 217.066 365.807 217.272 366.326 217.669C366.845 218.067 367.191 218.638 367.316 219.3C367.44 219.962 367.337 220.683 367.02 221.359C366.703 222.035 366.189 222.633 365.551 223.067C365.41 223.162 365.288 223.283 365.194 223.421C365.1 223.56 365.037 223.712 365.01 223.867L364.966 224.118C364.95 224.207 364.899 224.292 364.824 224.355C364.749 224.418 364.657 224.453 364.566 224.453H361.845C361.755 224.453 361.674 224.418 361.622 224.355C361.569 224.292 361.548 224.207 361.564 224.118L361.608 223.867C361.634 223.714 361.625 223.562 361.58 223.425C361.536 223.287 361.459 223.166 361.353 223.071Z" stroke="#F2F6F7" stroke-width="0.816435" stroke-linecap="round" stroke-linejoin="round"/>
<path id="Vector_3" d="M364.621 218.457C365.025 218.526 365.374 218.721 365.621 219.015C365.868 219.308 366 219.685 365.999 220.094" stroke="#F2F6F7" stroke-width="0.816435" stroke-linecap="round" stroke-linejoin="round"/>
</g>
</g>
<g id="Bubble_2">
<circle id="Ellipse 1440_2" cx="13.6072" cy="13.6072" r="13.1564" transform="matrix(1 0 -0.173648 0.984808 409.256 208.246)" fill="#003650" stroke="#1585BB" stroke-width="0.901626"/>
<g id="User">
<path id="Icon_2" d="M416.22 225.525L416.377 224.631C416.461 224.157 416.732 223.703 417.131 223.368C417.531 223.033 418.025 222.845 418.506 222.845L422.135 222.845C422.616 222.845 423.045 223.033 423.326 223.368C423.607 223.703 423.718 224.157 423.634 224.631L423.477 225.525M419.137 219.271C418.963 220.258 419.634 221.058 420.636 221.058C421.638 221.058 422.591 220.258 422.765 219.271C422.939 218.284 422.268 217.484 421.266 217.484C420.264 217.484 419.311 218.284 419.137 219.271Z" stroke="white" stroke-width="0.771644" stroke-linecap="round" stroke-linejoin="round"/>
</g>
</g>
<g id="Bubble_3">
<circle id="Ellipse 1440_3" cx="13.6072" cy="13.6072" r="13.1303" transform="matrix(1 0 -0.173648 0.984808 466.053 208.246)" fill="#003650" stroke="#1585BB" stroke-width="0.953963"/>
<g id="Edit" clip-path="url(#clip3_4047_10858)">
<g id="icon">
<path id="Vector_4" d="M473.008 222.794L472.678 224.665C472.663 224.754 472.683 224.839 472.736 224.902C472.789 224.965 472.869 225 472.959 225L474.86 225C474.95 225 475.042 224.965 475.117 224.902L481.272 219.738C481.346 219.675 481.397 219.59 481.413 219.501C481.429 219.412 481.408 219.327 481.355 219.264L479.786 217.393C479.733 217.33 479.653 217.295 479.563 217.295C479.473 217.295 479.38 217.33 479.305 217.393L473.149 222.557C473.075 222.62 473.024 222.705 473.008 222.794Z" stroke="#F2F6F7" stroke-width="0.653148" stroke-linecap="round" stroke-linejoin="round"/>
<path id="Vector_5" d="M479.791 220.98L477.823 218.635" stroke="#F2F6F7" stroke-width="0.653148" stroke-linecap="round" stroke-linejoin="round"/>
<path id="Vector_6" d="M478.807 219.808L474.015 223.828" stroke="#F2F6F7" stroke-width="0.653148" stroke-linecap="round" stroke-linejoin="round"/>
<path id="Vector_7" d="M473.052 222.678L474.984 224.98" stroke="#F2F6F7" stroke-width="0.653148" stroke-linecap="round" stroke-linejoin="round"/>
</g>
</g>
</g>
</g>
</g>
</g>
<rect x="0.475673" y="0.566885" width="165.781" height="165.781" rx="14.9983" transform="matrix(1 0 -0.173648 0.984808 353.716 128.165)" stroke="#1585BB" stroke-width="1.15126"/>
</g>
<g id="Blue 3">
<rect width="166.933" height="166.933" rx="15.5739" transform="matrix(1 0 -0.173648 0.984808 543.576 128.156)" fill="#1585BB"/>
<path id="Discover." d="M590.278 275.554L592.756 261.503H598.823C600.245 261.503 601.393 261.799 602.268 262.39C603.142 262.981 603.734 263.803 604.044 264.857C604.367 265.91 604.405 267.137 604.158 268.538C603.911 269.939 603.441 271.166 602.746 272.219C602.051 273.273 601.163 274.095 600.08 274.686C599.012 275.265 597.768 275.554 596.345 275.554H590.278ZM593.783 272.99H596.308C597.078 272.99 597.781 272.849 598.418 272.566C599.068 272.284 599.621 271.815 600.075 271.159C600.53 270.504 600.857 269.611 601.057 268.48C601.252 267.375 601.236 266.501 601.01 265.859C600.799 265.204 600.418 264.741 599.865 264.471C599.328 264.189 598.668 264.047 597.885 264.047H595.36L593.783 272.99ZM606.323 263.893L606.744 261.503H609.621L609.2 263.893H606.323ZM604.267 275.554L606.088 265.223H608.965L607.144 275.554H604.267ZM613.129 275.747C611.602 275.747 610.477 275.432 609.753 274.802C609.044 274.16 608.787 273.324 608.981 272.296H611.799C611.715 272.849 611.84 273.247 612.176 273.491C612.526 273.723 612.982 273.838 613.543 273.838C614.13 273.838 614.591 273.742 614.925 273.549C615.261 273.344 615.46 273.067 615.521 272.721C615.605 272.245 615.483 271.937 615.156 271.795C614.842 271.654 614.322 271.532 613.596 271.429C612.845 271.326 612.166 271.179 611.561 270.986C610.958 270.78 610.503 270.472 610.197 270.061C609.904 269.65 609.825 269.065 609.959 268.307C610.151 267.215 610.712 266.399 611.643 265.859C612.588 265.306 613.746 265.03 615.116 265.03C616.46 265.03 617.479 265.319 618.173 265.897C618.869 266.463 619.139 267.26 618.984 268.287H616.166C616.243 267.851 616.145 267.517 615.873 267.285C615.614 267.054 615.223 266.938 614.701 266.938C614.166 266.938 613.744 267.041 613.433 267.247C613.125 267.439 612.943 267.696 612.886 268.018C612.819 268.403 612.947 268.673 613.272 268.827C613.597 268.981 614.136 269.11 614.887 269.213C615.422 269.29 615.927 269.386 616.402 269.502C616.88 269.605 617.287 269.772 617.625 270.003C617.978 270.221 618.23 270.53 618.382 270.928C618.549 271.314 618.577 271.821 618.466 272.451C618.266 273.581 617.695 274.417 616.752 274.956C615.811 275.483 614.603 275.747 613.129 275.747ZM623.868 275.727C622.824 275.727 621.95 275.509 621.244 275.072C620.54 274.622 620.043 273.999 619.753 273.202C619.465 272.393 619.416 271.455 619.604 270.388C619.794 269.309 620.175 268.371 620.746 267.574C621.332 266.765 622.062 266.142 622.935 265.705C623.81 265.255 624.782 265.03 625.852 265.03C626.753 265.03 627.526 265.197 628.171 265.531C628.817 265.865 629.29 266.328 629.59 266.919C629.903 267.51 630.01 268.198 629.911 268.981H627.093C627.097 268.442 626.94 268.037 626.622 267.767C626.307 267.484 625.888 267.343 625.366 267.343C624.609 267.343 623.987 267.619 623.498 268.172C623.009 268.724 622.683 269.463 622.52 270.388C622.341 271.403 622.416 272.162 622.745 272.663C623.087 273.164 623.598 273.414 624.276 273.414C624.889 273.414 625.399 273.26 625.806 272.952C626.226 272.643 626.506 272.239 626.646 271.738H629.445C629.263 272.547 628.904 273.254 628.367 273.858C627.845 274.449 627.196 274.911 626.419 275.245C625.645 275.567 624.795 275.727 623.868 275.727ZM634.559 275.727C633.515 275.727 632.633 275.515 631.912 275.091C631.19 274.667 630.678 274.057 630.375 273.26C630.085 272.464 630.039 271.506 630.236 270.388C630.424 269.322 630.797 268.39 631.355 267.594C631.915 266.784 632.626 266.154 633.488 265.705C634.35 265.255 635.336 265.03 636.445 265.03C637.489 265.03 638.365 265.242 639.073 265.666C639.794 266.09 640.299 266.707 640.586 267.517C640.89 268.313 640.943 269.27 640.745 270.388C640.557 271.455 640.183 272.393 639.623 273.202C639.065 273.999 638.355 274.622 637.493 275.072C636.646 275.509 635.668 275.727 634.559 275.727ZM634.944 273.434C635.648 273.434 636.26 273.183 636.779 272.682C637.298 272.181 637.648 271.416 637.829 270.388C638.011 269.36 637.937 268.596 637.607 268.095C637.278 267.594 636.755 267.343 636.037 267.343C635.32 267.343 634.701 267.594 634.182 268.095C633.664 268.596 633.313 269.36 633.132 270.388C632.953 271.403 633.027 272.168 633.354 272.682C633.696 273.183 634.226 273.434 634.944 273.434ZM643.065 275.554L641.308 265.204H644.401L645.011 270.735L645.202 273.202H645.3L646.358 270.755L648.922 265.204H652.034L646.647 275.554H643.065ZM655.058 275.727C653.962 275.727 653.061 275.509 652.355 275.072C651.662 274.635 651.176 274.025 650.897 273.241C650.62 272.444 650.574 271.519 650.76 270.465C650.957 269.348 651.336 268.384 651.896 267.574C652.469 266.765 653.179 266.142 654.026 265.705C654.875 265.255 655.815 265.03 656.846 265.03C658.059 265.03 659.011 265.294 659.701 265.82C660.393 266.334 660.829 267.048 661.007 267.96C661.188 268.859 661.118 269.881 660.799 271.024H653.499C653.341 271.847 653.444 272.483 653.808 272.933C654.175 273.369 654.717 273.588 655.435 273.588C655.983 273.588 656.466 273.472 656.886 273.241C657.32 272.997 657.625 272.676 657.799 272.277H660.52C660.306 272.971 659.932 273.575 659.398 274.089C658.877 274.603 658.244 275.008 657.5 275.303C656.759 275.586 655.945 275.727 655.058 275.727ZM656.469 267.17C655.816 267.17 655.255 267.356 654.785 267.729C654.317 268.088 654.001 268.583 653.838 269.213H658.3C658.384 268.519 658.246 268.005 657.887 267.671C657.542 267.337 657.069 267.17 656.469 267.17ZM661.293 275.554L663.115 265.223H665.718L665.543 266.88H665.641C665.993 266.212 666.447 265.75 667.001 265.493C667.57 265.223 668.188 265.088 668.853 265.088H669.44L668.971 267.748H668.325C667.36 267.748 666.624 267.96 666.119 268.384C665.616 268.795 665.284 269.386 665.121 270.157L664.17 275.554H661.293ZM666.128 275.554L666.587 272.952H669.346L668.887 275.554H666.128Z" fill="white"/>
<g id="Group 633139">
<circle id="Ellipse 1438" cx="39.8513" cy="39.8513" r="39.5059" transform="matrix(1 0 -0.173648 0.984808 598.283 155.367)" stroke="#003650" stroke-width="0.690756"/>
<g id="Group 633140">
<circle id="Ellipse 1437" cx="39.8513" cy="39.8513" r="39.8513" transform="matrix(1 0 -0.173648 0.984808 567.465 155.367)" fill="#0F6087"/>
<g id="Search" clip-path="url(#clip4_4047_10858)">
<path id="Icon_3" d="M607.901 203.526L604.452 199.416M598.64 201.636C602.879 201.636 606.912 198.252 607.648 194.078C608.384 189.904 605.545 186.52 601.306 186.52C597.067 186.52 593.034 189.904 592.298 194.078C591.562 198.252 594.402 201.636 598.64 201.636Z" stroke="white" stroke-width="1.43907" stroke-linecap="round" stroke-linejoin="round"/>
</g>
</g>
</g>
</g>
</g>
<g id="Row_2">
<g id="Teal 4">
<rect x="0.475673" y="0.566885" width="165.781" height="165.781" rx="14.9983" transform="matrix(1 0 -0.173648 0.984808 130.772 315.235)" fill="#084559"/>
<rect x="0.475673" y="0.566885" width="165.781" height="165.781" rx="14.9983" transform="matrix(1 0 -0.173648 0.984808 130.772 315.235)" stroke="#40BBCF" stroke-width="1.15126"/>
<g id="Table">
<g id="Content">
<g id="Copy_2">
<path id="Market x Demand Fit" d="M156.668 342.395L157.98 334.957H160.425L161.121 339.824H161.183L163.575 334.957H166.031L164.719 342.395H163.154L163.673 339.457L164.193 336.62H164.121L161.331 342.395H160.067L159.313 336.62H159.23L158.758 339.477L158.243 342.395H156.668ZM168.045 342.487C167.382 342.487 166.888 342.253 166.563 341.783C166.24 341.307 166.161 340.599 166.326 339.661C166.493 338.715 166.822 338.008 167.312 337.538C167.803 337.062 168.381 336.824 169.044 336.824C169.472 336.824 169.821 336.919 170.092 337.11C170.369 337.3 170.545 337.555 170.62 337.875H170.703L170.932 336.926H172.393L171.429 342.395H169.906L170.075 341.436H169.992C169.806 341.749 169.54 342.004 169.194 342.202C168.856 342.392 168.474 342.487 168.045 342.487ZM168.84 341.273C169.123 341.273 169.366 341.208 169.568 341.079C169.777 340.95 169.945 340.783 170.071 340.579C170.198 340.368 170.281 340.147 170.322 339.916L170.414 339.395C170.456 339.157 170.45 338.936 170.396 338.732C170.342 338.528 170.234 338.361 170.07 338.232C169.913 338.103 169.693 338.038 169.41 338.038C169.037 338.038 168.713 338.171 168.438 338.436C168.165 338.695 167.979 339.103 167.881 339.661C167.783 340.212 167.825 340.62 168.007 340.885C168.189 341.144 168.467 341.273 168.84 341.273ZM172.732 342.395L173.697 336.926H175.075L174.982 337.804H175.034C175.221 337.45 175.461 337.205 175.754 337.069C176.056 336.926 176.383 336.855 176.735 336.855H177.046L176.797 338.263H176.456C175.944 338.263 175.555 338.375 175.288 338.6C175.021 338.817 174.845 339.13 174.759 339.538L174.256 342.395H172.732ZM176.871 342.395L178.183 334.957H179.726L178.98 339.191L179.527 338.671L181.482 336.926H183.358L180.842 339.089L182.435 342.395H180.642L179.819 340.661L179.588 340.089L178.69 340.834L178.415 342.395H176.871ZM185.209 342.487C184.629 342.487 184.152 342.372 183.778 342.14C183.411 341.909 183.154 341.586 183.006 341.171C182.859 340.749 182.835 340.259 182.934 339.702C183.038 339.11 183.239 338.6 183.535 338.171C183.839 337.742 184.215 337.412 184.663 337.181C185.112 336.943 185.61 336.824 186.156 336.824C186.798 336.824 187.302 336.963 187.667 337.242C188.034 337.515 188.264 337.892 188.359 338.375C188.454 338.851 188.418 339.392 188.249 339.997H184.384C184.3 340.433 184.355 340.77 184.548 341.008C184.742 341.239 185.029 341.355 185.409 341.355C185.699 341.355 185.955 341.293 186.177 341.171C186.407 341.042 186.568 340.872 186.66 340.661H188.101C187.988 341.028 187.79 341.348 187.507 341.62C187.231 341.892 186.896 342.106 186.502 342.263C186.11 342.412 185.679 342.487 185.209 342.487ZM185.956 337.957C185.611 337.957 185.313 338.055 185.065 338.253C184.817 338.443 184.65 338.705 184.563 339.038H186.926C186.97 338.671 186.897 338.399 186.707 338.222C186.524 338.045 186.274 337.957 185.956 337.957ZM190.655 342.395C190.282 342.395 190.001 342.341 189.813 342.232C189.625 342.123 189.507 341.97 189.459 341.773C189.419 341.569 189.423 341.331 189.471 341.059L189.987 338.13H188.993L189.205 336.926H190.2L190.462 335.436L192 335.293L191.712 336.926H192.831L192.619 338.13H191.5L191.034 340.773C191.005 340.936 191.024 341.045 191.091 341.099C191.157 341.154 191.263 341.181 191.408 341.181H192.081L191.867 342.395H190.655ZM194.319 342.395L196.897 339.589L195.47 336.926H197.283L198.102 338.569H198.164L199.552 336.926H201.283L198.976 339.548L200.515 342.395H198.723L197.765 340.538H197.703L196.029 342.395H194.319ZM203.497 342.395L204.808 334.957H208.02C208.773 334.957 209.381 335.113 209.844 335.426C210.307 335.739 210.62 336.174 210.784 336.732C210.956 337.29 210.976 337.94 210.845 338.681C210.714 339.423 210.465 340.072 210.097 340.63C209.729 341.188 209.259 341.623 208.686 341.936C208.121 342.242 207.461 342.395 206.709 342.395H203.497ZM205.352 341.038H206.689C207.096 341.038 207.469 340.963 207.806 340.814C208.15 340.664 208.443 340.416 208.683 340.069C208.924 339.722 209.097 339.249 209.203 338.651C209.306 338.066 209.298 337.603 209.178 337.263C209.067 336.916 208.865 336.671 208.572 336.528C208.288 336.378 207.938 336.304 207.524 336.304H206.187L205.352 341.038ZM213.682 342.487C213.102 342.487 212.625 342.372 212.252 342.14C211.885 341.909 211.627 341.586 211.48 341.171C211.333 340.749 211.309 340.259 211.407 339.702C211.511 339.11 211.712 338.6 212.009 338.171C212.312 337.742 212.688 337.412 213.136 337.181C213.586 336.943 214.083 336.824 214.629 336.824C215.272 336.824 215.775 336.963 216.141 337.242C216.507 337.515 216.738 337.892 216.832 338.375C216.928 338.851 216.891 339.392 216.722 339.997H212.857C212.774 340.433 212.828 340.77 213.021 341.008C213.215 341.239 213.502 341.355 213.882 341.355C214.172 341.355 214.428 341.293 214.65 341.171C214.88 341.042 215.041 340.872 215.134 340.661H216.574C216.461 341.028 216.263 341.348 215.98 341.62C215.704 341.892 215.369 342.106 214.976 342.263C214.583 342.412 214.152 342.487 213.682 342.487ZM214.429 337.957C214.084 337.957 213.787 338.055 213.538 338.253C213.29 338.443 213.123 338.705 213.037 339.038H215.399C215.443 338.671 215.37 338.399 215.18 338.222C214.998 338.045 214.747 337.957 214.429 337.957ZM217.294 342.395L218.259 336.926H219.73L219.607 337.916H219.669C219.871 337.555 220.144 337.283 220.487 337.1C220.83 336.916 221.188 336.824 221.561 336.824C221.948 336.824 222.284 336.916 222.569 337.1C222.855 337.283 223.034 337.6 223.107 338.049H223.19C223.393 337.64 223.678 337.334 224.046 337.13C224.42 336.926 224.818 336.824 225.239 336.824C225.599 336.824 225.907 336.899 226.164 337.049C226.42 337.198 226.602 337.44 226.709 337.773C226.824 338.1 226.833 338.538 226.736 339.089L226.153 342.395H224.63L225.155 339.416C225.237 338.953 225.218 338.61 225.099 338.385C224.987 338.161 224.758 338.049 224.412 338.049C224.046 338.049 223.736 338.181 223.482 338.446C223.236 338.705 223.083 339.008 223.021 339.355L222.485 342.395H220.962L221.488 339.416C221.569 338.953 221.55 338.61 221.431 338.385C221.319 338.161 221.09 338.049 220.744 338.049C220.371 338.049 220.061 338.181 219.814 338.446C219.568 338.705 219.415 339.008 219.354 339.355L218.817 342.395H217.294ZM229.272 342.487C228.609 342.487 228.115 342.253 227.79 341.783C227.467 341.307 227.388 340.599 227.553 339.661C227.72 338.715 228.049 338.008 228.539 337.538C229.03 337.062 229.608 336.824 230.271 336.824C230.699 336.824 231.048 336.919 231.319 337.11C231.596 337.3 231.772 337.555 231.847 337.875H231.93L232.159 336.926H233.62L232.656 342.395H231.133L231.302 341.436H231.219C231.033 341.749 230.767 342.004 230.421 342.202C230.083 342.392 229.701 342.487 229.272 342.487ZM230.067 341.273C230.35 341.273 230.593 341.208 230.795 341.079C231.004 340.95 231.172 340.783 231.298 340.579C231.425 340.368 231.508 340.147 231.549 339.916L231.641 339.395C231.683 339.157 231.677 338.936 231.623 338.732C231.569 338.528 231.461 338.361 231.297 338.232C231.14 338.103 230.92 338.038 230.637 338.038C230.264 338.038 229.94 338.171 229.665 338.436C229.392 338.695 229.206 339.103 229.107 339.661C229.01 340.212 229.052 340.62 229.234 340.885C229.416 341.144 229.694 341.273 230.067 341.273ZM233.959 342.395L234.924 336.926H236.385L236.272 337.916H236.335C236.55 337.555 236.833 337.283 237.183 337.1C237.533 336.916 237.905 336.824 238.299 336.824C238.672 336.824 238.99 336.899 239.254 337.049C239.525 337.198 239.717 337.44 239.831 337.773C239.946 338.1 239.955 338.538 239.858 339.089L239.275 342.395H237.752L238.277 339.416C238.359 338.953 238.336 338.61 238.21 338.385C238.084 338.161 237.838 338.049 237.472 338.049C237.078 338.049 236.751 338.181 236.49 338.446C236.237 338.705 236.08 339.008 236.019 339.355L235.483 342.395H233.959ZM242.396 342.487C241.733 342.487 241.239 342.253 240.914 341.783C240.59 341.307 240.511 340.599 240.677 339.661C240.844 338.715 241.172 338.008 241.663 337.538C242.154 337.062 242.731 336.824 243.394 336.824C243.823 336.824 244.172 336.919 244.442 337.11C244.72 337.3 244.896 337.555 244.971 337.875H245.053L245.568 334.957H247.091L245.78 342.395H244.308L244.426 341.436H244.343C244.156 341.749 243.89 342.004 243.545 342.202C243.207 342.392 242.824 342.487 242.396 342.487ZM243.19 341.273C243.473 341.273 243.716 341.208 243.919 341.079C244.128 340.95 244.295 340.783 244.421 340.579C244.548 340.368 244.632 340.147 244.673 339.916L244.765 339.395C244.807 339.157 244.801 338.936 244.747 338.732C244.693 338.528 244.584 338.361 244.421 338.232C244.264 338.103 244.044 338.038 243.761 338.038C243.388 338.038 243.064 338.171 242.789 338.436C242.515 338.695 242.33 339.103 242.231 339.661C242.134 340.212 242.176 340.62 242.357 340.885C242.54 341.144 242.817 341.273 243.19 341.273ZM249.455 342.395L250.766 334.957H256.248L256.008 336.314H252.143L251.814 338.181H255.265L255.036 339.477H251.586L251.071 342.395H249.455ZM256.934 336.222L257.157 334.957H258.681L258.457 336.222H256.934ZM255.846 342.395L256.81 336.926H258.333L257.369 342.395H255.846ZM260.513 342.395C260.14 342.395 259.859 342.341 259.671 342.232C259.483 342.123 259.365 341.97 259.317 341.773C259.277 341.569 259.281 341.331 259.329 341.059L259.845 338.13H258.851L259.063 336.926H260.058L260.32 335.436L261.858 335.293L261.571 336.926H262.69L262.477 338.13H261.358L260.892 340.773C260.863 340.936 260.882 341.045 260.949 341.099C261.015 341.154 261.121 341.181 261.266 341.181H261.939L261.725 342.395H260.513Z" fill="white"/>
</g>
</g>
<g id="Frame 1000003580">
<g id="Graph">
<g id="stat">
<g id="Frame 1000003468">
<path id="Rectangle 34624160" d="M123.637 433.482C123.858 432.23 125.068 431.215 126.34 431.215H140.033C141.305 431.215 142.157 432.23 141.936 433.482L138.137 455.024H119.839L123.637 433.482Z" fill="#308D9C"/>
<path id="Rectangle 34624161" d="M144.163 424.412C144.383 423.16 145.593 422.145 146.865 422.145H160.558C161.83 422.145 162.682 423.16 162.461 424.412L157.063 455.024H138.765L144.163 424.412Z" fill="#40BBCF"/>
</g>
<path id="Week 1" d="M132.319 460.051H132.858L132.875 461.234L132.867 461.851H132.892L133.107 461.234L133.551 460.051H134.153L134.187 461.193L134.186 461.857H134.208L134.425 461.193L134.84 460.051H135.379L134.455 462.302H133.784L133.763 461.268L133.77 460.588H133.745L133.509 461.268L133.116 462.302H132.448L132.319 460.051ZM135.871 462.333C135.7 462.333 135.558 462.298 135.444 462.228C135.333 462.158 135.257 462.06 135.214 461.935C135.172 461.807 135.166 461.658 135.196 461.487C135.227 461.31 135.286 461.156 135.374 461.027C135.464 460.895 135.576 460.794 135.71 460.724C135.844 460.652 135.992 460.616 136.155 460.616C136.41 460.616 136.593 460.691 136.705 460.841C136.816 460.992 136.85 461.191 136.806 461.441C136.802 461.467 136.792 461.512 136.777 461.573H135.632C135.608 461.707 135.624 461.81 135.678 461.882C135.732 461.954 135.817 461.99 135.932 461.99C136.017 461.99 136.09 461.974 136.15 461.941C136.211 461.906 136.257 461.858 136.288 461.799H136.724C136.671 461.961 136.565 462.091 136.408 462.188C136.253 462.285 136.074 462.333 135.871 462.333ZM136.375 461.292C136.392 461.183 136.374 461.1 136.321 461.042C136.271 460.984 136.196 460.956 136.095 460.956C135.993 460.956 135.905 460.986 135.832 461.045C135.761 461.103 135.712 461.185 135.685 461.292H136.375ZM137.696 462.333C137.525 462.333 137.383 462.298 137.27 462.228C137.159 462.158 137.082 462.06 137.039 461.935C136.997 461.807 136.991 461.658 137.021 461.487C137.052 461.31 137.112 461.156 137.199 461.027C137.289 460.895 137.401 460.794 137.535 460.724C137.669 460.652 137.817 460.616 137.98 460.616C138.235 460.616 138.419 460.691 138.53 460.841C138.642 460.992 138.675 461.191 138.631 461.441C138.627 461.467 138.617 461.512 138.602 461.573H137.457C137.434 461.707 137.449 461.81 137.503 461.882C137.557 461.954 137.642 461.99 137.757 461.99C137.842 461.99 137.915 461.974 137.976 461.941C138.036 461.906 138.082 461.858 138.114 461.799H138.549C138.496 461.961 138.39 462.091 138.233 462.188C138.078 462.285 137.899 462.333 137.696 462.333ZM138.2 461.292C138.217 461.183 138.199 461.1 138.147 461.042C138.096 460.984 138.021 460.956 137.92 460.956C137.818 460.956 137.73 460.986 137.657 461.045C137.586 461.103 137.537 461.185 137.51 461.292H138.2ZM139.166 460.051H139.633L139.407 461.332L139.573 461.175L140.164 460.647H140.732L139.971 461.302L140.453 462.302H139.91L139.661 461.777L139.591 461.604L139.319 461.83L139.236 462.302H138.769L139.166 460.051ZM142.062 460.807H141.491L141.552 460.462H141.646C141.793 460.462 141.916 460.427 142.016 460.357C142.118 460.287 142.185 460.193 142.216 460.076H142.652L142.26 462.302H141.799L142.062 460.807Z" fill="white"/>
</g>
<g id="stat_2">
<g id="Frame 1000003468_2">
<path id="Rectangle 34624160_2" d="M181.473 394.936C181.694 393.683 182.904 392.668 184.176 392.668H197.869C199.141 392.668 199.992 393.683 199.772 394.936L189.176 455.025H170.878L181.473 394.936Z" fill="#308D9C"/>
<path id="Rectangle 34624161_2" d="M204.397 372.26C204.618 371.007 205.828 369.992 207.099 369.992H220.793C222.064 369.992 222.916 371.007 222.696 372.26L208.102 455.025H189.803L204.397 372.26Z" fill="#40BBCF"/>
</g>
<path id="Week 2" d="M183.114 460.051H183.654L183.671 461.234L183.662 461.851H183.687L183.903 461.234L184.346 460.051H184.949L184.982 461.193L184.981 461.857H185.003L185.221 461.193L185.635 460.051H186.175L185.251 462.302H184.58L184.558 461.268L184.565 460.588H184.54L184.304 461.268L183.912 462.302H183.244L183.114 460.051ZM186.667 462.333C186.495 462.333 186.353 462.298 186.24 462.228C186.129 462.158 186.052 462.06 186.01 461.935C185.967 461.807 185.961 461.658 185.991 461.487C186.023 461.31 186.082 461.156 186.17 461.027C186.26 460.895 186.372 460.794 186.505 460.724C186.639 460.652 186.788 460.616 186.951 460.616C187.206 460.616 187.389 460.691 187.501 460.841C187.612 460.992 187.646 461.191 187.602 461.441C187.597 461.467 187.587 461.512 187.572 461.573H186.428C186.404 461.707 186.419 461.81 186.474 461.882C186.528 461.954 186.612 461.99 186.727 461.99C186.813 461.99 186.886 461.974 186.946 461.941C187.007 461.906 187.053 461.858 187.084 461.799H187.52C187.466 461.961 187.361 462.091 187.204 462.188C187.049 462.285 186.87 462.333 186.667 462.333ZM187.17 461.292C187.187 461.183 187.17 461.1 187.117 461.042C187.067 460.984 186.991 460.956 186.891 460.956C186.788 460.956 186.701 460.986 186.627 461.045C186.557 461.103 186.508 461.185 186.48 461.292H187.17ZM188.492 462.333C188.321 462.333 188.178 462.298 188.065 462.228C187.954 462.158 187.877 462.06 187.835 461.935C187.792 461.807 187.786 461.658 187.816 461.487C187.848 461.31 187.907 461.156 187.995 461.027C188.085 460.895 188.197 460.794 188.33 460.724C188.464 460.652 188.613 460.616 188.776 460.616C189.031 460.616 189.214 460.691 189.326 460.841C189.437 460.992 189.471 461.191 189.427 461.441C189.422 461.467 189.412 461.512 189.397 461.573H188.253C188.229 461.707 188.244 461.81 188.299 461.882C188.353 461.954 188.437 461.99 188.552 461.99C188.638 461.99 188.711 461.974 188.771 461.941C188.832 461.906 188.878 461.858 188.909 461.799H189.345C189.291 461.961 189.186 462.091 189.029 462.188C188.874 462.285 188.695 462.333 188.492 462.333ZM188.995 461.292C189.012 461.183 188.995 461.1 188.942 461.042C188.892 460.984 188.816 460.956 188.716 460.956C188.614 460.956 188.526 460.986 188.452 461.045C188.382 461.103 188.333 461.185 188.305 461.292H188.995ZM189.961 460.051H190.429L190.203 461.332L190.368 461.175L190.96 460.647H191.528L190.766 461.302L191.248 462.302H190.706L190.457 461.777L190.387 461.604L190.115 461.83L190.032 462.302H189.564L189.961 460.051ZM192.081 462.206C192.107 462.058 192.162 461.926 192.245 461.811C192.328 461.696 192.42 461.599 192.522 461.521C192.623 461.443 192.754 461.352 192.915 461.249C193.03 461.177 193.12 461.117 193.185 461.07C193.252 461.021 193.309 460.967 193.357 460.909C193.407 460.852 193.438 460.79 193.449 460.724C193.465 460.633 193.449 460.563 193.402 460.514C193.354 460.463 193.284 460.437 193.19 460.437C193.081 460.437 192.99 460.469 192.916 460.533C192.844 460.594 192.799 460.676 192.782 460.777H192.327C192.357 460.628 192.417 460.5 192.505 460.391C192.595 460.281 192.706 460.198 192.837 460.14C192.971 460.081 193.119 460.051 193.28 460.051C193.43 460.051 193.557 460.079 193.66 460.134C193.766 460.188 193.84 460.264 193.883 460.363C193.928 460.462 193.94 460.576 193.917 460.706C193.895 460.827 193.846 460.936 193.768 461.033C193.693 461.13 193.606 461.213 193.508 461.283C193.412 461.351 193.288 461.431 193.136 461.524C193.001 461.604 192.894 461.673 192.817 461.731C192.741 461.786 192.684 461.845 192.648 461.907H193.705L193.635 462.302H192.064L192.081 462.206Z" fill="white"/>
</g>
<g id="stat_3">
<g id="Frame 1000003468_3">
<path id="Rectangle 34624160_3" d="M228.272 418.978C228.493 417.726 229.703 416.711 230.974 416.711H244.668C245.939 416.711 246.791 417.726 246.571 418.978L240.173 455.259H221.875L228.272 418.978Z" fill="#308D9C"/>
<path id="Rectangle 34624161_3" d="M249.397 406.506C249.618 405.253 250.828 404.238 252.099 404.238H265.793C267.064 404.238 267.916 405.253 267.696 406.506L259.099 455.258H240.801L249.397 406.506Z" fill="#40BBCF"/>
</g>
<path id="Week 3" d="M234.127 460.051H234.667L234.684 461.234L234.675 461.851H234.7L234.916 461.234L235.36 460.051H235.962L235.995 461.193L235.994 461.857H236.016L236.234 461.193L236.648 460.051H237.188L236.264 462.302H235.593L235.571 461.268L235.578 460.588H235.553L235.317 461.268L234.925 462.302H234.257L234.127 460.051ZM237.68 462.333C237.508 462.333 237.366 462.298 237.253 462.228C237.142 462.158 237.065 462.06 237.023 461.935C236.98 461.807 236.974 461.658 237.004 461.487C237.036 461.31 237.095 461.156 237.183 461.027C237.273 460.895 237.385 460.794 237.518 460.724C237.652 460.652 237.801 460.616 237.964 460.616C238.219 460.616 238.402 460.691 238.514 460.841C238.625 460.992 238.659 461.191 238.615 461.441C238.61 461.467 238.6 461.512 238.585 461.573H237.441C237.417 461.707 237.432 461.81 237.487 461.882C237.541 461.954 237.625 461.99 237.74 461.99C237.826 461.99 237.899 461.974 237.959 461.941C238.02 461.906 238.066 461.858 238.097 461.799H238.533C238.479 461.961 238.374 462.091 238.217 462.188C238.062 462.285 237.883 462.333 237.68 462.333ZM238.183 461.292C238.2 461.183 238.183 461.1 238.13 461.042C238.08 460.984 238.004 460.956 237.904 460.956C237.802 460.956 237.714 460.986 237.64 461.045C237.57 461.103 237.521 461.185 237.493 461.292H238.183ZM239.505 462.333C239.334 462.333 239.191 462.298 239.078 462.228C238.967 462.158 238.89 462.06 238.848 461.935C238.805 461.807 238.799 461.658 238.829 461.487C238.861 461.31 238.92 461.156 239.008 461.027C239.098 460.895 239.21 460.794 239.343 460.724C239.477 460.652 239.626 460.616 239.789 460.616C240.044 460.616 240.227 460.691 240.339 460.841C240.45 460.992 240.484 461.191 240.44 461.441C240.435 461.467 240.425 461.512 240.41 461.573H239.266C239.242 461.707 239.257 461.81 239.312 461.882C239.366 461.954 239.45 461.99 239.565 461.99C239.651 461.99 239.724 461.974 239.784 461.941C239.845 461.906 239.891 461.858 239.922 461.799H240.358C240.304 461.961 240.199 462.091 240.042 462.188C239.887 462.285 239.708 462.333 239.505 462.333ZM240.008 461.292C240.025 461.183 240.008 461.1 239.955 461.042C239.905 460.984 239.829 460.956 239.729 460.956C239.627 460.956 239.539 460.986 239.466 461.045C239.395 461.103 239.346 461.185 239.318 461.292H240.008ZM240.974 460.051H241.442L241.216 461.332L241.381 461.175L241.973 460.647H242.541L241.779 461.302L242.261 462.302H241.719L241.47 461.777L241.4 461.604L241.128 461.83L241.045 462.302H240.577L240.974 460.051ZM243.869 462.33C243.622 462.33 243.438 462.268 243.315 462.145C243.193 462.019 243.145 461.851 243.172 461.641H243.623C243.609 461.736 243.63 461.812 243.687 461.87C243.744 461.925 243.826 461.953 243.932 461.953C244.045 461.953 244.139 461.924 244.214 461.867C244.291 461.807 244.339 461.729 244.356 461.632C244.373 461.535 244.357 461.461 244.307 461.41C244.258 461.358 244.179 461.332 244.07 461.332H243.819L243.878 460.999H244.097C244.206 460.999 244.295 460.972 244.365 460.919C244.438 460.865 244.481 460.794 244.497 460.706C244.513 460.615 244.496 460.546 244.446 460.499C244.396 460.449 244.32 460.425 244.217 460.425C244.117 460.425 244.03 460.452 243.955 460.508C243.883 460.561 243.835 460.636 243.812 460.73H243.364C243.392 460.592 243.449 460.472 243.534 460.369C243.621 460.266 243.73 460.187 243.861 460.131C243.992 460.076 244.139 460.048 244.299 460.048C244.532 460.048 244.707 460.102 244.826 460.211C244.947 460.318 244.991 460.466 244.958 460.653C244.938 460.766 244.888 460.866 244.808 460.953C244.73 461.037 244.636 461.098 244.525 461.135L244.522 461.153C244.637 461.184 244.722 461.246 244.774 461.339C244.827 461.429 244.843 461.538 244.82 461.666C244.796 461.804 244.739 461.923 244.65 462.024C244.562 462.123 244.45 462.199 244.315 462.253C244.181 462.304 244.032 462.33 243.869 462.33Z" fill="white"/>
</g>
</g>
</g>
</g>
</g>
<g id="Teal 1">
<rect width="166.933" height="166.933" rx="15.5739" transform="matrix(1 0 -0.173648 0.984808 320.631 315.227)" fill="#40BBCF"/>
<path id="Validate." d="M372.554 462.624L370.041 448.573H373.446L374.696 457.247L375.034 459.772H375.171L376.379 457.247L380.707 448.573H384.113L376.664 462.624H372.554ZM384.716 462.798C383.464 462.798 382.531 462.354 381.917 461.468C381.306 460.568 381.157 459.232 381.47 457.459C381.785 455.673 382.405 454.336 383.331 453.45C384.26 452.55 385.35 452.1 386.603 452.1C387.412 452.1 388.071 452.28 388.582 452.64C389.106 453 389.438 453.482 389.58 454.086H389.736L390.17 452.293H392.929L391.108 462.624H388.231L388.55 460.812H388.394C388.042 461.403 387.539 461.885 386.886 462.258C386.249 462.618 385.525 462.798 384.716 462.798ZM386.217 460.504C386.752 460.504 387.21 460.382 387.593 460.138C387.988 459.894 388.305 459.579 388.542 459.193C388.782 458.795 388.94 458.377 389.017 457.941L389.191 456.958C389.27 456.508 389.259 456.09 389.157 455.705C389.056 455.319 388.85 455.004 388.541 454.76C388.245 454.516 387.829 454.394 387.294 454.394C386.59 454.394 385.978 454.645 385.459 455.146C384.942 455.634 384.591 456.405 384.405 457.459C384.222 458.499 384.301 459.27 384.643 459.772C384.988 460.26 385.512 460.504 386.217 460.504ZM392.983 462.624L395.461 448.573H398.338L395.86 462.624H392.983ZM399.804 450.963L400.225 448.573H403.102L402.68 450.963H399.804ZM397.747 462.624L399.569 452.293H402.446L400.624 462.624H397.747ZM406.043 462.798C404.791 462.798 403.858 462.354 403.244 461.468C402.633 460.568 402.484 459.232 402.796 457.459C403.111 455.673 403.732 454.336 404.658 453.45C405.586 452.55 406.677 452.1 407.929 452.1C408.738 452.1 409.398 452.28 409.909 452.64C410.433 453 410.765 453.482 410.906 454.086H411.063L412.035 448.573H414.912L412.435 462.624H409.655L409.877 460.812H409.72C409.368 461.403 408.866 461.885 408.213 462.258C407.575 462.618 406.852 462.798 406.043 462.798ZM407.544 460.504C408.079 460.504 408.537 460.382 408.919 460.138C409.315 459.894 409.631 459.579 409.869 459.193C410.109 458.795 410.267 458.377 410.344 457.941L410.518 456.958C410.597 456.508 410.586 456.09 410.484 455.705C410.382 455.319 410.177 455.004 409.868 454.76C409.571 454.516 409.156 454.394 408.621 454.394C407.916 454.394 407.305 454.645 406.786 455.146C406.269 455.634 405.918 456.405 405.732 457.459C405.549 458.499 405.628 459.27 405.97 459.772C406.315 460.26 406.839 460.504 407.544 460.504ZM417.841 462.798C416.589 462.798 415.656 462.354 415.042 461.468C414.431 460.568 414.282 459.232 414.594 457.459C414.909 455.673 415.53 454.336 416.456 453.45C417.384 452.55 418.475 452.1 419.727 452.1C420.536 452.1 421.196 452.28 421.707 452.64C422.23 453 422.563 453.482 422.704 454.086H422.861L423.294 452.293H426.054L424.232 462.624H421.355L421.675 460.812H421.518C421.166 461.403 420.664 461.885 420.011 462.258C419.373 462.618 418.65 462.798 417.841 462.798ZM419.342 460.504C419.876 460.504 420.335 460.382 420.717 460.138C421.113 459.894 421.429 459.579 421.667 459.193C421.907 458.795 422.065 458.377 422.142 457.941L422.315 456.958C422.395 456.508 422.384 456.09 422.282 455.705C422.18 455.319 421.975 455.004 421.666 454.76C421.369 454.516 420.954 454.394 420.419 454.394C419.714 454.394 419.103 454.645 418.584 455.146C418.067 455.634 417.716 456.405 417.53 457.459C417.346 458.499 417.426 459.27 417.768 459.772C418.112 460.26 418.637 460.504 419.342 460.504ZM429.572 462.624C428.867 462.624 428.337 462.521 427.982 462.316C427.627 462.11 427.404 461.821 427.313 461.448C427.237 461.063 427.245 460.613 427.336 460.099L428.311 454.568H426.432L426.833 452.293H428.712L429.208 449.479L432.113 449.209L431.569 452.293H433.683L433.282 454.568H431.168L430.288 459.56C430.234 459.868 430.269 460.074 430.395 460.176C430.52 460.279 430.72 460.33 430.994 460.33H432.266L431.862 462.624H429.572ZM437.352 462.798C436.256 462.798 435.355 462.579 434.649 462.142C433.956 461.705 433.47 461.095 433.191 460.311C432.914 459.515 432.868 458.589 433.054 457.536C433.251 456.418 433.63 455.454 434.19 454.645C434.764 453.835 435.474 453.212 436.32 452.775C437.17 452.325 438.11 452.1 439.14 452.1C440.354 452.1 441.305 452.364 441.995 452.891C442.688 453.405 443.123 454.118 443.301 455.03C443.482 455.93 443.413 456.951 443.094 458.095H435.793C435.635 458.917 435.739 459.553 436.103 460.003C436.469 460.44 437.012 460.658 437.729 460.658C438.277 460.658 438.761 460.543 439.18 460.311C439.614 460.067 439.919 459.746 440.094 459.348H442.814C442.6 460.041 442.226 460.645 441.692 461.159C441.171 461.673 440.539 462.078 439.795 462.374C439.054 462.656 438.239 462.798 437.352 462.798ZM438.763 454.24C438.111 454.24 437.549 454.426 437.079 454.799C436.611 455.159 436.296 455.653 436.133 456.283H440.595C440.678 455.589 440.54 455.075 440.182 454.741C439.836 454.407 439.363 454.24 438.763 454.24ZM443.333 462.624L443.792 460.022H446.551L446.092 462.624H443.333Z" fill="#003650"/>
<g id="Group 633139_2">
<circle id="Ellipse 1437_2" cx="39.8513" cy="39.8513" r="39.5059" transform="matrix(1 0 -0.173648 0.984808 343.367 342.438)" stroke="#003650" stroke-width="0.690756"/>
<g id="Group 633141">
<circle id="Ellipse 1438_2" cx="39.8513" cy="39.8513" r="39.8513" transform="matrix(1 0 -0.173648 0.984808 374.451 342.438)" fill="#308D9C"/>
<g id="Crosshair" clip-path="url(#clip5_4047_10858)">
<path id="Vector_8" d="M406.123 391.334L406.623 388.5" stroke="white" stroke-width="1.43907" stroke-linecap="round" stroke-linejoin="round"/>
<path id="Vector_9" d="M406.373 389.917C410.744 389.917 414.903 386.428 415.662 382.123C416.422 377.818 413.493 374.328 409.122 374.328C404.751 374.328 400.592 377.818 399.833 382.123C399.074 386.428 402.002 389.917 406.373 389.917Z" stroke="white" stroke-width="1.43907" stroke-linecap="round" stroke-linejoin="round"/>
<path id="Vector_10" d="M409.371 372.91L408.871 375.745" stroke="white" stroke-width="1.43907" stroke-linecap="round" stroke-linejoin="round"/>
<path id="Vector_11" d="M398.395 382.121H401.273" stroke="white" stroke-width="1.43907" stroke-linecap="round" stroke-linejoin="round"/>
<path id="Vector_12" d="M417.103 382.121H414.225" stroke="white" stroke-width="1.43907" stroke-linecap="round" stroke-linejoin="round"/>
<path id="Vector_13" d="M407.248 384.958C408.837 384.958 410.35 383.689 410.626 382.123C410.902 380.558 409.837 379.289 408.247 379.289C406.658 379.289 405.145 380.558 404.869 382.123C404.593 383.689 405.658 384.958 407.248 384.958Z" stroke="white" stroke-width="1.43907" stroke-linecap="round" stroke-linejoin="round"/>
</g>
</g>
</g>
</g>
</g>
<g id="Row_3">
<g id="Yellow">
<g clip-path="url(#clip6_4047_10858)">
<rect width="166.933" height="166.933" rx="15.5739" transform="matrix(1 0 -0.173648 0.984808 97.6895 502.301)" fill="#F6BE52"/>
<g id="Frame">
<g id="Container_2">
<g id="Graphic_2">
<circle id="Ellipse 1437_3" cx="39.8513" cy="39.8513" r="39.5059" transform="matrix(1 0 -0.173648 0.984808 124.418 529.512)" stroke="#003650" stroke-width="0.690756"/>
<circle id="Ellipse 1437_4" cx="39.8513" cy="39.8513" r="39.5059" transform="matrix(1 0 -0.173648 0.984808 148.596 529.512)" stroke="#003650" stroke-width="0.690756"/>
<g id="Intersect">
<mask id="path-78-inside-1_4047_10858" fill="white">
<path d="M176.032 531.352C191.243 536.393 200.29 551.233 197.2 568.758C194.11 586.283 179.829 601.122 162.841 606.163C147.631 601.122 138.584 586.282 141.674 568.758C144.764 551.234 159.044 536.393 176.032 531.352Z"/>
</mask>
<path d="M176.032 531.352C191.243 536.393 200.29 551.233 197.2 568.758C194.11 586.283 179.829 601.122 162.841 606.163C147.631 601.122 138.584 586.282 141.674 568.758C144.764 551.234 159.044 536.393 176.032 531.352Z" fill="#C28F2D"/>
<path d="M176.032 531.352L176.356 530.703L176.158 530.638L175.937 530.703L176.032 531.352ZM197.2 568.758H197.891V568.758H197.2ZM162.841 606.163L162.517 606.812L162.715 606.877L162.936 606.812L162.841 606.163ZM141.674 568.758H140.983V568.758H141.674ZM176.032 531.352L175.709 532C190.656 536.954 199.546 551.538 196.509 568.758H197.2H197.891C201.035 550.928 191.83 535.832 176.356 530.703L176.032 531.352ZM197.2 568.758H196.509C193.473 585.978 179.441 600.561 162.746 605.515L162.841 606.163L162.936 606.812C180.218 601.683 194.747 586.588 197.891 568.758H197.2ZM162.841 606.163L163.165 605.515C148.218 600.561 139.328 585.977 142.365 568.758H141.674H140.983C137.839 586.587 147.045 601.683 162.517 606.812L162.841 606.163ZM141.674 568.758H142.365C145.401 551.538 159.433 536.954 176.127 532L176.032 531.352L175.937 530.703C158.656 535.832 144.127 550.929 140.983 568.758H141.674Z" fill="#825F1A" mask="url(#path-78-inside-1_4047_10858)"/>
</g>
<g id="Group 633141_2">
<g id="RocketLaunch" clip-path="url(#clip7_4047_10858)">
<g id="Icon_4">
<path id="Vector_14" d="M165.926 574.116C164.371 577.119 160.305 577.119 160.305 577.119C160.305 577.119 161.011 573.115 164.238 572.105" stroke="white" stroke-width="1.43907" stroke-linecap="round" stroke-linejoin="round"/>
<path id="Vector_15" d="M176.319 567.1L169.152 573.114L165.785 569.102L172.952 563.088C175.665 560.811 177.972 560.838 178.937 560.98C179.086 561 179.215 561.069 179.305 561.176C179.395 561.283 179.441 561.423 179.435 561.573C179.407 562.547 179.032 564.824 176.319 567.1Z" stroke="white" stroke-width="1.43907" stroke-linecap="round" stroke-linejoin="round"/>
<path id="Vector_16" d="M175.126 568.105L174.117 573.827C174.081 574.014 173.972 574.193 173.814 574.323L170.402 577.193C170.294 577.284 170.168 577.348 170.036 577.379C169.904 577.411 169.772 577.407 169.654 577.37C169.536 577.333 169.436 577.263 169.365 577.168C169.295 577.073 169.255 576.956 169.252 576.83L169.151 573.119" stroke="white" stroke-width="1.43907" stroke-linecap="round" stroke-linejoin="round"/>
<path id="Vector_17" d="M171.761 564.09H165.951C165.76 564.093 165.566 564.169 165.409 564.302L161.991 567.163C161.883 567.254 161.797 567.368 161.744 567.492C161.69 567.617 161.671 567.747 161.687 567.87C161.703 567.993 161.754 568.103 161.836 568.189C161.917 568.275 162.025 568.334 162.149 568.359L165.786 569.103" stroke="white" stroke-width="1.43907" stroke-linecap="round" stroke-linejoin="round"/>
</g>
</g>
</g>
</g>
</g>
<path id="Rectangle 34624177" d="M220.125 649.664L227.522 607.715H233.278L224.882 655.333H182.285L183.185 650.231L220.125 649.664Z" fill="#F6BE52"/>
</g>
<path id="Build." d="M174.556 649.765L177.033 635.714H184.04C185.488 635.714 186.519 636.048 187.131 636.716C187.747 637.372 187.959 638.239 187.769 639.318C187.642 640.038 187.339 640.68 186.861 641.246C186.396 641.811 185.801 642.19 185.075 642.383L185.048 642.537C185.841 642.704 186.4 643.083 186.727 643.674C187.068 644.252 187.169 644.94 187.028 645.736C186.795 647.06 186.168 648.062 185.148 648.743C184.14 649.424 182.821 649.765 181.19 649.765H174.556ZM178.972 641.477H182.299C183.004 641.477 183.541 641.316 183.911 640.995C184.294 640.674 184.531 640.256 184.621 639.742C184.723 639.164 184.603 638.734 184.262 638.451C183.935 638.155 183.453 638.008 182.813 638.008H179.584L178.972 641.477ZM177.919 647.452H181.265C182.074 647.452 182.699 647.278 183.138 646.931C183.578 646.585 183.847 646.128 183.947 645.563C184.06 644.921 183.941 644.452 183.588 644.156C183.251 643.848 182.737 643.693 182.046 643.693H178.581L177.919 647.452ZM191.045 649.938C189.832 649.938 188.967 649.591 188.45 648.897C187.933 648.204 187.791 647.195 188.024 645.871L189.159 639.434H192.036L191.034 645.12C190.889 645.942 190.928 646.572 191.151 647.009C191.389 647.433 191.867 647.645 192.585 647.645C193.316 647.645 193.92 647.4 194.397 646.912C194.89 646.411 195.196 645.82 195.317 645.139L196.323 639.434H199.2L197.378 649.765H194.618L194.834 647.876H194.697C194.331 648.544 193.817 649.058 193.153 649.418C192.505 649.765 191.802 649.938 191.045 649.938ZM201.213 638.104L201.635 635.714H204.512L204.09 638.104H201.213ZM199.157 649.765L200.979 639.434H203.856L202.034 649.765H199.157ZM203.921 649.765L206.399 635.714H209.276L206.798 649.765H203.921ZM212.217 649.938C210.965 649.938 210.032 649.495 209.418 648.608C208.807 647.709 208.658 646.372 208.97 644.599C209.285 642.813 209.906 641.477 210.832 640.59C211.76 639.691 212.851 639.241 214.103 639.241C214.912 639.241 215.572 639.421 216.083 639.781C216.607 640.141 216.939 640.622 217.081 641.226H217.237L218.209 635.714H221.086L218.609 649.765H215.829L216.051 647.953H215.894C215.542 648.544 215.04 649.026 214.387 649.399C213.75 649.758 213.026 649.938 212.217 649.938ZM213.718 647.645C214.253 647.645 214.711 647.523 215.094 647.278C215.489 647.034 215.805 646.719 216.043 646.334C216.283 645.936 216.441 645.518 216.518 645.081L216.692 644.098C216.771 643.648 216.76 643.231 216.658 642.845C216.556 642.46 216.351 642.145 216.042 641.901C215.746 641.657 215.33 641.535 214.795 641.535C214.091 641.535 213.479 641.785 212.96 642.286C212.443 642.775 212.092 643.546 211.906 644.599C211.723 645.64 211.802 646.411 212.144 646.912C212.489 647.4 213.013 647.645 213.718 647.645ZM220.229 649.765L220.688 647.163H223.448L222.989 649.765H220.229Z" fill="#001823"/>
</g>
</g>
</g>
</g>
<path id="Connector" d="M106.134 244.909L102.648 236.406L112.619 236.406L106.134 244.909ZM115.505 191.763L114.642 191.763V191.763L115.505 191.763ZM111.469 214.653L112.333 214.653L111.469 214.653ZM115.505 191.763L114.642 191.763L117.265 176.883L118.129 176.883L118.992 176.883L116.369 191.763L115.505 191.763ZM107.483 237.256L106.62 237.256L110.606 214.653L111.469 214.653L112.333 214.653L108.347 237.256L107.483 237.256ZM111.469 214.653L110.606 214.653L114.642 191.763L115.505 191.763L116.369 191.763L112.333 214.653L111.469 214.653Z" fill="#A4B9C2"/>
<path id="Connector_2" d="M308.052 588.44L315.821 593.35L317.552 583.531L308.052 588.44ZM373.733 555.459L374.597 555.459L374.598 555.453L373.733 555.459ZM373.733 555.459L374.598 555.453L378.208 534.013L377.344 534.02L376.479 534.026L372.869 555.466L373.733 555.459ZM315.823 588.44L315.673 589.291L351.125 589.291L351.275 588.44L351.425 587.59L315.973 587.59L315.823 588.44ZM370.808 572.05L371.671 572.05L374.597 555.459L373.733 555.459L372.87 555.459L369.944 572.05L370.808 572.05ZM351.275 588.44L351.125 589.291C360.793 589.291 369.992 581.572 371.671 572.05L370.808 572.05L369.944 572.05C368.431 580.633 360.139 587.59 351.425 587.59L351.275 588.44Z" fill="#A4B9C2"/>
</g>
</g>
</g>
</g>
<defs>
<linearGradient id="paint0_linear_4047_10858" x1="0" y1="0.5" x2="756.378" y2="0.5" gradientUnits="userSpaceOnUse">
<stop offset="0.351303" stop-color="#E6F7FF" stop-opacity="0"/>
<stop offset="0.46324" stop-color="#E6F7FF"/>
<stop offset="0.850962" stop-color="#E6F7FF"/>
<stop offset="0.907856" stop-color="#003650"/>
</linearGradient>
<linearGradient id="paint1_linear_4047_10858" x1="0" y1="0.5" x2="584.84" y2="0.5" gradientUnits="userSpaceOnUse">
<stop offset="0.469529" stop-color="#E6F7FF" stop-opacity="0"/>
<stop offset="0.605186" stop-color="#E6F7FF"/>
<stop offset="0.850962" stop-color="#E6F7FF"/>
<stop offset="1" stop-color="#003650"/>
</linearGradient>
<linearGradient id="paint2_linear_4047_10858" x1="0" y1="0.5" x2="938.277" y2="0.5" gradientUnits="userSpaceOnUse">
<stop offset="0.282847" stop-color="#E6F7FF" stop-opacity="0"/>
<stop offset="0.396432" stop-color="#E6F7FF"/>
<stop offset="0.850962" stop-color="#E6F7FF"/>
<stop offset="0.9328" stop-color="#003650"/>
</linearGradient>
<linearGradient id="paint3_linear_4047_10858" x1="0" y1="0.5" x2="756.378" y2="0.5" gradientUnits="userSpaceOnUse">
<stop offset="0.359131" stop-color="#E6F7FF" stop-opacity="0"/>
<stop offset="0.472634" stop-color="#E6F7FF"/>
<stop offset="0.850962" stop-color="#E6F7FF"/>
<stop offset="1" stop-color="#003650"/>
</linearGradient>
<linearGradient id="paint4_linear_4047_10858" x1="0" y1="0.5" x2="962.453" y2="0.5" gradientUnits="userSpaceOnUse">
<stop offset="0.272393" stop-color="#E6F7FF" stop-opacity="0"/>
<stop offset="0.451923" stop-color="#E6F7FF"/>
<stop offset="0.850962" stop-color="#E6F7FF"/>
<stop offset="1" stop-color="#003650"/>
</linearGradient>
<linearGradient id="paint5_linear_4047_10858" x1="0" y1="0.5" x2="962.453" y2="0.5" gradientUnits="userSpaceOnUse">
<stop offset="0.280151" stop-color="#E6F7FF" stop-opacity="0"/>
<stop offset="0.396419" stop-color="#E6F7FF"/>
<stop offset="0.850962" stop-color="#E6F7FF"/>
<stop offset="1" stop-color="#003650"/>
</linearGradient>
<linearGradient id="paint6_linear_4047_10858" x1="0" y1="0.5" x2="719.537" y2="0.5" gradientUnits="userSpaceOnUse">
<stop offset="0.115255" stop-color="#E6F7FF" stop-opacity="0"/>
<stop offset="0.408654" stop-color="#E6F7FF"/>
<stop offset="0.5625" stop-color="#E6F7FF"/>
<stop offset="0.815503" stop-color="#E6F7FF" stop-opacity="0"/>
</linearGradient>
<linearGradient id="paint7_linear_4047_10858" x1="0" y1="0.5" x2="445.537" y2="0.5" gradientUnits="userSpaceOnUse">
<stop offset="0.252789" stop-color="#E6F7FF" stop-opacity="0"/>
<stop offset="0.408654" stop-color="#E6F7FF"/>
<stop offset="0.5625" stop-color="#E6F7FF"/>
<stop offset="1" stop-color="#E6F7FF" stop-opacity="0"/>
</linearGradient>
<linearGradient id="paint8_linear_4047_10858" x1="0" y1="0.5" x2="815.092" y2="0.5" gradientUnits="userSpaceOnUse">
<stop offset="0.114011" stop-color="#E6F7FF" stop-opacity="0"/>
<stop offset="0.408654" stop-color="#E6F7FF"/>
<stop offset="0.5625" stop-color="#E6F7FF"/>
<stop offset="0.801175" stop-color="#E6F7FF" stop-opacity="0"/>
</linearGradient>
<linearGradient id="paint9_linear_4047_10858" x1="0" y1="0.5" x2="765.588" y2="0.5" gradientUnits="userSpaceOnUse">
<stop offset="0.12989" stop-color="#E6F7FF" stop-opacity="0"/>
<stop offset="0.408654" stop-color="#E6F7FF"/>
<stop offset="0.5625" stop-color="#E6F7FF"/>
<stop offset="0.808125" stop-color="#E6F7FF" stop-opacity="0"/>
</linearGradient>
<linearGradient id="paint10_linear_4047_10858" x1="0" y1="0.5" x2="798.974" y2="0.5" gradientUnits="userSpaceOnUse">
<stop offset="0.128991" stop-color="#E6F7FF" stop-opacity="0"/>
<stop offset="0.408654" stop-color="#E6F7FF"/>
<stop offset="0.5625" stop-color="#E6F7FF"/>
<stop offset="1" stop-color="#E6F7FF" stop-opacity="0"/>
</linearGradient>
<linearGradient id="paint11_linear_4047_10858" x1="0" y1="0.5" x2="805.882" y2="0.5" gradientUnits="userSpaceOnUse">
<stop offset="0.108784" stop-color="#E6F7FF" stop-opacity="0"/>
<stop offset="0.408654" stop-color="#E6F7FF"/>
<stop offset="0.5625" stop-color="#E6F7FF"/>
<stop offset="1" stop-color="#E6F7FF" stop-opacity="0"/>
</linearGradient>
<clipPath id="clip0_4047_10858">
<rect width="749" height="764" fill="white"/>
</clipPath>
<clipPath id="clip1_4047_10858">
<rect width="166.933" height="166.933" rx="15.5739" transform="matrix(1 0 -0.173648 0.984808 163.66 128.156)" fill="white"/>
</clipPath>
<clipPath id="clip2_4047_10858">
<rect width="166.933" height="166.933" rx="15.5739" transform="matrix(1 0 -0.173648 0.984808 353.617 128.156)" fill="white"/>
</clipPath>
<clipPath id="clip3_4047_10858">
<rect width="10.8858" height="10.8858" fill="white" transform="matrix(0.173648 -0.984808 -1 -4.30473e-08 481.51 226.676)"/>
</clipPath>
<clipPath id="clip4_4047_10858">
<rect width="23.0252" height="23.0252" fill="white" transform="matrix(-0.173648 0.984808 1 4.30473e-08 591.252 183.688)"/>
</clipPath>
<clipPath id="clip5_4047_10858">
<rect width="23.0252" height="23.0252" fill="white" transform="matrix(1 0 -0.173648 0.984808 398.234 370.785)"/>
</clipPath>
<clipPath id="clip6_4047_10858">
<rect width="166.933" height="166.933" rx="15.5739" transform="matrix(1 0 -0.173648 0.984808 97.6895 502.301)" fill="white"/>
</clipPath>
<clipPath id="clip7_4047_10858">
<rect width="23.0252" height="23.0252" fill="white" transform="matrix(1 0 -0.173648 0.984808 160.312 557.957)"/>
</clipPath>
</defs>
</svg>
