<?xml version="1.0"?>
<svg xmlns="http://www.w3.org/2000/svg" width="137" height="15" viewBox="0 0 137 15" fill="none">
<path d="M119.811 14.9668H116.832L115.814 11.6807H110.235L109.242 14.9668H106.265L111.193 0.0253906H114.941L119.811 14.9668ZM78.6943 0C81.7335 1.35607e-05 84.0689 1.08551 84.2119 4.3125L84.2295 4.63672C84.2294 6.79089 83.1817 8.12637 81.623 8.82129L84.8301 14.9463H81.6875L78.7939 9.41211H76.0137V14.9414H73.1748V0H78.6943ZM44.7549 0.0253906C47.9417 0.0253906 50.4335 1.46959 50.4336 4.9541C50.4336 8.43883 47.9219 9.88379 44.7549 9.88379H42.5166V14.9424H39.6768V0.0253906H44.7549ZM9.8584 2.61621H6.34863V12.3262H9.8584V14.9365H0V12.3262H3.50977V2.61621H0V0H9.8584V2.61621ZM24.8398 8.78125L28.4238 0H32.4541V14.9365H29.7686V3.76758L26.334 11.6504H23.3457L19.9102 3.76758V14.9365H17.2197V0H21.251L24.8398 8.78125ZM66.1162 2.61621H59.2461V6.05078H65.5205V8.58789H59.2461V12.3252H66.1162V14.9365H56.4062V0H66.1162V2.61621ZM100.625 2.61621H97.1104V12.3252H100.625V14.9365H90.7617V12.3252H94.2715V2.61621H90.7617V0H100.625V2.61621ZM129.119 12.3252H136.014V14.9365H126.279V0H129.119V12.3252ZM111.034 9.24316H115.115L113.075 2.65137L111.034 9.24316ZM42.5166 7.4707H44.6064C46.2445 7.47064 47.4453 6.6815 47.4453 4.9541C47.4452 3.2269 46.2444 2.43756 44.6064 2.4375L42.5166 2.41309V7.4707ZM76.0137 6.99902H78.4014C80.1982 6.99902 81.241 6.43343 81.2412 4.63184C81.2412 3.13767 80.3473 2.41211 78.4014 2.41211H76.0137V6.99902Z" fill="#ffffff"/>
</svg>
