<?xml version="1.0"?>
<svg xmlns="http://www.w3.org/2000/svg" width="32" height="32" viewBox="0 0 32 32" fill="none">
<path id="instagram-icon" fill-rule="evenodd" clip-rule="evenodd" d="M9.1706 0.0946321C7.5085 0.173225 6.37532 0.442686 5.38339 0.837254C4.35694 1.24465 3.48587 1.78999 2.6195 2.67697C1.75156 3.56394 1.21793 4.45252 0.81928 5.5015C0.433183 6.51518 0.171076 7.67483 0.0941702 9.37339C0.018834 11.0736 0 11.6157 0 15.9463C0 20.2785 0.018834 20.8223 0.0941702 22.5224C0.171076 24.221 0.433183 25.3775 0.81928 26.3927C1.21793 27.4417 1.75156 28.3319 2.6195 29.2173C3.48587 30.1059 4.35694 30.6496 5.38339 31.057C6.37532 31.4516 7.5085 31.721 9.1706 31.798C10.8358 31.875 11.3679 31.8958 15.6056 31.8958C19.8432 31.8958 20.3737 31.875 22.0374 31.798C23.6995 31.721 24.8342 31.4516 25.8277 31.057C26.8526 30.6496 27.7221 30.1059 28.5916 29.2173C29.458 28.3319 29.9916 27.4417 30.3903 26.3927C30.7764 25.3775 31.0401 24.221 31.117 22.5224C31.1923 20.8223 31.2096 20.2785 31.2096 15.9463C31.2096 11.6157 31.1923 11.0736 31.117 9.37339C31.0401 7.67483 30.7764 6.51518 30.3903 5.5015C29.9916 4.45252 29.458 3.56394 28.5916 2.67697C27.7221 1.78999 26.8526 1.24465 25.8277 0.837254C24.8342 0.442686 23.6995 0.173225 22.0374 0.0946321C20.3737 0.0192472 19.8432 0 15.6056 0C11.3679 0 10.8358 0.0192472 9.1706 0.0946321ZM9.2994 28.9267C7.77698 28.8562 6.95142 28.5979 6.4021 28.3798C5.67385 28.0895 5.15434 27.743 4.60658 27.1865C4.06197 26.6283 3.72138 26.0958 3.43887 25.3516C3.22699 24.7902 2.97273 23.9449 2.90367 22.3907C2.82834 20.7098 2.81107 20.2061 2.81107 15.9461C2.81107 11.6892 2.82834 11.184 2.90367 9.50308C2.97273 7.94887 3.22699 7.1036 3.43887 6.54222C3.72138 5.79639 4.06197 5.26549 4.60658 4.70892C5.15434 4.14915 5.67385 3.80431 6.4021 3.51399C6.95142 3.29746 7.77698 3.03602 9.2994 2.96545C10.9458 2.89006 11.4386 2.87402 15.6057 2.87402C19.7711 2.87402 20.2655 2.89006 21.9104 2.96545C23.4328 3.03602 24.2583 3.29746 24.8092 3.51399C25.5375 3.80431 26.057 4.14915 26.6016 4.70892C27.1494 5.26549 27.4868 5.79639 27.7709 6.54222C27.9843 7.1036 28.2386 7.94887 28.3076 9.50308C28.383 11.184 28.3971 11.6892 28.3971 15.9461C28.3971 20.2061 28.383 20.7098 28.3076 22.3907C28.2386 23.9449 27.9843 24.7902 27.7709 25.3516C27.4868 26.0958 27.1494 26.6283 26.6016 27.1865C26.057 27.743 25.5375 28.0895 24.8092 28.3798C24.2583 28.5979 23.4328 28.8562 21.9104 28.9267C20.2655 29.0037 19.7711 29.0214 15.6057 29.0214C11.4386 29.0214 10.9458 29.0037 9.2994 28.9267ZM7.59153 15.9459C7.59153 20.469 11.1794 24.1356 15.6054 24.1356C20.0314 24.1356 23.6177 20.469 23.6177 15.9459C23.6177 11.4244 20.0314 7.75781 15.6054 7.75781C11.1794 7.75781 7.59153 11.4244 7.59153 15.9459ZM10.4026 15.9457C10.4026 13.0105 12.7318 10.6318 15.6055 10.6318C18.4777 10.6318 20.8069 13.0105 20.8069 15.9457C20.8069 18.8841 18.4777 21.2627 15.6055 21.2627C12.7318 21.2627 10.4026 18.8841 10.4026 15.9457ZM23.9349 9.3475C22.9006 9.3475 22.0625 8.49099 22.0625 7.43561C22.0625 6.37701 22.9006 5.52051 23.9349 5.52051C24.9692 5.52051 25.8073 6.37701 25.8073 7.43561C25.8073 8.49099 24.9692 9.3475 23.9349 9.3475Z" fill="#1585BB"/>
</svg>
