<?xml version="1.0"?>
<svg xmlns="http://www.w3.org/2000/svg" width="32" height="34" viewBox="0 0 32 34" fill="none">
<path id="linkedin-icon" fill-rule="evenodd" clip-rule="evenodd" d="M2.65089 0C1.18968 0 0 1.19012 0 2.65451V29.3905C0 30.8533 1.18968 32.0434 2.65089 32.0434H28.5116C29.9744 32.0434 31.164 30.8533 31.164 29.3905V2.65451C31.164 1.19012 29.9744 0 28.5116 0H2.65089ZM4.75237 8.09039C4.75237 6.70941 5.77725 5.65723 7.34518 5.65723C8.91312 5.65723 9.87836 6.70941 9.90818 8.09039C9.90818 9.44251 8.91312 10.5252 7.31536 10.5252H7.28554C5.74743 10.5252 4.75237 9.44251 4.75237 8.09039ZM20.8571 12.1191C23.8737 12.1191 26.1354 14.1337 26.1354 18.4611V26.5417H21.5524V19.0032C21.5524 17.1106 20.8885 15.8162 19.2296 15.8162C17.9645 15.8162 17.208 16.6871 16.8784 17.5292C16.756 17.8291 16.7262 18.2526 16.7262 18.6728V26.5417H12.1433C12.1433 26.5417 12.2029 13.7712 12.1433 12.4496H16.7262V14.4464C17.3352 13.4857 18.4244 12.1191 20.8571 12.1191ZM5.02374 26.5424H9.60669V12.4502H5.02374V26.5424Z" fill="#1585BB"/>
</svg>
