<?xml version="1.0"?>
<svg xmlns="http://www.w3.org/2000/svg" width="26" height="36" viewBox="0 0 26 36" fill="none">
<g id="p-icon">
<path id="Path" d="M2.94814 36C3.76549 36 4.46115 35.7233 5.03512 35.1698C5.60908 34.6164 5.89607 33.9539 5.89607 33.1825V20.8301L13.827 20.7798C15.8969 20.7798 17.6535 20.4528 19.0971 19.7987C20.5407 19.1446 21.7016 18.2978 22.5799 17.2579C23.4582 16.218 24.0888 15.0944 24.4712 13.8869C24.8539 12.6792 25.0279 11.5137 24.9931 10.3899C25.0628 8.59533 24.6018 6.79251 23.6105 4.98123C23.575 4.94666 23.5481 4.90347 23.5322 4.85545L23.4016 4.72966C22.8626 3.85742 22.1669 3.07757 21.3146 2.38988C20.5667 1.63518 19.6841 1.05246 18.6665 0.641494C17.6491 0.23053 16.3142 0.0251566 14.662 0.0251566C14.3839 0.00839773 14.1055 8.73887e-06 13.827 0V0.0251566H10.8791L5.844 0H2.94793C2.13037 0 1.43471 0.276723 0.860743 0.830169C0.286983 1.38361 0 2.04614 0 2.81754C0 3.60586 0.291322 4.28942 0.873966 4.86802C1.45661 5.44663 2.15661 5.73593 2.97417 5.73593L6.28739 5.71077H13.827C15.2706 5.71077 16.4446 6.18441 17.3491 7.13212C18.2535 8.07983 18.7058 9.18239 18.7058 10.4402H18.7318C18.6971 11.7317 18.2318 12.8388 17.3361 13.7611C16.4403 14.6834 15.2793 15.1447 13.8531 15.1447C13.314 15.1447 12.314 15.1404 10.8529 15.1321C9.39193 15.1237 8.13098 15.1196 7.07003 15.1196H6.31342L3.0002 15.0944C2.14793 15.0944 1.42624 15.413 0.834916 16.0504C0.295661 16.5871 0.026033 17.2327 0.026033 17.9874V33.1825C0.026033 33.9539 0.313223 34.6164 0.886982 35.1698C1.46095 35.7233 2.14793 36 2.94814 36Z" fill="#1585BB"/>
</g>
</svg>
