<?xml version="1.0"?>
<svg xmlns="http://www.w3.org/2000/svg" width="38" height="31" viewBox="0 0 38 31" fill="none">
<path d="M37.4 0.00038743V7.30039L35.5 7.40039C33.3 7.40039 31.7333 7.93372 30.8 9.00038C29.9333 10.0004 29.5 11.4337 29.5 13.3004V16.8004H35.9V30.3004H21.8V12.6004C21.8 7.93372 22.8667 4.70039 25 2.90039C27.1333 1.03372 30.0333 0.0670532 33.7 0.00038743H37.4ZM15.6 0.00038743V7.30039L13.7 7.40039C11.5 7.40039 9.93333 7.93372 9 9.00038C8.13333 10.0004 7.7 11.4337 7.7 13.3004V16.8004H14.1V30.3004H7.45058e-08V12.6004C7.45058e-08 7.93372 1.06667 4.70039 3.2 2.90039C5.33333 1.03372 8.23333 0.0670532 11.9 0.00038743H15.6Z" fill="#003650"/>
</svg>
