<svg width="172" height="172" viewBox="0 0 172 172" fill="none" xmlns="http://www.w3.org/2000/svg">
<rect width="172" height="172" fill="#F8F8F8"/>
<g id="discovery v3">
<rect width="1920" height="17398" transform="translate(-1134.31 -1132.25)" fill="white"/>
<g id="Data">
<rect width="1920" height="684" transform="translate(-1134.31 -156.25)" fill="white"/>
<g id="inner container">
<g id="content + img">
<g id="content + img_2">
<g id="image">
<g id="content + img_3">
<g id="image_2">
<g id="image_3">
<g id="Data_2">
<g id="Frame 1000003229">
<g id="Progress circle">
<g id="Ring">
<path id="Background" d="M85.752 5.75C96.2577 5.75 106.661 7.81926 116.367 11.8396C126.073 15.86 134.892 21.7528 142.321 29.1815C149.749 36.6102 155.642 45.4293 159.662 55.1353C163.683 64.8414 165.752 75.2443 165.752 85.75C165.752 96.2558 163.683 106.659 159.662 116.365C155.642 126.071 149.749 134.89 142.32 142.319C134.892 149.747 126.073 155.64 116.367 159.66C106.661 163.681 96.2577 165.75 85.7519 165.75C75.2462 165.75 64.8433 163.681 55.1373 159.66C45.4312 155.64 36.6121 149.747 29.1834 142.319C21.7547 134.89 15.8619 126.071 11.8416 116.365C7.8212 106.659 5.75195 96.2557 5.75195 85.75C5.75196 75.2442 7.82123 64.8413 11.8416 55.1353C15.862 45.4292 21.7548 36.6101 29.1834 29.1814C36.6121 21.7527 45.4313 15.86 55.1373 11.8396C64.8434 7.81925 75.2463 5.74999 85.752 5.75L85.752 5.75Z" stroke="#F3F7F9" stroke-width="11.5033" stroke-linecap="round" stroke-linejoin="round"/>
<path id="Line" d="M85.752 5.75C102.646 5.75 119.107 11.0984 132.775 21.0286C146.443 30.9589 156.616 44.9612 161.836 61.0286C167.057 77.0961 167.057 94.4039 161.836 110.471C156.616 126.539 146.443 140.541 132.775 150.471" stroke="#315C71" stroke-width="11.5033" stroke-linecap="round" stroke-linejoin="round"/>
</g>
<g id="Number and label">
<path id="40%" d="M57.8453 99.75L57.8013 92.226H42.6213V88.046L56.3493 68.026H63.3453V87.694H67.5693L67.5253 92.226H63.3453V99.75H57.8453ZM48.1653 87.694H57.8453V73.79L48.1653 87.694ZM81.6603 100.102C79.2257 100.102 77.1283 99.4567 75.3683 98.166C73.6083 96.8753 72.259 95.0127 71.3203 92.578C70.3817 90.1433 69.9123 87.2247 69.9123 83.822C69.9123 80.3313 70.3963 77.3833 71.3643 74.978C72.3617 72.5727 73.7403 70.754 75.5003 69.522C77.2897 68.2607 79.3723 67.63 81.7483 67.63C84.183 67.63 86.2657 68.2753 87.9963 69.566C89.7563 70.8567 91.1057 72.7193 92.0443 75.154C92.983 77.5593 93.4523 80.4633 93.4523 83.866C93.4523 87.386 92.9537 90.3487 91.9563 92.754C90.9883 95.1593 89.6097 96.9927 87.8203 98.254C86.0603 99.486 84.007 100.102 81.6603 100.102ZM81.7043 95.438C82.9657 95.438 84.051 95.0713 84.9603 94.338C85.899 93.5753 86.6323 92.3433 87.1603 90.642C87.6883 88.9407 87.9523 86.6673 87.9523 83.822C87.9523 80.9767 87.6883 78.718 87.1603 77.046C86.6323 75.3447 85.899 74.1273 84.9603 73.394C84.051 72.6607 82.9657 72.294 81.7043 72.294C80.443 72.294 79.3283 72.6607 78.3603 73.394C77.4217 74.1273 76.6883 75.3447 76.1603 77.046C75.6617 78.718 75.4123 80.9767 75.4123 83.822C75.4123 86.6673 75.6617 88.9407 76.1603 90.642C76.6883 92.3433 77.4217 93.5753 78.3603 94.338C79.3283 95.0713 80.443 95.438 81.7043 95.438ZM100.517 99.75L120.889 67.674H124.805L104.389 99.75H100.517ZM102.145 84.966C100.092 84.966 98.4784 84.1887 97.3051 82.634C96.1317 81.0793 95.5451 78.982 95.5451 76.342C95.5451 73.6433 96.1611 71.546 97.3931 70.05C98.6251 68.554 100.238 67.806 102.233 67.806C104.286 67.806 105.885 68.598 107.029 70.182C108.202 71.7367 108.789 73.8193 108.789 76.43C108.789 79.1873 108.173 81.2993 106.941 82.766C105.709 84.2327 104.11 84.966 102.145 84.966ZM102.145 81.798C102.996 81.798 103.685 81.446 104.213 80.742C104.741 80.0087 105.005 78.5567 105.005 76.386C105.005 74.2153 104.741 72.778 104.213 72.074C103.685 71.37 102.996 71.018 102.145 71.018C101.324 71.018 100.649 71.37 100.121 72.074C99.5931 72.778 99.3291 74.2153 99.3291 76.386C99.3291 78.5273 99.5931 79.9647 100.121 80.698C100.649 81.4313 101.324 81.798 102.145 81.798ZM123.133 99.926C121.08 99.926 119.466 99.1487 118.293 97.594C117.12 96.01 116.533 93.9127 116.533 91.302C116.533 88.574 117.149 86.4767 118.381 85.01C119.613 83.514 121.226 82.766 123.221 82.766C125.274 82.766 126.873 83.5433 128.017 85.098C129.19 86.6527 129.777 88.7353 129.777 91.346C129.777 94.1033 129.161 96.23 127.929 97.726C126.726 99.1927 125.128 99.926 123.133 99.926ZM123.177 96.714C123.734 96.714 124.218 96.5673 124.629 96.274C125.04 95.9807 125.362 95.4527 125.597 94.69C125.861 93.898 125.993 92.7833 125.993 91.346C125.993 89.1753 125.729 87.738 125.201 87.034C124.673 86.3007 123.998 85.934 123.177 85.934C122.649 85.934 122.165 86.0807 121.725 86.374C121.285 86.6673 120.933 87.21 120.669 88.002C120.434 88.7647 120.317 89.8793 120.317 91.346C120.317 92.7833 120.434 93.898 120.669 94.69C120.933 95.4527 121.285 95.9807 121.725 96.274C122.165 96.5673 122.649 96.714 123.177 96.714Z" fill="#003650"/>
</g>
</g>
</g>
</g>
</g>
</g>
</g>
</g>
</g>
</g>
</g>
</g>
</g>
</svg>
