<svg width="172" height="172" viewBox="0 0 172 172" fill="none" xmlns="http://www.w3.org/2000/svg">
<rect width="172" height="172" fill="#F8F8F8"/>
<g id="discovery v3">
<rect width="1920" height="17398" transform="translate(-1134.31 -1354.25)" fill="white"/>
<g id="Data">
<rect width="1920" height="684" transform="translate(-1134.31 -378.248)" fill="white"/>
<g id="inner container">
<g id="content + img">
<g id="content + img_2">
<g id="image">
<g id="content + img_3">
<g id="image_2">
<g id="image_3">
<g id="Data_2">
<g id="Frame 1000003231">
<g id="Progress circle">
<g id="Ring">
<path id="Background" d="M85.752 5.75195C96.2577 5.75195 106.661 7.82121 116.367 11.8416C126.073 15.862 134.892 21.7547 142.321 29.1834C149.749 36.6121 155.642 45.4312 159.662 55.1373C163.683 64.8433 165.752 75.2462 165.752 85.752C165.752 96.2577 163.683 106.661 159.662 116.367C155.642 126.073 149.749 134.892 142.32 142.321C134.892 149.749 126.073 155.642 116.367 159.662C106.661 163.683 96.2577 165.752 85.7519 165.752C75.2462 165.752 64.8433 163.683 55.1373 159.662C45.4312 155.642 36.6121 149.749 29.1834 142.32C21.7547 134.892 15.8619 126.073 11.8416 116.367C7.8212 106.661 5.75195 96.2577 5.75195 85.7519C5.75196 75.2462 7.82123 64.8433 11.8416 55.1372C15.862 45.4312 21.7548 36.6121 29.1834 29.1834C36.6121 21.7547 45.4313 15.8619 55.1373 11.8416C64.8434 7.8212 75.2463 5.75195 85.752 5.75195L85.752 5.75195Z" stroke="#E6F0F2" stroke-opacity="0.5" stroke-width="11.5033" stroke-linecap="round" stroke-linejoin="round"/>
<path id="Line" d="M85.752 5.75195C103.722 5.75195 121.168 11.8018 135.28 22.9267C149.391 34.0516 159.347 49.6036 163.542 67.0767C167.736 84.5498 165.926 102.926 158.403 119.245C150.88 135.564 138.082 148.875 122.07 157.033C106.059 165.191 87.7679 167.72 70.1437 164.215C52.5194 160.709 36.5887 151.371 24.9186 137.707C13.2486 124.042 6.51872 106.847 5.81357 88.8913C5.10842 70.9355 10.469 53.2652 21.0316 38.7278" stroke="#315C71" stroke-width="11.5033" stroke-linecap="round" stroke-linejoin="round"/>
</g>
<g id="Number and label">
<path id="85%" d="M54.9573 100.06C52.64 100.06 50.6013 99.708 48.8413 99.004C47.0813 98.3 45.7173 97.288 44.7493 95.968C43.7813 94.648 43.2973 93.0786 43.2973 91.26C43.2973 89.4413 43.84 87.828 44.9253 86.42C46.0107 84.9826 47.492 84.1026 49.3693 83.78V83.56C47.5507 83.1493 46.172 82.284 45.2333 80.964C44.324 79.6146 43.8693 78.0746 43.8693 76.344C43.8693 73.7333 44.852 71.636 46.8173 70.052C48.7827 68.4386 51.496 67.632 54.9573 67.632C57.2747 67.632 59.2547 67.9986 60.8973 68.732C62.5693 69.4653 63.8453 70.492 64.7253 71.812C65.6347 73.132 66.0893 74.672 66.0893 76.432C66.0893 78.104 65.62 79.6146 64.6813 80.964C63.772 82.284 62.3787 83.1493 60.5013 83.56V83.78C62.408 84.0733 63.8893 84.9093 64.9453 86.288C66.0307 87.6666 66.5733 89.3093 66.5733 91.216C66.5733 93.0346 66.0893 94.604 65.1213 95.924C64.1533 97.244 62.7893 98.2706 61.0293 99.004C59.2987 99.708 57.2747 100.06 54.9573 100.06ZM54.9573 81.536C56.864 81.536 58.2573 81.1106 59.1373 80.26C60.0467 79.38 60.5013 78.2653 60.5013 76.916C60.5013 75.4493 59.988 74.3053 58.9613 73.484C57.964 72.6333 56.6293 72.208 54.9573 72.208C53.256 72.208 51.9067 72.6333 50.9093 73.484C49.9413 74.3053 49.4573 75.4493 49.4573 76.916C49.4573 78.324 49.912 79.4533 50.8213 80.304C51.76 81.1253 53.1387 81.536 54.9573 81.536ZM54.9573 95.308C56.7467 95.308 58.1547 94.8826 59.1813 94.032C60.2373 93.1813 60.7653 92.008 60.7653 90.512C60.7653 89.1333 60.2813 88.0333 59.3133 87.212C58.3747 86.3613 56.9227 85.936 54.9573 85.936C52.9627 85.936 51.496 86.376 50.5573 87.256C49.6187 88.136 49.1493 89.2213 49.1493 90.512C49.1493 92.0373 49.6773 93.2253 50.7333 94.076C51.7893 94.8973 53.1973 95.308 54.9573 95.308ZM80.5736 100.148C78.3442 100.148 76.3936 99.7373 74.7216 98.916C73.0496 98.0653 71.7442 96.892 70.8056 95.396C69.8669 93.8706 69.3829 92.1106 69.3536 90.116H74.8976C74.9269 91.6706 75.4549 92.932 76.4816 93.9C77.5376 94.868 78.9162 95.352 80.6176 95.352C82.4949 95.352 83.9469 94.7946 84.9736 93.68C86.0296 92.536 86.5576 91.0693 86.5576 89.28C86.5576 87.3733 86.0149 85.8626 84.9296 84.748C83.8736 83.6333 82.4362 83.076 80.6176 83.076C79.2682 83.076 78.1242 83.3986 77.1856 84.044C76.2762 84.66 75.6162 85.452 75.2056 86.42H70.0136L70.8056 68.028H90.3856V72.824H75.6456L75.2936 80.832L75.5136 80.92C76.1589 80.1866 77.0389 79.6 78.1536 79.16C79.2976 78.72 80.5149 78.5 81.8056 78.5C83.9469 78.5 85.7802 78.9546 87.3056 79.864C88.8602 80.7733 90.0482 82.0346 90.8696 83.648C91.7202 85.232 92.1456 87.0653 92.1456 89.148C92.1456 91.348 91.6762 93.2693 90.7376 94.912C89.7989 96.5546 88.4642 97.8453 86.7336 98.784C85.0029 99.6933 82.9496 100.148 80.5736 100.148ZM99.9429 99.752L120.315 67.676H124.231L103.815 99.752H99.9429ZM101.571 84.968C99.5175 84.968 97.9042 84.1906 96.7309 82.636C95.5575 81.0813 94.9709 78.984 94.9709 76.344C94.9709 73.6453 95.5869 71.548 96.8189 70.052C98.0509 68.556 99.6642 67.808 101.659 67.808C103.712 67.808 105.311 68.6 106.455 70.184C107.628 71.7386 108.215 73.8213 108.215 76.432C108.215 79.1893 107.599 81.3013 106.367 82.768C105.135 84.2346 103.536 84.968 101.571 84.968ZM101.571 81.8C102.422 81.8 103.111 81.448 103.639 80.744C104.167 80.0106 104.431 78.5586 104.431 76.388C104.431 74.2173 104.167 72.78 103.639 72.076C103.111 71.372 102.422 71.02 101.571 71.02C100.75 71.02 100.075 71.372 99.5469 72.076C99.0189 72.78 98.7549 74.2173 98.7549 76.388C98.7549 78.5293 99.0189 79.9666 99.5469 80.7C100.075 81.4333 100.75 81.8 101.571 81.8ZM122.559 99.928C120.506 99.928 118.892 99.1506 117.719 97.596C116.546 96.012 115.959 93.9146 115.959 91.304C115.959 88.576 116.575 86.4786 117.807 85.012C119.039 83.516 120.652 82.768 122.647 82.768C124.7 82.768 126.299 83.5453 127.443 85.1C128.616 86.6546 129.203 88.7373 129.203 91.348C129.203 94.1053 128.587 96.232 127.355 97.728C126.152 99.1946 124.554 99.928 122.559 99.928ZM122.603 96.716C123.16 96.716 123.644 96.5693 124.055 96.276C124.466 95.9826 124.788 95.4546 125.023 94.692C125.287 93.9 125.419 92.7853 125.419 91.348C125.419 89.1773 125.155 87.74 124.627 87.036C124.099 86.3026 123.424 85.936 122.603 85.936C122.075 85.936 121.591 86.0826 121.151 86.376C120.711 86.6693 120.359 87.212 120.095 88.004C119.86 88.7666 119.743 89.8813 119.743 91.348C119.743 92.7853 119.86 93.9 120.095 94.692C120.359 95.4546 120.711 95.9826 121.151 96.276C121.591 96.5693 122.075 96.716 122.603 96.716Z" fill="#003650"/>
</g>
</g>
</g>
</g>
</g>
</g>
</g>
</g>
</g>
</g>
</g>
</g>
</g>
</svg>
