<?xml version="1.0"?>
<svg xmlns="http://www.w3.org/2000/svg" width="112" height="28" viewBox="0 0 112 28" fill="none">
<path fill-rule="evenodd" clip-rule="evenodd" d="M25.4404 2.88627e-09C24.7218 -1.20325e-05 21.4978 0.0376197 21.4978 0.0376197V5.53009H7.92222C7.92223 5.53008 4.72209 5.53009 3.38461 7.82489C2.45922 9.24841 2.57974 10.6042 2.60355 10.7968C2.57974 10.9925 2.49494 12.3498 3.4218 13.7688C4.76227 16.0651 7.92222 16.0636 7.92222 16.0636H15.0634C16.2238 16.0636 16.3979 16.959 16.4023 17.3427C16.3979 17.7249 16.2193 18.5841 15.0634 18.5841H1.48774H0V22.6094H14.9146C14.9146 22.6094 18.0865 22.6215 19.415 20.3146C20.3389 18.8986 20.2511 17.5338 20.2333 17.3427L20.2338 17.3335C20.2477 17.1018 20.3303 15.7262 19.415 14.3331C18.0835 12.0278 14.9146 12.0383 14.9146 12.0383L7.77344 12.0759C6.61897 12.0789 6.44638 11.1791 6.43448 10.7968C6.4434 10.4116 6.61152 9.55991 7.77344 9.5554C8.95621 9.55991 21.3491 9.5554 21.3491 9.5554H21.4978V17.2674V17.2675C21.4978 17.2819 21.494 20.5148 23.7666 21.857C25.1116 22.7509 26.4029 22.6982 26.6677 22.6847H30.9078V18.697H26.6305C26.2274 18.6684 25.4508 18.4412 25.4404 17.3427C25.4459 17.0084 25.4443 15.8045 25.4423 14.2393C25.4404 12.845 25.4383 11.164 25.4404 9.5554L30.8706 9.51778C30.8706 8.78645 30.8334 5.53009 30.8334 5.53009H25.4404V3.68673V2.88627e-09ZM61.2573 0.150146L61.2945 9.78078V23.211H65.237V18.3204L67.4686 15.4614L71.8575 23.2862H76.3951L76.0231 22.6467L76.0174 22.6364C75.8482 22.3338 72.0192 15.4826 70.2953 12.3765L75.8744 5.605H70.7417L65.237 12.2637V0.187766C65.237 0.187766 61.9789 0.150146 61.2573 0.150146ZM106.969 4.3264C106.963 2.92244 108.096 1.84351 109.424 1.84351C110.786 1.84351 111.916 2.93297 111.916 4.3264C111.916 5.73188 110.773 6.84692 109.424 6.84692C108.093 6.85143 106.963 5.72736 106.969 4.3264ZM75.28 14.3708C75.28 9.45468 79.233 5.45494 84.0949 5.45496C88.9643 5.45496 92.9038 9.41705 92.9097 14.3332C92.9097 14.8809 92.8532 15.3956 92.761 15.9132H79.4457C80.0854 17.874 81.7755 19.3742 83.6858 19.4119H84.2065H89.5623V23.2491H83.8345C79.0872 23.1227 75.283 19.2102 75.28 14.3708ZM94.5461 5.64282L94.5833 22.7598H98.563V9.66813H101.91C103.252 9.66812 103.446 10.6477 103.473 11.0601V13.3549H107.415V10.872C107.436 10.5966 107.481 9.30397 106.597 7.93762C105.258 5.64282 102.059 5.64282 102.059 5.64282H94.5833H94.5461ZM32.5444 22.7976L32.47 5.6806H32.5444H39.9831C39.9831 5.6806 43.1832 5.6791 44.5207 7.9754C45.4059 9.33724 45.3553 10.6329 45.3389 10.9097V13.3926H41.3964V11.0978C41.3681 10.687 41.1896 9.67279 39.8343 9.66829H36.4869V22.7976H32.5444ZM45.376 5.71832L50.0252 21.7067L50.174 22.1205C50.2632 22.4877 50.2826 23.0444 49.6161 23.0986H49.1698H44.7065V27.1239H49.7277C49.997 27.1435 51.2898 27.1615 52.6288 26.2587C54.4113 25.1862 55.0797 22.7866 55.334 21.8738C55.3516 21.8107 55.3672 21.7547 55.3811 21.7067C55.634 20.8204 59.9931 5.71832 59.9931 5.71832H56.1249L52.7031 17.9071L49.2441 5.71832H45.376ZM88.6694 12.5277C87.9344 10.6979 86.167 9.40526 84.0946 9.40527C82.0266 9.40527 80.2473 10.6964 79.5198 12.5277H88.6694Z" fill="#ffffff"/>
</svg>
