<?xml version="1.0"?>
<svg xmlns="http://www.w3.org/2000/svg" width="56" height="56" viewBox="0 0 56 56" fill="none">
<rect width="56" height="56" rx="8" fill="#F2F6F7"/>
<g clip-path="url(#clip0_4425_33494)">
<path d="M28 37.75V34.75" stroke="#1585BB" stroke-width="1.875" stroke-linecap="round" stroke-linejoin="round"/>
<path d="M28 36.25C32.5563 36.25 36.25 32.5563 36.25 28C36.25 23.4437 32.5563 19.75 28 19.75C23.4437 19.75 19.75 23.4437 19.75 28C19.75 32.5563 23.4437 36.25 28 36.25Z" stroke="#1585BB" stroke-width="1.875" stroke-linecap="round" stroke-linejoin="round"/>
<path d="M28 18.25V21.25" stroke="#1585BB" stroke-width="1.875" stroke-linecap="round" stroke-linejoin="round"/>
<path d="M18.25 28H21.25" stroke="#1585BB" stroke-width="1.875" stroke-linecap="round" stroke-linejoin="round"/>
<path d="M37.75 28H34.75" stroke="#1585BB" stroke-width="1.875" stroke-linecap="round" stroke-linejoin="round"/>
<path d="M28 31C29.6569 31 31 29.6569 31 28C31 26.3431 29.6569 25 28 25C26.3431 25 25 26.3431 25 28C25 29.6569 26.3431 31 28 31Z" stroke="#1585BB" stroke-width="1.875" stroke-linecap="round" stroke-linejoin="round"/>
</g>
<defs>
<clipPath id="clip0_4425_33494">
<rect width="24" height="24" fill="white" transform="translate(16 16)"/>
</clipPath>
</defs>
</svg>
