<?xml version="1.0"?>
<svg xmlns="http://www.w3.org/2000/svg" width="103" height="31" viewBox="0 0 103 31" fill="none">
<path d="M14.827 11.6351C14.827 13.3855 13.3855 14.827 11.6351 14.827C9.88469 14.827 8.44318 13.3855 8.44318 11.6351C8.44318 9.8847 9.88469 8.44318 11.6351 8.44318C13.3855 8.44318 14.827 9.8847 14.827 11.6351ZM11.6351 16.0626C9.88469 16.0626 8.44318 17.5042 8.44318 19.2546C8.44318 21.005 9.88469 22.4465 11.6351 22.4465C13.3855 22.4465 14.827 21.005 14.827 19.2546C14.827 17.5042 13.3855 16.0626 11.6351 16.0626ZM30.8897 15.4448C30.8897 23.991 23.991 30.8897 15.4448 30.8897C6.89869 30.8897 0 23.991 0 15.4448C0 6.8987 6.89869 0 15.4448 0C23.991 0 30.8897 6.8987 30.8897 15.4448ZM26.771 15.4448C26.771 9.16394 21.7257 4.11862 15.4448 4.11862C9.16394 4.11862 4.11862 9.16394 4.11862 15.4448C4.11862 21.7257 9.16394 26.7711 15.4448 26.7711C21.7257 26.7711 26.771 21.7257 26.771 15.4448ZM19.2546 16.0626C17.5041 16.0626 16.0626 17.5042 16.0626 19.2546C16.0626 21.005 17.5041 22.4465 19.2546 22.4465C21.005 22.4465 22.4465 21.005 22.4465 19.2546C22.4465 17.5042 21.005 16.0626 19.2546 16.0626ZM19.2546 8.44318C17.5041 8.44318 16.0626 9.8847 16.0626 11.6351C16.0626 13.3855 17.5041 14.827 19.2546 14.827C21.005 14.827 22.4465 13.3855 22.4465 11.6351C22.4465 9.8847 21.005 8.44318 19.2546 8.44318ZM72.3848 6.07497C72.4878 6.07497 72.5907 6.17794 72.6937 6.2809V9.5758C72.6937 9.78173 72.4878 9.8847 72.3848 9.8847H66.9276C66.7217 9.8847 66.6187 9.67877 66.6187 9.5758V6.38387C66.6187 6.17794 66.8247 6.07497 66.9276 6.07497H72.3848ZM72.2818 10.7084H61.7793C61.6764 10.7084 61.4704 10.8114 61.4704 11.0173L60.1319 16.1656L60.0289 16.4745L58.3815 11.0173C58.3815 10.9144 58.1755 10.7084 58.0726 10.7084H53.954C53.851 10.7084 53.6451 10.8114 53.6451 11.0173L52.1006 16.1656L51.9976 16.4745L51.8946 16.1656L51.2769 13.5915L50.6591 11.0173C50.6591 10.9144 50.4531 10.7084 50.3502 10.7084H42.1129V6.2809C42.1129 6.17794 41.907 5.97201 41.7011 6.07497L36.5528 7.72242C36.3468 7.72242 36.2439 7.82539 36.2439 8.03132V10.8114H34.9053C34.8024 10.8114 34.5964 10.9144 34.5964 11.1203V15.033C34.5964 15.1359 34.6994 15.3419 34.9053 15.3419H36.2439V20.1813C36.2439 23.5791 38.0973 25.1236 41.4951 25.1236C42.9366 25.1236 44.2752 24.8147 45.2019 24.2999V20.1813C45.2019 19.9753 44.996 19.8724 44.893 19.9753C44.3782 20.1813 43.8633 20.2842 43.4515 20.2842C42.5248 20.2842 42.01 19.8724 42.01 18.8427V15.3419H44.996C45.0989 15.3419 45.3049 15.2389 45.3049 15.033V11.7381L49.2175 24.7117C49.2175 24.8147 49.4235 25.0206 49.5264 25.0206H53.851C53.954 25.0206 54.1599 24.9177 54.1599 24.7117L56.0133 18.9457L56.94 21.9317L57.7637 24.7117C57.7637 24.8147 57.9696 25.0206 58.0726 25.0206H62.3971C62.5001 25.0206 62.706 24.9177 62.706 24.7117L66.6187 11.7381V24.7117C66.6187 24.8147 66.7217 25.0206 66.9276 25.0206H72.1789C72.2818 25.0206 72.4878 24.9177 72.4878 24.7117V11.0173C72.4878 10.9144 72.3848 10.7084 72.2818 10.7084ZM79.1805 6.07497H73.9293C73.8263 6.07497 73.6204 6.17794 73.6204 6.38387V24.6088C73.6204 24.7117 73.7234 24.9177 73.9293 24.9177H79.1805C79.2835 24.9177 79.4894 24.8147 79.4894 24.6088V6.2809C79.4894 6.17794 79.3865 6.07497 79.1805 6.07497ZM86.1822 6.07497H80.725C80.622 6.07497 80.4161 6.17794 80.4161 6.38387V9.5758C80.4161 9.67877 80.5191 9.8847 80.725 9.8847H86.1822C86.2851 9.8847 86.4911 9.78173 86.4911 9.5758V6.2809C86.4911 6.17794 86.3881 6.07497 86.1822 6.07497ZM86.0792 10.7084H80.828C80.725 10.7084 80.5191 10.8114 80.5191 11.0173V24.5058C80.5191 24.6088 80.622 24.8147 80.828 24.8147H86.0792C86.1822 24.8147 86.3881 24.7117 86.3881 24.5058V11.0173C86.3881 10.9144 86.2851 10.7084 86.0792 10.7084ZM102.657 17.7101C102.657 21.6228 99.3618 25.0206 94.7283 25.0206C90.1978 25.0206 86.9029 21.6228 86.9029 17.7101C86.9029 13.7974 90.1978 10.3995 94.8313 10.3995C99.3618 10.3995 102.657 13.7974 102.657 17.7101ZM97.0965 17.813C97.0965 16.3715 96.0669 15.2389 94.8313 15.3419C93.4927 15.3419 92.566 16.4745 92.566 17.813C92.566 19.1516 93.5957 20.2842 94.8313 20.2842C96.1698 20.2842 97.0965 19.1516 97.0965 17.813Z" fill="#ffffff"/>
</svg>
