<?xml version="1.0"?>
<svg xmlns="http://www.w3.org/2000/svg" width="36" height="30" viewBox="0 0 36 30" fill="none">
<path id="twitter-icon" fill-rule="evenodd" clip-rule="evenodd" d="M16.8643 7.2578C16.8643 7.8272 16.9271 8.37895 17.0479 8.91146C11.1466 8.60992 5.91232 5.71963 2.40919 1.32806C1.79865 2.40109 1.44865 3.64735 1.44865 4.97701C1.44865 7.49519 2.70268 9.71663 4.60806 11.019C3.44349 10.9805 2.34955 10.6533 1.39058 10.1096C1.38901 10.1401 1.38901 10.1705 1.38901 10.201C1.38901 13.7185 3.83743 16.6504 7.08787 17.3177C6.49146 17.4845 5.86366 17.5727 5.21703 17.5727C4.75873 17.5727 4.31299 17.5278 3.87981 17.4428C4.78227 20.3267 7.40648 22.423 10.5141 22.4823C8.08451 24.4295 5.02084 25.5892 1.69349 25.5892C1.12063 25.5892 0.555604 25.5555 0 25.4865C3.14214 27.5476 6.87599 28.7489 10.8861 28.7489C23.949 28.7489 31.0934 17.6898 31.0934 8.09987C31.0934 7.78389 31.0856 7.47113 31.0714 7.15996C32.4589 6.13665 33.6643 4.85832 34.6154 3.40195C33.3409 3.97936 31.9723 4.37072 30.5362 4.54555C32.0022 3.64735 33.1291 2.22626 33.6596 0.530902C32.2862 1.36334 30.7685 1.96642 29.1488 2.29202C27.854 0.882164 26.0082 0 23.9663 0C20.0441 0 16.8643 3.24957 16.8643 7.2578Z" fill="#1585BB"/>
</svg>
